<svg width="1100" height="374" viewBox="0 0 1100 374" fill="none" xmlns="http://www.w3.org/2000/svg">
<path d="M0 64.6796C0 43.6268 16.5088 26.2722 37.5354 25.2214L542.183 0L1051.88 25.2378C1072.91 26.2794 1089.43 43.6371 1089.43 64.6969V295.179C1089.43 315.977 1073.31 333.213 1052.56 334.599L544.717 368.524L36.8742 334.599C16.1232 333.213 0 315.977 0 295.179V64.6796Z" fill="url(#paint0_linear_124_14917)"/>
<mask id="mask0_124_14917" style="mask-type:alpha" maskUnits="userSpaceOnUse" x="10" y="5" width="1090" height="369">
<path d="M10.1367 70.0995C10.1367 49.0467 26.6455 31.6922 47.6721 30.6413L552.32 5.41992L1062.02 30.6578C1083.05 31.6993 1099.57 49.057 1099.57 70.1169V300.599C1099.57 321.396 1083.45 338.633 1062.7 340.019L554.854 373.943L47.0109 340.019C26.2599 338.633 10.1367 321.397 10.1367 300.599V70.0995Z" fill="url(#paint1_linear_124_14917)"/>
</mask>
<g mask="url(#mask0_124_14917)">
<ellipse opacity="0.15" cx="554.674" cy="-210.195" rx="475.889" ry="443.235" stroke="url(#paint2_linear_124_14917)" stroke-width="259.917"/>
</g>
<path d="M72.544 105.464L70.864 119H64.648L66.328 105.512L57.28 84.296H62.824C63.368 84.296 63.792 84.424 64.096 84.68C64.4 84.936 64.624 85.28 64.768 85.712L69.232 97.712C69.44 98.304 69.616 98.88 69.76 99.44C69.904 99.984 70.032 100.512 70.144 101.024C70.4 100.496 70.672 99.968 70.96 99.44C71.264 98.896 71.592 98.32 71.944 97.712L79.408 85.712C79.632 85.344 79.928 85.016 80.296 84.728C80.664 84.44 81.104 84.296 81.616 84.296H86.776L72.544 105.464ZM90.3224 114.8C91.3144 114.8 92.2104 114.52 93.0104 113.96C93.8104 113.384 94.4904 112.624 95.0504 111.68C95.6104 110.72 96.0424 109.608 96.3464 108.344C96.6504 107.08 96.8024 105.752 96.8024 104.36C96.8024 102.36 96.4664 100.896 95.7944 99.968C95.1224 99.024 94.0984 98.552 92.7224 98.552C91.7304 98.552 90.8264 98.832 90.0104 99.392C89.2104 99.952 88.5304 100.712 87.9704 101.672C87.4104 102.616 86.9784 103.72 86.6744 104.984C86.3704 106.248 86.2184 107.584 86.2184 108.992C86.2184 110.992 86.5544 112.464 87.2264 113.408C87.8984 114.336 88.9304 114.8 90.3224 114.8ZM89.7704 119.36C88.4104 119.36 87.1544 119.136 86.0024 118.688C84.8504 118.224 83.8504 117.552 83.0024 116.672C82.1544 115.792 81.4904 114.712 81.0104 113.432C80.5304 112.152 80.2904 110.688 80.2904 109.04C80.2904 106.912 80.6344 104.928 81.3224 103.088C82.0104 101.248 82.9384 99.656 84.1064 98.312C85.2904 96.968 86.6664 95.912 88.2344 95.144C89.8024 94.376 91.4744 93.992 93.2504 93.992C94.6104 93.992 95.8664 94.224 97.0184 94.688C98.1864 95.136 99.1864 95.8 100.018 96.68C100.866 97.56 101.53 98.64 102.01 99.92C102.49 101.2 102.73 102.664 102.73 104.312C102.73 106.424 102.386 108.4 101.698 110.24C101.01 112.064 100.074 113.656 98.8904 115.016C97.7224 116.36 96.3544 117.424 94.7864 118.208C93.2184 118.976 91.5464 119.36 89.7704 119.36ZM128.767 94.376L125.791 119H122.791C121.383 119 120.679 118.32 120.679 116.96L120.823 114.128C119.575 115.888 118.207 117.2 116.719 118.064C115.247 118.928 113.719 119.36 112.135 119.36C111.111 119.36 110.191 119.152 109.375 118.736C108.559 118.32 107.887 117.72 107.359 116.936C106.831 116.136 106.455 115.152 106.231 113.984C106.023 112.816 106.015 111.488 106.207 110L108.055 94.376H113.983L112.135 110C111.927 111.616 112.007 112.776 112.375 113.48C112.743 114.168 113.415 114.512 114.391 114.512C115.031 114.512 115.679 114.336 116.335 113.984C117.007 113.632 117.655 113.128 118.279 112.472C118.903 111.816 119.479 111.032 120.007 110.12C120.535 109.192 120.975 108.16 121.327 107.024L122.839 94.376H128.767ZM139.088 100.28C139.712 99.064 140.376 98.024 141.08 97.16C141.8 96.28 142.544 95.6 143.312 95.12C144.08 94.624 144.872 94.336 145.688 94.256C146.504 94.16 147.32 94.288 148.136 94.64L147.056 100.304C145.104 99.488 143.392 99.688 141.92 100.904C140.464 102.12 139.296 104.512 138.416 108.08L137.096 119H131.288L134.264 94.352H137.288C137.912 94.352 138.392 94.504 138.728 94.808C139.08 95.112 139.256 95.6 139.256 96.272L139.088 100.28ZM188.963 84.296L171.803 119H166.163L157.523 84.296H162.539C163.083 84.296 163.507 84.432 163.811 84.704C164.131 84.96 164.331 85.296 164.411 85.712L169.067 107.336C169.243 108.008 169.403 108.744 169.547 109.544C169.691 110.328 169.819 111.152 169.931 112.016C170.203 111.152 170.499 110.328 170.819 109.544C171.139 108.744 171.467 108.008 171.803 107.336L181.691 85.712C181.851 85.36 182.131 85.04 182.531 84.752C182.947 84.448 183.411 84.296 183.923 84.296H188.963ZM193.963 114.8C194.955 114.8 195.851 114.52 196.651 113.96C197.451 113.384 198.131 112.624 198.691 111.68C199.251 110.72 199.683 109.608 199.987 108.344C200.291 107.08 200.443 105.752 200.443 104.36C200.443 102.36 200.107 100.896 199.435 99.968C198.763 99.024 197.739 98.552 196.363 98.552C195.371 98.552 194.467 98.832 193.651 99.392C192.851 99.952 192.171 100.712 191.611 101.672C191.051 102.616 190.619 103.72 190.315 104.984C190.011 106.248 189.859 107.584 189.859 108.992C189.859 110.992 190.195 112.464 190.867 113.408C191.539 114.336 192.571 114.8 193.963 114.8ZM193.411 119.36C192.051 119.36 190.795 119.136 189.643 118.688C188.491 118.224 187.491 117.552 186.643 116.672C185.795 115.792 185.131 114.712 184.651 113.432C184.171 112.152 183.931 110.688 183.931 109.04C183.931 106.912 184.275 104.928 184.963 103.088C185.651 101.248 186.579 99.656 187.747 98.312C188.931 96.968 190.307 95.912 191.875 95.144C193.443 94.376 195.115 93.992 196.891 93.992C198.251 93.992 199.507 94.224 200.659 94.688C201.827 95.136 202.827 95.8 203.659 96.68C204.507 97.56 205.171 98.64 205.651 99.92C206.131 101.2 206.371 102.664 206.371 104.312C206.371 106.424 206.027 108.4 205.339 110.24C204.651 112.064 203.715 113.656 202.531 115.016C201.363 116.36 199.995 117.424 198.427 118.208C196.859 118.976 195.187 119.36 193.411 119.36ZM210.579 113.984C210.579 113.872 210.579 113.744 210.579 113.6C210.579 113.44 210.587 113.216 210.603 112.928C210.635 112.624 210.675 112.232 210.723 111.752C210.787 111.256 210.867 110.624 210.963 109.856L212.331 98.816H210.003C209.715 98.816 209.475 98.712 209.283 98.504C209.107 98.296 209.051 97.984 209.115 97.568L209.379 95.216L213.123 94.568L215.091 87.848C215.203 87.528 215.371 87.28 215.595 87.104C215.819 86.928 216.099 86.84 216.435 86.84H219.603L218.643 94.592H224.595L224.091 98.816H218.115L216.795 109.544C216.715 110.2 216.651 110.72 216.603 111.104C216.555 111.488 216.515 111.792 216.483 112.016C216.467 112.224 216.459 112.376 216.459 112.472C216.459 112.552 216.459 112.608 216.459 112.64C216.459 113.248 216.603 113.728 216.891 114.08C217.195 114.432 217.619 114.608 218.163 114.608C218.499 114.608 218.787 114.568 219.027 114.488C219.267 114.392 219.475 114.296 219.651 114.2C219.827 114.104 219.987 114.016 220.131 113.936C220.275 113.84 220.411 113.792 220.539 113.792C220.715 113.792 220.851 113.84 220.947 113.936C221.043 114.016 221.131 114.144 221.211 114.32L222.483 117.2C221.603 117.92 220.627 118.464 219.555 118.832C218.499 119.2 217.419 119.384 216.315 119.384C214.571 119.384 213.187 118.912 212.163 117.968C211.155 117.024 210.627 115.696 210.579 113.984ZM238.394 98.168C237.594 98.168 236.85 98.336 236.162 98.672C235.474 98.992 234.85 99.448 234.29 100.04C233.746 100.632 233.266 101.344 232.85 102.176C232.45 102.992 232.13 103.888 231.89 104.864C233.874 104.592 235.466 104.296 236.666 103.976C237.882 103.64 238.818 103.288 239.474 102.92C240.13 102.536 240.562 102.128 240.77 101.696C240.994 101.248 241.106 100.784 241.106 100.304C241.106 100.064 241.05 99.816 240.938 99.56C240.842 99.304 240.682 99.08 240.458 98.888C240.25 98.68 239.97 98.512 239.618 98.384C239.282 98.24 238.874 98.168 238.394 98.168ZM231.386 108.968C231.386 112.84 233.026 114.776 236.306 114.776C237.01 114.776 237.634 114.712 238.178 114.584C238.722 114.44 239.194 114.272 239.594 114.08C240.01 113.888 240.378 113.672 240.698 113.432C241.034 113.192 241.338 112.976 241.61 112.784C241.898 112.592 242.178 112.432 242.45 112.304C242.722 112.16 243.018 112.088 243.338 112.088C243.53 112.088 243.714 112.136 243.89 112.232C244.082 112.328 244.25 112.456 244.394 112.616L245.906 114.44C245.058 115.288 244.226 116.024 243.41 116.648C242.594 117.272 241.762 117.784 240.914 118.184C240.066 118.584 239.17 118.88 238.226 119.072C237.282 119.264 236.258 119.36 235.154 119.36C233.714 119.36 232.41 119.12 231.242 118.64C230.074 118.144 229.074 117.456 228.242 116.576C227.41 115.68 226.762 114.608 226.298 113.36C225.85 112.096 225.626 110.688 225.626 109.136C225.626 107.84 225.762 106.568 226.034 105.32C226.322 104.072 226.73 102.888 227.258 101.768C227.786 100.648 228.434 99.616 229.202 98.672C229.97 97.728 230.834 96.912 231.794 96.224C232.77 95.536 233.834 95 234.986 94.616C236.154 94.232 237.402 94.04 238.73 94.04C240.01 94.04 241.13 94.224 242.09 94.592C243.066 94.96 243.874 95.44 244.514 96.032C245.17 96.608 245.658 97.256 245.978 97.976C246.298 98.696 246.458 99.4 246.458 100.088C246.458 101.192 246.234 102.2 245.786 103.112C245.354 104.024 244.57 104.84 243.434 105.56C242.314 106.28 240.778 106.904 238.826 107.432C236.874 107.944 234.394 108.352 231.386 108.656V108.968ZM249.472 124.88C249.184 124.64 249.04 124.352 249.04 124.016C249.04 123.792 249.176 123.52 249.448 123.2C249.72 122.896 250.024 122.536 250.36 122.12C250.712 121.704 251.056 121.232 251.392 120.704C251.728 120.176 251.968 119.584 252.112 118.928C251.6 118.928 251.136 118.84 250.72 118.664C250.32 118.472 249.968 118.216 249.664 117.896C249.36 117.576 249.128 117.2 248.968 116.768C248.808 116.336 248.728 115.864 248.728 115.352C248.728 114.904 248.808 114.488 248.968 114.104C249.144 113.704 249.384 113.36 249.688 113.072C249.992 112.768 250.352 112.536 250.768 112.376C251.2 112.2 251.672 112.112 252.184 112.112C252.792 112.112 253.32 112.224 253.768 112.448C254.232 112.656 254.608 112.952 254.896 113.336C255.2 113.704 255.424 114.136 255.568 114.632C255.728 115.112 255.808 115.624 255.808 116.168C255.808 116.936 255.688 117.744 255.448 118.592C255.224 119.44 254.888 120.288 254.44 121.136C253.992 121.984 253.44 122.808 252.784 123.608C252.128 124.408 251.368 125.144 250.504 125.816L249.472 124.88ZM285.45 105.464L283.77 119H277.554L279.234 105.512L270.186 84.296H275.73C276.274 84.296 276.698 84.424 277.002 84.68C277.306 84.936 277.53 85.28 277.674 85.712L282.138 97.712C282.346 98.304 282.522 98.88 282.666 99.44C282.81 99.984 282.938 100.512 283.05 101.024C283.306 100.496 283.578 99.968 283.866 99.44C284.17 98.896 284.498 98.32 284.85 97.712L292.314 85.712C292.538 85.344 292.834 85.016 293.202 84.728C293.57 84.44 294.01 84.296 294.522 84.296H299.682L285.45 105.464ZM303.229 114.8C304.221 114.8 305.117 114.52 305.917 113.96C306.717 113.384 307.397 112.624 307.957 111.68C308.517 110.72 308.949 109.608 309.253 108.344C309.557 107.08 309.709 105.752 309.709 104.36C309.709 102.36 309.373 100.896 308.701 99.968C308.029 99.024 307.005 98.552 305.629 98.552C304.637 98.552 303.733 98.832 302.917 99.392C302.117 99.952 301.437 100.712 300.877 101.672C300.317 102.616 299.885 103.72 299.581 104.984C299.277 106.248 299.125 107.584 299.125 108.992C299.125 110.992 299.461 112.464 300.133 113.408C300.805 114.336 301.837 114.8 303.229 114.8ZM302.677 119.36C301.317 119.36 300.061 119.136 298.909 118.688C297.757 118.224 296.757 117.552 295.909 116.672C295.061 115.792 294.397 114.712 293.917 113.432C293.437 112.152 293.197 110.688 293.197 109.04C293.197 106.912 293.541 104.928 294.229 103.088C294.917 101.248 295.845 99.656 297.013 98.312C298.197 96.968 299.573 95.912 301.141 95.144C302.709 94.376 304.381 93.992 306.157 93.992C307.517 93.992 308.773 94.224 309.925 94.688C311.093 95.136 312.093 95.8 312.925 96.68C313.773 97.56 314.437 98.64 314.917 99.92C315.397 101.2 315.637 102.664 315.637 104.312C315.637 106.424 315.293 108.4 314.605 110.24C313.917 112.064 312.981 113.656 311.797 115.016C310.629 116.36 309.261 117.424 307.693 118.208C306.125 118.976 304.453 119.36 302.677 119.36ZM341.674 94.376L338.698 119H335.698C334.29 119 333.586 118.32 333.586 116.96L333.73 114.128C332.482 115.888 331.114 117.2 329.626 118.064C328.154 118.928 326.626 119.36 325.042 119.36C324.018 119.36 323.098 119.152 322.282 118.736C321.466 118.32 320.794 117.72 320.266 116.936C319.738 116.136 319.362 115.152 319.138 113.984C318.93 112.816 318.922 111.488 319.114 110L320.962 94.376H326.89L325.042 110C324.834 111.616 324.914 112.776 325.282 113.48C325.65 114.168 326.322 114.512 327.298 114.512C327.938 114.512 328.586 114.336 329.242 113.984C329.914 113.632 330.562 113.128 331.186 112.472C331.81 111.816 332.386 111.032 332.914 110.12C333.442 109.192 333.882 108.16 334.234 107.024L335.746 94.376H341.674ZM351.994 100.28C352.618 99.064 353.282 98.024 353.986 97.16C354.706 96.28 355.45 95.6 356.218 95.12C356.986 94.624 357.778 94.336 358.594 94.256C359.41 94.16 360.226 94.288 361.042 94.64L359.962 100.304C358.01 99.488 356.298 99.688 354.826 100.904C353.37 102.12 352.202 104.512 351.322 108.08L350.002 119H344.194L347.17 94.352H350.194C350.818 94.352 351.298 94.504 351.634 94.808C351.986 95.112 352.162 95.6 352.162 96.272L351.994 100.28ZM401.869 84.296L384.709 119H379.069L370.429 84.296H375.445C375.989 84.296 376.413 84.432 376.717 84.704C377.037 84.96 377.237 85.296 377.317 85.712L381.973 107.336C382.149 108.008 382.309 108.744 382.453 109.544C382.597 110.328 382.725 111.152 382.837 112.016C383.109 111.152 383.405 110.328 383.725 109.544C384.045 108.744 384.373 108.008 384.709 107.336L394.597 85.712C394.757 85.36 395.037 85.04 395.437 84.752C395.853 84.448 396.317 84.296 396.829 84.296H401.869ZM409.281 94.376L406.329 119H400.497L403.449 94.376H409.281ZM410.793 87.2C410.793 87.712 410.681 88.192 410.457 88.64C410.249 89.088 409.969 89.48 409.617 89.816C409.265 90.152 408.865 90.424 408.417 90.632C407.969 90.824 407.505 90.92 407.025 90.92C406.561 90.92 406.113 90.824 405.681 90.632C405.249 90.424 404.865 90.152 404.529 89.816C404.193 89.48 403.921 89.088 403.713 88.64C403.521 88.192 403.425 87.712 403.425 87.2C403.425 86.688 403.529 86.2 403.737 85.736C403.945 85.272 404.217 84.872 404.553 84.536C404.889 84.184 405.273 83.912 405.705 83.72C406.153 83.512 406.609 83.408 407.073 83.408C407.553 83.408 408.017 83.512 408.465 83.72C408.913 83.912 409.305 84.176 409.641 84.512C409.993 84.848 410.273 85.248 410.481 85.712C410.689 86.176 410.793 86.672 410.793 87.2ZM418.479 113.24C419.023 113.832 419.647 114.248 420.351 114.488C421.055 114.728 421.751 114.848 422.439 114.848C423.495 114.848 424.455 114.52 425.319 113.864C426.183 113.208 426.919 112.352 427.527 111.296C428.151 110.24 428.631 109.056 428.967 107.744C429.303 106.416 429.471 105.088 429.471 103.76C429.471 102.032 429.191 100.752 428.631 99.92C428.071 99.072 427.287 98.648 426.279 98.648C425.623 98.648 424.959 98.872 424.286 99.32C423.615 99.752 422.967 100.36 422.343 101.144C421.719 101.912 421.135 102.824 420.591 103.88C420.063 104.936 419.607 106.072 419.223 107.288L418.479 113.24ZM420.207 99.248C421.359 97.632 422.639 96.352 424.047 95.408C425.471 94.464 426.983 93.992 428.583 93.992C429.607 93.992 430.535 94.184 431.367 94.568C432.199 94.936 432.911 95.496 433.503 96.248C434.095 97 434.551 97.952 434.871 99.104C435.191 100.256 435.351 101.608 435.351 103.16C435.351 104.552 435.207 105.92 434.919 107.264C434.631 108.608 434.223 109.88 433.695 111.08C433.183 112.28 432.559 113.384 431.823 114.392C431.087 115.4 430.271 116.272 429.375 117.008C428.495 117.744 427.543 118.32 426.519 118.736C425.511 119.152 424.463 119.36 423.375 119.36C422.127 119.36 421.007 119.112 420.015 118.616C419.023 118.104 418.191 117.416 417.519 116.552L417.327 117.368C417.151 117.928 416.919 118.344 416.631 118.616C416.343 118.872 415.879 119 415.239 119H412.023L416.343 83.336H422.151L420.207 99.248ZM450.738 98.168C449.938 98.168 449.194 98.336 448.506 98.672C447.818 98.992 447.194 99.448 446.634 100.04C446.09 100.632 445.61 101.344 445.194 102.176C444.794 102.992 444.474 103.888 444.234 104.864C446.218 104.592 447.81 104.296 449.01 103.976C450.226 103.64 451.162 103.288 451.818 102.92C452.474 102.536 452.906 102.128 453.114 101.696C453.338 101.248 453.45 100.784 453.45 100.304C453.45 100.064 453.394 99.816 453.282 99.56C453.186 99.304 453.026 99.08 452.802 98.888C452.594 98.68 452.314 98.512 451.962 98.384C451.626 98.24 451.218 98.168 450.738 98.168ZM443.73 108.968C443.73 112.84 445.37 114.776 448.65 114.776C449.354 114.776 449.978 114.712 450.522 114.584C451.066 114.44 451.538 114.272 451.938 114.08C452.354 113.888 452.722 113.672 453.042 113.432C453.378 113.192 453.682 112.976 453.954 112.784C454.242 112.592 454.522 112.432 454.794 112.304C455.066 112.16 455.362 112.088 455.682 112.088C455.874 112.088 456.058 112.136 456.234 112.232C456.426 112.328 456.594 112.456 456.738 112.616L458.25 114.44C457.402 115.288 456.57 116.024 455.754 116.648C454.938 117.272 454.106 117.784 453.258 118.184C452.41 118.584 451.514 118.88 450.57 119.072C449.626 119.264 448.602 119.36 447.498 119.36C446.058 119.36 444.754 119.12 443.586 118.64C442.418 118.144 441.418 117.456 440.586 116.576C439.754 115.68 439.106 114.608 438.642 113.36C438.194 112.096 437.97 110.688 437.97 109.136C437.97 107.84 438.106 106.568 438.378 105.32C438.666 104.072 439.074 102.888 439.602 101.768C440.13 100.648 440.778 99.616 441.546 98.672C442.314 97.728 443.178 96.912 444.138 96.224C445.114 95.536 446.178 95 447.33 94.616C448.498 94.232 449.746 94.04 451.074 94.04C452.354 94.04 453.474 94.224 454.434 94.592C455.41 94.96 456.218 95.44 456.858 96.032C457.514 96.608 458.002 97.256 458.322 97.976C458.642 98.696 458.802 99.4 458.802 100.088C458.802 101.192 458.578 102.2 458.13 103.112C457.698 104.024 456.914 104.84 455.778 105.56C454.658 106.28 453.122 106.904 451.17 107.432C449.218 107.944 446.738 108.352 443.73 108.656V108.968ZM471.68 84.296L470 98.048C469.824 99.504 469.576 100.936 469.256 102.344C468.936 103.736 468.568 105.224 468.152 106.808H464.288C464.256 105.224 464.256 103.736 464.288 102.344C464.336 100.936 464.456 99.504 464.648 98.048L466.328 84.296H471.68ZM461.84 115.736C461.84 115.24 461.928 114.768 462.104 114.32C462.296 113.872 462.552 113.488 462.872 113.168C463.192 112.848 463.576 112.592 464.024 112.4C464.472 112.208 464.952 112.112 465.464 112.112C465.96 112.112 466.432 112.208 466.88 112.4C467.328 112.592 467.712 112.848 468.032 113.168C468.368 113.488 468.632 113.872 468.824 114.32C469.016 114.768 469.112 115.24 469.112 115.736C469.112 116.248 469.016 116.728 468.824 117.176C468.632 117.608 468.368 117.984 468.032 118.304C467.712 118.624 467.328 118.872 466.88 119.048C466.432 119.24 465.96 119.336 465.464 119.336C464.952 119.336 464.472 119.24 464.024 119.048C463.576 118.872 463.192 118.624 462.872 118.304C462.552 117.984 462.296 117.608 462.104 117.176C461.928 116.728 461.84 116.248 461.84 115.736ZM69.496 159.864C70.728 159.864 71.792 159.68 72.688 159.312C73.584 158.944 74.32 158.432 74.896 157.776C75.488 157.104 75.92 156.312 76.192 155.4C76.48 154.488 76.624 153.48 76.624 152.376C76.624 151.592 76.512 150.872 76.288 150.216C76.064 149.56 75.72 149.008 75.256 148.56C74.792 148.096 74.208 147.736 73.504 147.48C72.816 147.224 71.992 147.096 71.032 147.096H66.712L65.152 159.864H69.496ZM71.632 142.296C73.6 142.296 75.288 142.536 76.696 143.016C78.12 143.48 79.288 144.136 80.2 144.984C81.112 145.832 81.784 146.84 82.216 148.008C82.664 149.16 82.888 150.432 82.888 151.824C82.888 153.68 82.592 155.4 82 156.984C81.424 158.552 80.552 159.912 79.384 161.064C78.216 162.2 76.752 163.096 74.992 163.752C73.248 164.392 71.208 164.712 68.872 164.712H64.552L63.04 177H56.848L61.072 142.296H71.632ZM92.8278 152.376L89.8758 177H84.0438L86.9958 152.376H92.8278ZM94.3398 145.2C94.3398 145.712 94.2278 146.192 94.0038 146.64C93.7958 147.088 93.5158 147.48 93.1638 147.816C92.8118 148.152 92.4118 148.424 91.9638 148.632C91.5158 148.824 91.0518 148.92 90.5718 148.92C90.1078 148.92 89.6598 148.824 89.2278 148.632C88.7958 148.424 88.4118 148.152 88.0758 147.816C87.7398 147.48 87.4678 147.088 87.2598 146.64C87.0678 146.192 86.9718 145.712 86.9718 145.2C86.9718 144.688 87.0758 144.2 87.2838 143.736C87.4918 143.272 87.7638 142.872 88.0998 142.536C88.4358 142.184 88.8198 141.912 89.2518 141.72C89.6998 141.512 90.1558 141.408 90.6198 141.408C91.0998 141.408 91.5638 141.512 92.0118 141.72C92.4598 141.912 92.8518 142.176 93.1878 142.512C93.5398 142.848 93.8198 143.248 94.0278 143.712C94.2358 144.176 94.3398 144.672 94.3398 145.2ZM114.553 172.632C113.737 173.528 112.953 174.28 112.201 174.888C111.465 175.496 110.713 175.984 109.945 176.352C109.177 176.72 108.369 176.976 107.521 177.12C106.689 177.28 105.769 177.36 104.761 177.36C103.337 177.36 102.057 177.12 100.921 176.64C99.8014 176.144 98.8494 175.448 98.0654 174.552C97.2814 173.656 96.6814 172.576 96.2654 171.312C95.8494 170.048 95.6414 168.64 95.6414 167.088C95.6414 165.76 95.7854 164.464 96.0734 163.2C96.3614 161.936 96.7774 160.744 97.3214 159.624C97.8654 158.504 98.5214 157.48 99.2894 156.552C100.057 155.624 100.921 154.824 101.881 154.152C102.841 153.48 103.881 152.96 105.001 152.592C106.137 152.208 107.337 152.016 108.601 152.016C110.233 152.016 111.617 152.304 112.753 152.88C113.905 153.456 114.921 154.32 115.801 155.472L113.905 157.728C113.777 157.872 113.617 158.008 113.425 158.136C113.233 158.248 113.025 158.304 112.801 158.304C112.529 158.304 112.281 158.224 112.057 158.064C111.849 157.888 111.593 157.704 111.289 157.512C111.001 157.32 110.633 157.144 110.185 156.984C109.753 156.808 109.185 156.72 108.481 156.72C107.569 156.72 106.697 156.968 105.865 157.464C105.033 157.96 104.297 158.664 103.657 159.576C103.017 160.488 102.505 161.584 102.121 162.864C101.753 164.144 101.569 165.56 101.569 167.112C101.569 168.92 101.969 170.32 102.769 171.312C103.569 172.288 104.657 172.776 106.033 172.776C106.641 172.776 107.177 172.712 107.641 172.584C108.105 172.456 108.513 172.304 108.865 172.128C109.233 171.936 109.553 171.736 109.825 171.528C110.097 171.304 110.353 171.104 110.593 170.928C110.833 170.736 111.057 170.576 111.265 170.448C111.489 170.32 111.729 170.256 111.985 170.256C112.193 170.256 112.385 170.312 112.561 170.424C112.753 170.52 112.921 170.648 113.065 170.808L114.553 172.632ZM127.495 141.336L124.999 161.76H125.599C125.967 161.76 126.263 161.704 126.487 161.592C126.727 161.48 126.975 161.272 127.231 160.968L133.783 153.408C134.055 153.072 134.343 152.816 134.647 152.64C134.951 152.464 135.335 152.376 135.799 152.376H141.079L132.967 161.52C132.391 162.224 131.767 162.776 131.095 163.176C131.399 163.4 131.655 163.672 131.863 163.992C132.087 164.312 132.287 164.664 132.463 165.048L138.535 177H133.399C132.967 177 132.607 176.928 132.319 176.784C132.031 176.624 131.799 176.344 131.623 175.944L126.847 166.608C126.671 166.24 126.479 166 126.271 165.888C126.079 165.776 125.759 165.72 125.311 165.72H124.495L123.127 177H117.271L121.663 141.336H127.495ZM153.767 171.984C153.767 171.872 153.767 171.744 153.767 171.6C153.767 171.44 153.775 171.216 153.791 170.928C153.823 170.624 153.863 170.232 153.911 169.752C153.975 169.256 154.055 168.624 154.151 167.856L155.519 156.816H153.191C152.903 156.816 152.663 156.712 152.471 156.504C152.295 156.296 152.239 155.984 152.303 155.568L152.567 153.216L156.311 152.568L158.279 145.848C158.391 145.528 158.559 145.28 158.783 145.104C159.007 144.928 159.287 144.84 159.623 144.84H162.791L161.831 152.592H167.783L167.279 156.816H161.303L159.983 167.544C159.903 168.2 159.839 168.72 159.791 169.104C159.743 169.488 159.703 169.792 159.671 170.016C159.655 170.224 159.647 170.376 159.647 170.472C159.647 170.552 159.647 170.608 159.647 170.64C159.647 171.248 159.791 171.728 160.079 172.08C160.383 172.432 160.807 172.608 161.351 172.608C161.687 172.608 161.975 172.568 162.215 172.488C162.455 172.392 162.663 172.296 162.839 172.2C163.015 172.104 163.175 172.016 163.319 171.936C163.463 171.84 163.599 171.792 163.727 171.792C163.903 171.792 164.039 171.84 164.135 171.936C164.231 172.016 164.319 172.144 164.399 172.32L165.671 175.2C164.791 175.92 163.815 176.464 162.743 176.832C161.687 177.2 160.607 177.384 159.503 177.384C157.759 177.384 156.375 176.912 155.351 175.968C154.343 175.024 153.815 173.696 153.767 171.984ZM177.657 156.552C178.857 155.016 180.153 153.872 181.545 153.12C182.953 152.368 184.385 151.992 185.841 151.992C186.881 151.992 187.809 152.2 188.625 152.616C189.457 153.032 190.137 153.64 190.665 154.44C191.193 155.224 191.561 156.2 191.769 157.368C191.993 158.52 192.009 159.84 191.817 161.328L189.945 177H184.041L185.889 161.328C186.097 159.728 186.009 158.576 185.625 157.872C185.257 157.168 184.577 156.816 183.585 156.816C182.977 156.816 182.345 156.992 181.689 157.344C181.033 157.68 180.401 158.168 179.793 158.808C179.185 159.432 178.617 160.192 178.089 161.088C177.561 161.984 177.113 162.984 176.745 164.088L175.185 177H169.257L173.577 141.336H179.505L177.657 156.552ZM208.066 156.168C207.266 156.168 206.522 156.336 205.834 156.672C205.146 156.992 204.522 157.448 203.962 158.04C203.418 158.632 202.938 159.344 202.522 160.176C202.122 160.992 201.802 161.888 201.562 162.864C203.546 162.592 205.138 162.296 206.338 161.976C207.554 161.64 208.49 161.288 209.146 160.92C209.802 160.536 210.234 160.128 210.442 159.696C210.666 159.248 210.778 158.784 210.778 158.304C210.778 158.064 210.722 157.816 210.61 157.56C210.514 157.304 210.354 157.08 210.13 156.888C209.922 156.68 209.642 156.512 209.29 156.384C208.954 156.24 208.546 156.168 208.066 156.168ZM201.058 166.968C201.058 170.84 202.698 172.776 205.978 172.776C206.682 172.776 207.306 172.712 207.85 172.584C208.394 172.44 208.866 172.272 209.266 172.08C209.682 171.888 210.05 171.672 210.37 171.432C210.706 171.192 211.01 170.976 211.282 170.784C211.57 170.592 211.85 170.432 212.122 170.304C212.394 170.16 212.69 170.088 213.01 170.088C213.202 170.088 213.386 170.136 213.562 170.232C213.754 170.328 213.922 170.456 214.066 170.616L215.578 172.44C214.73 173.288 213.898 174.024 213.082 174.648C212.266 175.272 211.434 175.784 210.586 176.184C209.738 176.584 208.842 176.88 207.898 177.072C206.954 177.264 205.93 177.36 204.826 177.36C203.386 177.36 202.082 177.12 200.914 176.64C199.746 176.144 198.746 175.456 197.914 174.576C197.082 173.68 196.434 172.608 195.97 171.36C195.522 170.096 195.298 168.688 195.298 167.136C195.298 165.84 195.434 164.568 195.706 163.32C195.994 162.072 196.402 160.888 196.93 159.768C197.458 158.648 198.106 157.616 198.874 156.672C199.642 155.728 200.506 154.912 201.466 154.224C202.442 153.536 203.506 153 204.658 152.616C205.826 152.232 207.074 152.04 208.402 152.04C209.682 152.04 210.802 152.224 211.762 152.592C212.738 152.96 213.546 153.44 214.186 154.032C214.842 154.608 215.33 155.256 215.65 155.976C215.97 156.696 216.13 157.4 216.13 158.088C216.13 159.192 215.906 160.2 215.458 161.112C215.026 162.024 214.242 162.84 213.106 163.56C211.986 164.28 210.45 164.904 208.498 165.432C206.546 165.944 204.066 166.352 201.058 166.656V166.968ZM239.94 147.264L238.62 157.824H250.428L249.756 162.792H238.02L236.268 177H230.004L234.276 142.296H254.508L253.884 147.264H239.94ZM276.236 152.376L273.26 177H270.26C268.852 177 268.148 176.32 268.148 174.96L268.292 172.128C267.044 173.888 265.676 175.2 264.188 176.064C262.716 176.928 261.188 177.36 259.604 177.36C258.58 177.36 257.66 177.152 256.844 176.736C256.028 176.32 255.356 175.72 254.828 174.936C254.3 174.136 253.924 173.152 253.7 171.984C253.492 170.816 253.484 169.488 253.676 168L255.524 152.376H261.452L259.604 168C259.396 169.616 259.476 170.776 259.844 171.48C260.212 172.168 260.884 172.512 261.86 172.512C262.5 172.512 263.148 172.336 263.804 171.984C264.476 171.632 265.124 171.128 265.748 170.472C266.372 169.816 266.948 169.032 267.476 168.12C268.004 167.192 268.444 166.16 268.796 165.024L270.308 152.376H276.236ZM286.557 157.464C287.805 155.624 289.189 154.256 290.709 153.36C292.229 152.448 293.797 151.992 295.413 151.992C296.437 151.992 297.357 152.2 298.173 152.616C298.989 153.032 299.661 153.64 300.189 154.44C300.717 155.224 301.085 156.2 301.293 157.368C301.517 158.52 301.533 159.84 301.341 161.328L299.493 177H293.565L295.413 161.328C295.621 159.728 295.541 158.584 295.173 157.896C294.805 157.192 294.133 156.84 293.157 156.84C292.501 156.84 291.829 157.032 291.141 157.416C290.453 157.784 289.789 158.32 289.149 159.024C288.509 159.712 287.917 160.544 287.373 161.52C286.845 162.48 286.413 163.56 286.077 164.76L284.709 177H278.781L281.733 152.352H284.733C285.357 152.352 285.837 152.504 286.173 152.808C286.525 153.112 286.701 153.6 286.701 154.272L286.557 157.464ZM312.526 157.464C313.774 155.624 315.158 154.256 316.678 153.36C318.198 152.448 319.766 151.992 321.382 151.992C322.406 151.992 323.326 152.2 324.142 152.616C324.958 153.032 325.63 153.64 326.158 154.44C326.686 155.224 327.054 156.2 327.262 157.368C327.486 158.52 327.502 159.84 327.31 161.328L325.462 177H319.534L321.382 161.328C321.59 159.728 321.51 158.584 321.142 157.896C320.774 157.192 320.102 156.84 319.126 156.84C318.47 156.84 317.798 157.032 317.11 157.416C316.422 157.784 315.758 158.32 315.118 159.024C314.478 159.712 313.886 160.544 313.342 161.52C312.814 162.48 312.382 163.56 312.046 164.76L310.678 177H304.75L307.702 152.352H310.702C311.326 152.352 311.806 152.504 312.142 152.808C312.494 153.112 312.67 153.6 312.67 154.272L312.526 157.464ZM339.718 152.376L336.766 177H330.934L333.886 152.376H339.718ZM341.23 145.2C341.23 145.712 341.118 146.192 340.894 146.64C340.686 147.088 340.406 147.48 340.054 147.816C339.702 148.152 339.302 148.424 338.854 148.632C338.406 148.824 337.942 148.92 337.462 148.92C336.998 148.92 336.55 148.824 336.118 148.632C335.686 148.424 335.302 148.152 334.966 147.816C334.63 147.48 334.358 147.088 334.15 146.64C333.958 146.192 333.862 145.712 333.862 145.2C333.862 144.688 333.966 144.2 334.174 143.736C334.382 143.272 334.654 142.872 334.99 142.536C335.326 142.184 335.71 141.912 336.142 141.72C336.59 141.512 337.046 141.408 337.51 141.408C337.99 141.408 338.454 141.512 338.902 141.72C339.35 141.912 339.742 142.176 340.078 142.512C340.43 142.848 340.71 143.248 340.918 143.712C341.126 144.176 341.23 144.672 341.23 145.2ZM355.3 156.168C354.5 156.168 353.756 156.336 353.068 156.672C352.38 156.992 351.756 157.448 351.196 158.04C350.652 158.632 350.172 159.344 349.756 160.176C349.356 160.992 349.036 161.888 348.796 162.864C350.78 162.592 352.372 162.296 353.572 161.976C354.788 161.64 355.724 161.288 356.38 160.92C357.036 160.536 357.468 160.128 357.676 159.696C357.9 159.248 358.012 158.784 358.012 158.304C358.012 158.064 357.956 157.816 357.844 157.56C357.748 157.304 357.588 157.08 357.364 156.888C357.156 156.68 356.876 156.512 356.524 156.384C356.188 156.24 355.78 156.168 355.3 156.168ZM348.292 166.968C348.292 170.84 349.932 172.776 353.212 172.776C353.916 172.776 354.54 172.712 355.084 172.584C355.628 172.44 356.1 172.272 356.5 172.08C356.916 171.888 357.284 171.672 357.604 171.432C357.94 171.192 358.244 170.976 358.516 170.784C358.804 170.592 359.084 170.432 359.356 170.304C359.628 170.16 359.924 170.088 360.244 170.088C360.436 170.088 360.62 170.136 360.796 170.232C360.988 170.328 361.156 170.456 361.3 170.616L362.812 172.44C361.964 173.288 361.132 174.024 360.316 174.648C359.5 175.272 358.668 175.784 357.82 176.184C356.972 176.584 356.076 176.88 355.132 177.072C354.188 177.264 353.164 177.36 352.06 177.36C350.62 177.36 349.316 177.12 348.148 176.64C346.98 176.144 345.98 175.456 345.148 174.576C344.316 173.68 343.668 172.608 343.204 171.36C342.756 170.096 342.532 168.688 342.532 167.136C342.532 165.84 342.668 164.568 342.94 163.32C343.228 162.072 343.636 160.888 344.164 159.768C344.692 158.648 345.34 157.616 346.108 156.672C346.876 155.728 347.74 154.912 348.7 154.224C349.676 153.536 350.74 153 351.892 152.616C353.06 152.232 354.308 152.04 355.636 152.04C356.916 152.04 358.036 152.224 358.996 152.592C359.972 152.96 360.78 153.44 361.42 154.032C362.076 154.608 362.564 155.256 362.884 155.976C363.204 156.696 363.364 157.4 363.364 158.088C363.364 159.192 363.14 160.2 362.692 161.112C362.26 162.024 361.476 162.84 360.34 163.56C359.22 164.28 357.684 164.904 355.732 165.432C353.78 165.944 351.3 166.352 348.292 166.656V166.968ZM382.267 157.008C382.091 157.264 381.923 157.448 381.763 157.56C381.603 157.656 381.395 157.704 381.139 157.704C380.851 157.704 380.563 157.624 380.275 157.464C379.987 157.304 379.651 157.128 379.267 156.936C378.899 156.728 378.467 156.544 377.971 156.384C377.491 156.224 376.915 156.144 376.243 156.144C374.979 156.144 374.011 156.432 373.339 157.008C372.667 157.568 372.331 158.272 372.331 159.12C372.331 159.776 372.563 160.304 373.027 160.704C373.507 161.104 374.107 161.456 374.827 161.76C375.547 162.064 376.315 162.376 377.131 162.696C377.963 163 378.739 163.392 379.459 163.872C380.179 164.336 380.771 164.944 381.235 165.696C381.715 166.432 381.955 167.384 381.955 168.552C381.955 169.736 381.715 170.864 381.235 171.936C380.771 173.008 380.099 173.952 379.219 174.768C378.339 175.568 377.275 176.208 376.027 176.688C374.795 177.152 373.403 177.384 371.851 177.384C371.083 177.384 370.331 177.304 369.595 177.144C368.859 177 368.171 176.792 367.531 176.52C366.907 176.248 366.331 175.928 365.803 175.56C365.275 175.192 364.827 174.792 364.459 174.36L365.923 172.104C366.099 171.832 366.307 171.624 366.547 171.48C366.787 171.336 367.083 171.264 367.435 171.264C367.771 171.264 368.075 171.368 368.347 171.576C368.619 171.784 368.931 172.016 369.283 172.272C369.651 172.512 370.091 172.736 370.603 172.944C371.131 173.152 371.803 173.256 372.619 173.256C373.275 173.256 373.851 173.168 374.347 172.992C374.859 172.816 375.291 172.576 375.643 172.272C375.995 171.968 376.259 171.616 376.435 171.216C376.611 170.816 376.699 170.392 376.699 169.944C376.699 169.4 376.563 168.952 376.291 168.6C376.019 168.232 375.651 167.92 375.187 167.664C374.739 167.392 374.227 167.16 373.651 166.968C373.075 166.76 372.483 166.544 371.875 166.32C371.283 166.096 370.699 165.84 370.123 165.552C369.563 165.264 369.051 164.904 368.587 164.472C368.139 164.024 367.779 163.488 367.507 162.864C367.235 162.224 367.099 161.448 367.099 160.536C367.099 159.448 367.307 158.392 367.723 157.368C368.139 156.328 368.747 155.416 369.547 154.632C370.347 153.832 371.331 153.192 372.499 152.712C373.683 152.232 375.035 151.992 376.555 151.992C378.123 151.992 379.515 152.264 380.731 152.808C381.947 153.336 382.963 154.016 383.779 154.848L382.267 157.008ZM387.392 171.984C387.392 171.872 387.392 171.744 387.392 171.6C387.392 171.44 387.4 171.216 387.416 170.928C387.448 170.624 387.488 170.232 387.536 169.752C387.6 169.256 387.68 168.624 387.776 167.856L389.144 156.816H386.816C386.528 156.816 386.288 156.712 386.096 156.504C385.92 156.296 385.864 155.984 385.928 155.568L386.192 153.216L389.936 152.568L391.904 145.848C392.016 145.528 392.184 145.28 392.408 145.104C392.632 144.928 392.912 144.84 393.248 144.84H396.416L395.456 152.592H401.408L400.904 156.816H394.928L393.608 167.544C393.528 168.2 393.464 168.72 393.416 169.104C393.368 169.488 393.328 169.792 393.296 170.016C393.28 170.224 393.272 170.376 393.272 170.472C393.272 170.552 393.272 170.608 393.272 170.64C393.272 171.248 393.416 171.728 393.704 172.08C394.008 172.432 394.432 172.608 394.976 172.608C395.312 172.608 395.6 172.568 395.84 172.488C396.08 172.392 396.288 172.296 396.464 172.2C396.64 172.104 396.8 172.016 396.944 171.936C397.088 171.84 397.224 171.792 397.352 171.792C397.528 171.792 397.664 171.84 397.76 171.936C397.856 172.016 397.944 172.144 398.024 172.32L399.296 175.2C398.416 175.92 397.44 176.464 396.368 176.832C395.312 177.2 394.232 177.384 393.128 177.384C391.384 177.384 390 176.912 388.976 175.968C387.968 175.024 387.44 173.696 387.392 171.984ZM453.438 142.296L449.166 177H443.694L446.478 154.392C446.542 153.976 446.614 153.528 446.694 153.048C446.79 152.568 446.894 152.072 447.006 151.56L435.078 171.336C434.806 171.784 434.462 172.12 434.046 172.344C433.646 172.568 433.206 172.68 432.726 172.68H431.862C431.382 172.68 430.958 172.568 430.59 172.344C430.238 172.12 429.982 171.784 429.822 171.336L422.67 151.56C422.654 152.056 422.63 152.536 422.598 153C422.582 153.464 422.55 153.896 422.502 154.296L419.766 177H414.27L418.542 142.296H423.222C423.494 142.296 423.718 142.312 423.894 142.344C424.086 142.36 424.254 142.408 424.398 142.488C424.542 142.552 424.678 142.656 424.806 142.8C424.934 142.928 425.07 143.096 425.214 143.304L432.39 163.128C432.678 163.976 432.918 164.84 433.11 165.72C433.318 165.272 433.526 164.832 433.734 164.4C433.958 163.968 434.198 163.544 434.454 163.128L446.502 143.304C446.694 143.096 446.862 142.928 447.006 142.8C447.166 142.656 447.326 142.552 447.486 142.488C447.646 142.408 447.822 142.36 448.014 142.344C448.206 142.312 448.438 142.296 448.71 142.296H453.438ZM467.706 156.168C466.906 156.168 466.162 156.336 465.474 156.672C464.786 156.992 464.162 157.448 463.602 158.04C463.058 158.632 462.578 159.344 462.162 160.176C461.762 160.992 461.442 161.888 461.202 162.864C463.186 162.592 464.778 162.296 465.978 161.976C467.194 161.64 468.13 161.288 468.786 160.92C469.442 160.536 469.874 160.128 470.082 159.696C470.306 159.248 470.418 158.784 470.418 158.304C470.418 158.064 470.362 157.816 470.25 157.56C470.154 157.304 469.994 157.08 469.77 156.888C469.562 156.68 469.282 156.512 468.93 156.384C468.594 156.24 468.186 156.168 467.706 156.168ZM460.698 166.968C460.698 170.84 462.338 172.776 465.618 172.776C466.322 172.776 466.946 172.712 467.49 172.584C468.034 172.44 468.506 172.272 468.906 172.08C469.322 171.888 469.69 171.672 470.01 171.432C470.346 171.192 470.65 170.976 470.922 170.784C471.21 170.592 471.49 170.432 471.762 170.304C472.034 170.16 472.33 170.088 472.65 170.088C472.842 170.088 473.026 170.136 473.202 170.232C473.394 170.328 473.562 170.456 473.706 170.616L475.218 172.44C474.37 173.288 473.538 174.024 472.722 174.648C471.906 175.272 471.074 175.784 470.226 176.184C469.378 176.584 468.482 176.88 467.538 177.072C466.594 177.264 465.57 177.36 464.466 177.36C463.026 177.36 461.722 177.12 460.554 176.64C459.386 176.144 458.386 175.456 457.554 174.576C456.722 173.68 456.074 172.608 455.61 171.36C455.162 170.096 454.938 168.688 454.938 167.136C454.938 165.84 455.074 164.568 455.346 163.32C455.634 162.072 456.042 160.888 456.57 159.768C457.098 158.648 457.746 157.616 458.514 156.672C459.282 155.728 460.146 154.912 461.106 154.224C462.082 153.536 463.146 153 464.298 152.616C465.466 152.232 466.714 152.04 468.042 152.04C469.322 152.04 470.442 152.224 471.402 152.592C472.378 152.96 473.186 153.44 473.826 154.032C474.482 154.608 474.97 155.256 475.29 155.976C475.61 156.696 475.77 157.4 475.77 158.088C475.77 159.192 475.546 160.2 475.098 161.112C474.666 162.024 473.882 162.84 472.746 163.56C471.626 164.28 470.09 164.904 468.138 165.432C466.186 165.944 463.706 166.352 460.698 166.656V166.968ZM478.257 177L481.233 152.352H484.257C484.881 152.352 485.361 152.504 485.697 152.808C486.049 153.112 486.225 153.6 486.225 154.272L486.105 156.984C487.209 155.304 488.409 154.056 489.705 153.24C491.001 152.408 492.353 151.992 493.761 151.992C495.265 151.992 496.457 152.496 497.337 153.504C498.217 154.512 498.729 155.968 498.873 157.872C500.025 155.856 501.297 154.376 502.689 153.432C504.097 152.472 505.625 151.992 507.273 151.992C508.313 151.992 509.225 152.2 510.009 152.616C510.793 153.032 511.433 153.64 511.929 154.44C512.425 155.224 512.761 156.2 512.937 157.368C513.113 158.52 513.105 159.84 512.913 161.328L511.065 177H505.209L507.057 161.328C507.265 159.728 507.217 158.584 506.913 157.896C506.625 157.192 506.033 156.84 505.137 156.84C504.529 156.84 503.937 157 503.361 157.32C502.785 157.64 502.233 158.104 501.705 158.712C501.193 159.32 500.713 160.064 500.265 160.944C499.833 161.824 499.449 162.816 499.113 163.92L497.577 177H491.721L493.593 161.328C493.785 159.728 493.745 158.584 493.473 157.896C493.201 157.192 492.609 156.84 491.697 156.84C491.057 156.84 490.441 157.008 489.849 157.344C489.273 157.68 488.721 158.168 488.193 158.808C487.681 159.432 487.201 160.2 486.753 161.112C486.321 162.008 485.937 163.016 485.601 164.136L484.065 177H478.257ZM529.159 156.168C528.359 156.168 527.615 156.336 526.927 156.672C526.239 156.992 525.615 157.448 525.055 158.04C524.511 158.632 524.031 159.344 523.615 160.176C523.215 160.992 522.895 161.888 522.655 162.864C524.639 162.592 526.231 162.296 527.431 161.976C528.647 161.64 529.583 161.288 530.239 160.92C530.895 160.536 531.327 160.128 531.535 159.696C531.759 159.248 531.871 158.784 531.871 158.304C531.871 158.064 531.815 157.816 531.703 157.56C531.607 157.304 531.447 157.08 531.223 156.888C531.015 156.68 530.735 156.512 530.383 156.384C530.047 156.24 529.639 156.168 529.159 156.168ZM522.151 166.968C522.151 170.84 523.791 172.776 527.071 172.776C527.775 172.776 528.399 172.712 528.943 172.584C529.487 172.44 529.959 172.272 530.359 172.08C530.775 171.888 531.143 171.672 531.463 171.432C531.799 171.192 532.103 170.976 532.375 170.784C532.663 170.592 532.943 170.432 533.215 170.304C533.487 170.16 533.783 170.088 534.103 170.088C534.295 170.088 534.479 170.136 534.655 170.232C534.847 170.328 535.015 170.456 535.159 170.616L536.671 172.44C535.823 173.288 534.991 174.024 534.175 174.648C533.359 175.272 532.527 175.784 531.679 176.184C530.831 176.584 529.935 176.88 528.991 177.072C528.047 177.264 527.023 177.36 525.919 177.36C524.479 177.36 523.175 177.12 522.007 176.64C520.839 176.144 519.839 175.456 519.007 174.576C518.175 173.68 517.527 172.608 517.063 171.36C516.615 170.096 516.391 168.688 516.391 167.136C516.391 165.84 516.527 164.568 516.799 163.32C517.087 162.072 517.495 160.888 518.023 159.768C518.551 158.648 519.199 157.616 519.967 156.672C520.735 155.728 521.599 154.912 522.559 154.224C523.535 153.536 524.599 153 525.751 152.616C526.919 152.232 528.167 152.04 529.495 152.04C530.775 152.04 531.895 152.224 532.855 152.592C533.831 152.96 534.639 153.44 535.279 154.032C535.935 154.608 536.423 155.256 536.743 155.976C537.063 156.696 537.223 157.4 537.223 158.088C537.223 159.192 536.999 160.2 536.551 161.112C536.119 162.024 535.335 162.84 534.199 163.56C533.079 164.28 531.543 164.904 529.591 165.432C527.639 165.944 525.159 166.352 522.151 166.656V166.968ZM556.126 157.008C555.95 157.264 555.782 157.448 555.622 157.56C555.462 157.656 555.254 157.704 554.998 157.704C554.71 157.704 554.422 157.624 554.134 157.464C553.846 157.304 553.51 157.128 553.126 156.936C552.758 156.728 552.326 156.544 551.83 156.384C551.35 156.224 550.774 156.144 550.102 156.144C548.838 156.144 547.87 156.432 547.198 157.008C546.526 157.568 546.19 158.272 546.19 159.12C546.19 159.776 546.422 160.304 546.886 160.704C547.366 161.104 547.966 161.456 548.686 161.76C549.406 162.064 550.174 162.376 550.99 162.696C551.822 163 552.598 163.392 553.318 163.872C554.038 164.336 554.63 164.944 555.094 165.696C555.574 166.432 555.814 167.384 555.814 168.552C555.814 169.736 555.574 170.864 555.094 171.936C554.63 173.008 553.958 173.952 553.078 174.768C552.198 175.568 551.134 176.208 549.886 176.688C548.654 177.152 547.262 177.384 545.71 177.384C544.942 177.384 544.19 177.304 543.454 177.144C542.718 177 542.03 176.792 541.39 176.52C540.766 176.248 540.19 175.928 539.662 175.56C539.134 175.192 538.686 174.792 538.318 174.36L539.782 172.104C539.958 171.832 540.166 171.624 540.406 171.48C540.646 171.336 540.942 171.264 541.294 171.264C541.63 171.264 541.934 171.368 542.206 171.576C542.478 171.784 542.79 172.016 543.142 172.272C543.51 172.512 543.95 172.736 544.462 172.944C544.99 173.152 545.662 173.256 546.478 173.256C547.134 173.256 547.71 173.168 548.206 172.992C548.718 172.816 549.15 172.576 549.502 172.272C549.854 171.968 550.118 171.616 550.294 171.216C550.47 170.816 550.558 170.392 550.558 169.944C550.558 169.4 550.422 168.952 550.15 168.6C549.878 168.232 549.51 167.92 549.046 167.664C548.598 167.392 548.086 167.16 547.51 166.968C546.934 166.76 546.342 166.544 545.734 166.32C545.142 166.096 544.558 165.84 543.982 165.552C543.422 165.264 542.91 164.904 542.446 164.472C541.998 164.024 541.638 163.488 541.366 162.864C541.094 162.224 540.958 161.448 540.958 160.536C540.958 159.448 541.166 158.392 541.582 157.368C541.998 156.328 542.606 155.416 543.406 154.632C544.206 153.832 545.19 153.192 546.358 152.712C547.542 152.232 548.894 151.992 550.414 151.992C551.982 151.992 553.374 152.264 554.59 152.808C555.806 153.336 556.822 154.016 557.638 154.848L556.126 157.008ZM72.28 214.264C72.056 214.248 71.84 214.24 71.632 214.24C71.44 214.224 71.248 214.216 71.056 214.216C69.728 214.216 68.496 214.52 67.36 215.128C66.224 215.736 65.24 216.56 64.408 217.6C63.592 218.624 62.944 219.824 62.464 221.2C62 222.56 61.768 224 61.768 225.52C61.768 227.248 62.04 228.512 62.584 229.312C63.128 230.112 63.872 230.512 64.816 230.512C65.472 230.512 66.112 230.288 66.736 229.84C67.376 229.376 67.976 228.752 68.536 227.968C69.112 227.168 69.632 226.232 70.096 225.16C70.576 224.088 70.992 222.936 71.344 221.704L72.28 214.264ZM70.648 229.864C69.56 231.544 68.328 232.88 66.952 233.872C65.592 234.864 64.104 235.36 62.488 235.36C61.56 235.36 60.688 235.176 59.872 234.808C59.072 234.44 58.368 233.896 57.76 233.176C57.168 232.44 56.696 231.528 56.344 230.44C56.008 229.336 55.84 228.048 55.84 226.576C55.84 225.104 56.024 223.672 56.392 222.28C56.76 220.888 57.28 219.584 57.952 218.368C58.64 217.136 59.464 216.008 60.424 214.984C61.384 213.96 62.456 213.08 63.64 212.344C64.84 211.608 66.128 211.04 67.504 210.64C68.896 210.224 70.36 210.016 71.896 210.016C73 210.016 74.104 210.096 75.208 210.256C76.328 210.416 77.416 210.704 78.472 211.12L75.52 235H72.376C71.624 235 71.112 234.816 70.84 234.448C70.584 234.064 70.456 233.592 70.456 233.032L70.648 229.864ZM88.7444 215.464C89.9924 213.624 91.3764 212.256 92.8964 211.36C94.4164 210.448 95.9844 209.992 97.6004 209.992C98.6244 209.992 99.5444 210.2 100.36 210.616C101.176 211.032 101.848 211.64 102.376 212.44C102.904 213.224 103.272 214.2 103.48 215.368C103.704 216.52 103.72 217.84 103.528 219.328L101.68 235H95.7524L97.6004 219.328C97.8084 217.728 97.7284 216.584 97.3604 215.896C96.9924 215.192 96.3204 214.84 95.3444 214.84C94.6884 214.84 94.0164 215.032 93.3284 215.416C92.6404 215.784 91.9764 216.32 91.3364 217.024C90.6964 217.712 90.1044 218.544 89.5604 219.52C89.0324 220.48 88.6004 221.56 88.2644 222.76L86.8964 235H80.9684L83.9204 210.352H86.9204C87.5444 210.352 88.0244 210.504 88.3604 210.808C88.7124 211.112 88.8884 211.6 88.8884 212.272L88.7444 215.464ZM123.809 216.112C123.265 215.52 122.641 215.104 121.937 214.864C121.233 214.624 120.537 214.504 119.849 214.504C118.793 214.504 117.833 214.832 116.969 215.488C116.105 216.144 115.361 217 114.737 218.056C114.129 219.112 113.657 220.304 113.321 221.632C112.985 222.944 112.817 224.264 112.817 225.592C112.817 227.32 113.097 228.608 113.657 229.456C114.233 230.288 115.025 230.704 116.033 230.704C116.673 230.704 117.329 230.488 118.001 230.056C118.673 229.608 119.321 229 119.945 228.232C120.569 227.448 121.145 226.528 121.673 225.472C122.217 224.416 122.681 223.28 123.065 222.064L123.809 216.112ZM131.705 199.336L127.289 235H124.145C123.393 235 122.881 234.816 122.609 234.448C122.353 234.064 122.225 233.592 122.225 233.032L122.441 229.6C121.849 230.48 121.217 231.28 120.545 232C119.873 232.704 119.169 233.304 118.433 233.8C117.697 234.296 116.929 234.68 116.129 234.952C115.345 235.224 114.537 235.36 113.705 235.36C112.681 235.36 111.753 235.176 110.921 234.808C110.089 234.424 109.377 233.856 108.785 233.104C108.193 232.352 107.737 231.4 107.417 230.248C107.097 229.096 106.937 227.736 106.937 226.168C106.937 224.776 107.081 223.416 107.369 222.088C107.657 220.744 108.065 219.472 108.593 218.272C109.121 217.072 109.745 215.968 110.465 214.96C111.201 213.952 112.017 213.08 112.913 212.344C113.809 211.608 114.761 211.032 115.769 210.616C116.793 210.2 117.849 209.992 118.937 209.992C120.041 209.992 121.041 210.192 121.937 210.592C122.833 210.992 123.617 211.544 124.289 212.248L125.897 199.336H131.705ZM175.592 200.296L171.32 235H165.032L166.928 219.76H152.312L150.44 235H144.176L148.448 200.296H154.712L152.864 215.344H167.456L169.328 200.296H175.592ZM189.878 214.168C189.078 214.168 188.334 214.336 187.646 214.672C186.958 214.992 186.334 215.448 185.774 216.04C185.23 216.632 184.75 217.344 184.334 218.176C183.934 218.992 183.614 219.888 183.374 220.864C185.358 220.592 186.95 220.296 188.15 219.976C189.366 219.64 190.302 219.288 190.958 218.92C191.614 218.536 192.046 218.128 192.254 217.696C192.478 217.248 192.59 216.784 192.59 216.304C192.59 216.064 192.534 215.816 192.422 215.56C192.326 215.304 192.166 215.08 191.942 214.888C191.734 214.68 191.454 214.512 191.102 214.384C190.766 214.24 190.358 214.168 189.878 214.168ZM182.87 224.968C182.87 228.84 184.51 230.776 187.79 230.776C188.494 230.776 189.118 230.712 189.662 230.584C190.206 230.44 190.678 230.272 191.078 230.08C191.494 229.888 191.862 229.672 192.182 229.432C192.518 229.192 192.822 228.976 193.094 228.784C193.382 228.592 193.662 228.432 193.934 228.304C194.206 228.16 194.502 228.088 194.822 228.088C195.014 228.088 195.198 228.136 195.374 228.232C195.566 228.328 195.734 228.456 195.878 228.616L197.39 230.44C196.542 231.288 195.71 232.024 194.894 232.648C194.078 233.272 193.246 233.784 192.398 234.184C191.55 234.584 190.654 234.88 189.71 235.072C188.766 235.264 187.742 235.36 186.638 235.36C185.198 235.36 183.894 235.12 182.726 234.64C181.558 234.144 180.558 233.456 179.726 232.576C178.894 231.68 178.246 230.608 177.782 229.36C177.334 228.096 177.11 226.688 177.11 225.136C177.11 223.84 177.246 222.568 177.518 221.32C177.806 220.072 178.214 218.888 178.742 217.768C179.27 216.648 179.918 215.616 180.686 214.672C181.454 213.728 182.318 212.912 183.278 212.224C184.254 211.536 185.318 211 186.47 210.616C187.638 210.232 188.886 210.04 190.214 210.04C191.494 210.04 192.614 210.224 193.574 210.592C194.55 210.96 195.358 211.44 195.998 212.032C196.654 212.608 197.142 213.256 197.462 213.976C197.782 214.696 197.942 215.4 197.942 216.088C197.942 217.192 197.718 218.2 197.27 219.112C196.838 220.024 196.054 220.84 194.918 221.56C193.798 222.28 192.262 222.904 190.31 223.432C188.358 223.944 185.878 224.352 182.87 224.656V224.968ZM200.501 235L204.821 199.336H210.677L206.333 235H200.501ZM218.346 229.24C218.89 229.832 219.514 230.248 220.218 230.488C220.922 230.728 221.61 230.848 222.282 230.848C223.338 230.848 224.298 230.52 225.162 229.864C226.026 229.208 226.77 228.352 227.394 227.296C228.018 226.24 228.498 225.056 228.834 223.744C229.17 222.416 229.338 221.088 229.338 219.76C229.338 218.032 229.05 216.752 228.474 215.92C227.914 215.072 227.13 214.648 226.122 214.648C225.466 214.648 224.802 214.872 224.13 215.32C223.458 215.768 222.81 216.384 222.186 217.168C221.562 217.936 220.978 218.848 220.434 219.904C219.906 220.96 219.45 222.096 219.066 223.312L218.346 229.24ZM219.666 215.8C220.85 214.024 222.186 212.616 223.674 211.576C225.178 210.52 226.77 209.992 228.45 209.992C229.474 209.992 230.402 210.184 231.234 210.568C232.066 210.936 232.778 211.496 233.37 212.248C233.962 213 234.418 213.952 234.738 215.104C235.058 216.256 235.218 217.608 235.218 219.16C235.218 220.552 235.074 221.92 234.786 223.264C234.498 224.608 234.09 225.88 233.562 227.08C233.034 228.28 232.402 229.384 231.666 230.392C230.946 231.4 230.138 232.272 229.242 233.008C228.346 233.744 227.386 234.32 226.362 234.736C225.354 235.152 224.306 235.36 223.218 235.36C222.098 235.36 221.09 235.16 220.194 234.76C219.314 234.36 218.538 233.816 217.866 233.128L216.642 243.04H210.882L214.866 210.352H217.866C218.49 210.352 218.97 210.504 219.306 210.808C219.658 211.112 219.834 211.6 219.834 212.272L219.666 215.8ZM263.721 230.104C264.697 230.104 265.545 230.032 266.265 229.888C266.985 229.728 267.617 229.528 268.161 229.288C268.705 229.048 269.161 228.8 269.529 228.544C269.913 228.272 270.249 228.016 270.537 227.776C270.825 227.536 271.081 227.344 271.305 227.2C271.529 227.04 271.753 226.96 271.977 226.96C272.185 226.96 272.353 227 272.481 227.08C272.609 227.16 272.713 227.24 272.793 227.32L274.977 230.032C273.473 231.76 271.705 233.088 269.673 234.016C267.641 234.928 265.305 235.384 262.665 235.384C260.521 235.384 258.617 235.008 256.953 234.256C255.289 233.488 253.881 232.432 252.729 231.088C251.593 229.744 250.721 228.152 250.113 226.312C249.521 224.472 249.225 222.464 249.225 220.288C249.225 218.288 249.441 216.4 249.873 214.624C250.305 212.832 250.921 211.184 251.721 209.68C252.521 208.16 253.473 206.8 254.577 205.6C255.697 204.4 256.937 203.376 258.297 202.528C259.673 201.68 261.145 201.032 262.713 200.584C264.297 200.136 265.945 199.912 267.657 199.912C268.921 199.912 270.073 200.032 271.113 200.272C272.153 200.496 273.089 200.816 273.921 201.232C274.769 201.648 275.529 202.152 276.201 202.744C276.889 203.32 277.505 203.968 278.049 204.688L275.889 207.28C275.729 207.472 275.537 207.64 275.313 207.784C275.105 207.928 274.841 208 274.521 208C274.169 208 273.833 207.856 273.513 207.568C273.193 207.28 272.785 206.968 272.289 206.632C271.809 206.28 271.177 205.96 270.393 205.672C269.625 205.384 268.609 205.24 267.345 205.24C265.681 205.24 264.129 205.584 262.689 206.272C261.265 206.944 260.025 207.912 258.969 209.176C257.913 210.44 257.081 211.968 256.473 213.76C255.881 215.536 255.585 217.536 255.585 219.76C255.585 221.376 255.785 222.824 256.185 224.104C256.601 225.384 257.169 226.472 257.889 227.368C258.625 228.248 259.489 228.928 260.481 229.408C261.473 229.872 262.553 230.104 263.721 230.104ZM285.526 216.28C286.15 215.064 286.814 214.024 287.518 213.16C288.238 212.28 288.982 211.6 289.75 211.12C290.518 210.624 291.31 210.336 292.126 210.256C292.942 210.16 293.758 210.288 294.574 210.64L293.494 216.304C291.542 215.488 289.83 215.688 288.358 216.904C286.902 218.12 285.734 220.512 284.854 224.08L283.534 235H277.726L280.702 210.352H283.726C284.35 210.352 284.83 210.504 285.166 210.808C285.518 211.112 285.694 211.6 285.694 212.272L285.526 216.28ZM304.26 230.8C305.252 230.8 306.148 230.52 306.948 229.96C307.748 229.384 308.428 228.624 308.988 227.68C309.548 226.72 309.98 225.608 310.284 224.344C310.588 223.08 310.74 221.752 310.74 220.36C310.74 218.36 310.404 216.896 309.732 215.968C309.06 215.024 308.036 214.552 306.66 214.552C305.668 214.552 304.764 214.832 303.948 215.392C303.148 215.952 302.468 216.712 301.908 217.672C301.348 218.616 300.916 219.72 300.612 220.984C300.308 222.248 300.156 223.584 300.156 224.992C300.156 226.992 300.492 228.464 301.164 229.408C301.836 230.336 302.868 230.8 304.26 230.8ZM303.708 235.36C302.348 235.36 301.092 235.136 299.94 234.688C298.788 234.224 297.788 233.552 296.94 232.672C296.092 231.792 295.428 230.712 294.948 229.432C294.468 228.152 294.228 226.688 294.228 225.04C294.228 222.912 294.572 220.928 295.26 219.088C295.948 217.248 296.876 215.656 298.044 214.312C299.228 212.968 300.604 211.912 302.172 211.144C303.74 210.376 305.412 209.992 307.188 209.992C308.548 209.992 309.804 210.224 310.956 210.688C312.124 211.136 313.124 211.8 313.956 212.68C314.804 213.56 315.468 214.64 315.948 215.92C316.428 217.2 316.668 218.664 316.668 220.312C316.668 222.424 316.324 224.4 315.636 226.24C314.948 228.064 314.012 229.656 312.828 231.016C311.66 232.36 310.292 233.424 308.724 234.208C307.156 234.976 305.484 235.36 303.708 235.36ZM354.09 210.376L343.914 235H339.33C338.834 235 338.53 234.648 338.418 233.944L336.066 219.712C335.97 219.104 335.898 218.488 335.85 217.864C335.738 218.184 335.626 218.504 335.514 218.824C335.402 219.128 335.282 219.44 335.154 219.76L329.322 233.944C329.034 234.648 328.602 235 328.026 235H323.634L319.458 210.376H323.97C324.37 210.376 324.698 210.48 324.954 210.688C325.21 210.896 325.37 211.16 325.434 211.48L326.874 224.632C326.922 225.352 326.962 226.04 326.994 226.696C327.026 227.352 327.058 228.016 327.09 228.688C327.33 228.016 327.578 227.352 327.834 226.696C328.106 226.04 328.378 225.352 328.65 224.632L334.002 211.432C334.13 211.112 334.338 210.848 334.626 210.64C334.914 210.432 335.242 210.328 335.61 210.328H338.13C338.546 210.328 338.882 210.432 339.138 210.64C339.394 210.848 339.538 211.112 339.57 211.432L341.61 224.632C341.706 225.352 341.794 226.048 341.874 226.72C341.97 227.376 342.05 228.04 342.114 228.712C342.29 228.056 342.482 227.392 342.69 226.72C342.914 226.048 343.146 225.352 343.386 224.632L348.162 211.48C348.274 211.16 348.474 210.896 348.762 210.688C349.05 210.48 349.378 210.376 349.746 210.376H354.09ZM362.119 215.464C363.367 213.624 364.751 212.256 366.271 211.36C367.791 210.448 369.359 209.992 370.975 209.992C371.999 209.992 372.919 210.2 373.735 210.616C374.551 211.032 375.223 211.64 375.751 212.44C376.279 213.224 376.647 214.2 376.855 215.368C377.079 216.52 377.095 217.84 376.903 219.328L375.055 235H369.127L370.975 219.328C371.183 217.728 371.103 216.584 370.735 215.896C370.367 215.192 369.695 214.84 368.719 214.84C368.063 214.84 367.391 215.032 366.703 215.416C366.015 215.784 365.351 216.32 364.711 217.024C364.071 217.712 363.479 218.544 362.935 219.52C362.407 220.48 361.975 221.56 361.639 222.76L360.271 235H354.343L357.295 210.352H360.295C360.919 210.352 361.399 210.504 361.735 210.808C362.087 211.112 362.263 211.6 362.263 212.272L362.119 215.464ZM392.689 229.984C392.689 229.872 392.689 229.744 392.689 229.6C392.689 229.44 392.697 229.216 392.713 228.928C392.745 228.624 392.785 228.232 392.833 227.752C392.897 227.256 392.977 226.624 393.073 225.856L394.441 214.816H392.113C391.825 214.816 391.585 214.712 391.393 214.504C391.217 214.296 391.161 213.984 391.225 213.568L391.489 211.216L395.233 210.568L397.201 203.848C397.313 203.528 397.481 203.28 397.705 203.104C397.929 202.928 398.209 202.84 398.545 202.84H401.713L400.753 210.592H406.705L406.201 214.816H400.225L398.905 225.544C398.825 226.2 398.761 226.72 398.713 227.104C398.665 227.488 398.625 227.792 398.593 228.016C398.577 228.224 398.569 228.376 398.569 228.472C398.569 228.552 398.569 228.608 398.569 228.64C398.569 229.248 398.713 229.728 399.001 230.08C399.305 230.432 399.729 230.608 400.273 230.608C400.609 230.608 400.897 230.568 401.137 230.488C401.377 230.392 401.585 230.296 401.761 230.2C401.937 230.104 402.097 230.016 402.241 229.936C402.385 229.84 402.521 229.792 402.649 229.792C402.825 229.792 402.961 229.84 403.057 229.936C403.153 230.016 403.241 230.144 403.321 230.32L404.593 233.2C403.713 233.92 402.737 234.464 401.665 234.832C400.609 235.2 399.529 235.384 398.425 235.384C396.681 235.384 395.297 234.912 394.273 233.968C393.265 233.024 392.737 231.696 392.689 229.984ZM416.579 214.552C417.779 213.016 419.075 211.872 420.467 211.12C421.875 210.368 423.307 209.992 424.763 209.992C425.803 209.992 426.731 210.2 427.547 210.616C428.379 211.032 429.059 211.64 429.587 212.44C430.115 213.224 430.483 214.2 430.691 215.368C430.915 216.52 430.931 217.84 430.739 219.328L428.867 235H422.963L424.811 219.328C425.019 217.728 424.931 216.576 424.547 215.872C424.179 215.168 423.499 214.816 422.507 214.816C421.899 214.816 421.267 214.992 420.611 215.344C419.955 215.68 419.323 216.168 418.715 216.808C418.107 217.432 417.539 218.192 417.011 219.088C416.483 219.984 416.035 220.984 415.667 222.088L414.107 235H408.179L412.499 199.336H418.427L416.579 214.552ZM446.988 214.168C446.188 214.168 445.444 214.336 444.756 214.672C444.068 214.992 443.444 215.448 442.884 216.04C442.34 216.632 441.86 217.344 441.444 218.176C441.044 218.992 440.724 219.888 440.484 220.864C442.468 220.592 444.06 220.296 445.26 219.976C446.476 219.64 447.412 219.288 448.068 218.92C448.724 218.536 449.156 218.128 449.364 217.696C449.588 217.248 449.7 216.784 449.7 216.304C449.7 216.064 449.644 215.816 449.532 215.56C449.436 215.304 449.276 215.08 449.052 214.888C448.844 214.68 448.564 214.512 448.212 214.384C447.876 214.24 447.468 214.168 446.988 214.168ZM439.98 224.968C439.98 228.84 441.62 230.776 444.9 230.776C445.604 230.776 446.228 230.712 446.772 230.584C447.316 230.44 447.788 230.272 448.188 230.08C448.604 229.888 448.972 229.672 449.292 229.432C449.628 229.192 449.932 228.976 450.204 228.784C450.492 228.592 450.772 228.432 451.044 228.304C451.316 228.16 451.612 228.088 451.932 228.088C452.124 228.088 452.308 228.136 452.484 228.232C452.676 228.328 452.844 228.456 452.988 228.616L454.5 230.44C453.652 231.288 452.82 232.024 452.004 232.648C451.188 233.272 450.356 233.784 449.508 234.184C448.66 234.584 447.764 234.88 446.82 235.072C445.876 235.264 444.852 235.36 443.748 235.36C442.308 235.36 441.004 235.12 439.836 234.64C438.668 234.144 437.668 233.456 436.836 232.576C436.004 231.68 435.356 230.608 434.892 229.36C434.444 228.096 434.22 226.688 434.22 225.136C434.22 223.84 434.356 222.568 434.628 221.32C434.916 220.072 435.324 218.888 435.852 217.768C436.38 216.648 437.028 215.616 437.796 214.672C438.564 213.728 439.428 212.912 440.388 212.224C441.364 211.536 442.428 211 443.58 210.616C444.748 210.232 445.996 210.04 447.324 210.04C448.604 210.04 449.724 210.224 450.684 210.592C451.66 210.96 452.468 211.44 453.108 212.032C453.764 212.608 454.252 213.256 454.572 213.976C454.892 214.696 455.052 215.4 455.052 216.088C455.052 217.192 454.828 218.2 454.38 219.112C453.948 220.024 453.164 220.84 452.028 221.56C450.908 222.28 449.372 222.904 447.42 223.432C445.468 223.944 442.988 224.352 439.98 224.656V224.968ZM71.44 288.104C72.416 288.104 73.264 288.032 73.984 287.888C74.704 287.728 75.336 287.528 75.88 287.288C76.424 287.048 76.88 286.8 77.248 286.544C77.632 286.272 77.968 286.016 78.256 285.776C78.544 285.536 78.8 285.344 79.024 285.2C79.248 285.04 79.472 284.96 79.696 284.96C79.904 284.96 80.072 285 80.2 285.08C80.328 285.16 80.432 285.24 80.512 285.32L82.696 288.032C81.192 289.76 79.424 291.088 77.392 292.016C75.36 292.928 73.024 293.384 70.384 293.384C68.24 293.384 66.336 293.008 64.672 292.256C63.008 291.488 61.6 290.432 60.448 289.088C59.312 287.744 58.44 286.152 57.832 284.312C57.24 282.472 56.944 280.464 56.944 278.288C56.944 276.288 57.16 274.4 57.592 272.624C58.024 270.832 58.64 269.184 59.44 267.68C60.24 266.16 61.192 264.8 62.296 263.6C63.416 262.4 64.656 261.376 66.016 260.528C67.392 259.68 68.864 259.032 70.432 258.584C72.016 258.136 73.664 257.912 75.376 257.912C76.64 257.912 77.792 258.032 78.832 258.272C79.872 258.496 80.808 258.816 81.64 259.232C82.488 259.648 83.248 260.152 83.92 260.744C84.608 261.32 85.224 261.968 85.768 262.688L83.608 265.28C83.448 265.472 83.256 265.64 83.032 265.784C82.824 265.928 82.56 266 82.24 266C81.888 266 81.552 265.856 81.232 265.568C80.912 265.28 80.504 264.968 80.008 264.632C79.528 264.28 78.896 263.96 78.112 263.672C77.344 263.384 76.328 263.24 75.064 263.24C73.4 263.24 71.848 263.584 70.408 264.272C68.984 264.944 67.744 265.912 66.688 267.176C65.632 268.44 64.8 269.968 64.192 271.76C63.6 273.536 63.304 275.536 63.304 277.76C63.304 279.376 63.504 280.824 63.904 282.104C64.32 283.384 64.888 284.472 65.608 285.368C66.344 286.248 67.208 286.928 68.2 287.408C69.192 287.872 70.272 288.104 71.44 288.104ZM94.1256 272.552C95.3256 271.016 96.6216 269.872 98.0136 269.12C99.4216 268.368 100.854 267.992 102.31 267.992C103.35 267.992 104.278 268.2 105.094 268.616C105.926 269.032 106.606 269.64 107.134 270.44C107.662 271.224 108.03 272.2 108.238 273.368C108.462 274.52 108.478 275.84 108.286 277.328L106.414 293H100.51L102.358 277.328C102.566 275.728 102.478 274.576 102.094 273.872C101.726 273.168 101.046 272.816 100.054 272.816C99.4456 272.816 98.8136 272.992 98.1576 273.344C97.5016 273.68 96.8696 274.168 96.2616 274.808C95.6536 275.432 95.0856 276.192 94.5576 277.088C94.0296 277.984 93.5816 278.984 93.2136 280.088L91.6536 293H85.7256L90.0456 257.336H95.9736L94.1256 272.552ZM128.014 272.264C127.79 272.248 127.574 272.24 127.366 272.24C127.174 272.224 126.982 272.216 126.79 272.216C125.462 272.216 124.23 272.52 123.094 273.128C121.958 273.736 120.974 274.56 120.142 275.6C119.326 276.624 118.678 277.824 118.198 279.2C117.734 280.56 117.502 282 117.502 283.52C117.502 285.248 117.774 286.512 118.318 287.312C118.862 288.112 119.606 288.512 120.55 288.512C121.206 288.512 121.846 288.288 122.47 287.84C123.11 287.376 123.71 286.752 124.27 285.968C124.846 285.168 125.366 284.232 125.83 283.16C126.31 282.088 126.726 280.936 127.078 279.704L128.014 272.264ZM126.382 287.864C125.294 289.544 124.062 290.88 122.686 291.872C121.326 292.864 119.838 293.36 118.222 293.36C117.294 293.36 116.422 293.176 115.606 292.808C114.806 292.44 114.102 291.896 113.494 291.176C112.902 290.44 112.43 289.528 112.078 288.44C111.742 287.336 111.574 286.048 111.574 284.576C111.574 283.104 111.758 281.672 112.126 280.28C112.494 278.888 113.014 277.584 113.686 276.368C114.374 275.136 115.198 274.008 116.158 272.984C117.118 271.96 118.19 271.08 119.374 270.344C120.574 269.608 121.862 269.04 123.238 268.64C124.63 268.224 126.094 268.016 127.63 268.016C128.734 268.016 129.838 268.096 130.942 268.256C132.062 268.416 133.15 268.704 134.206 269.12L131.254 293H128.11C127.358 293 126.846 292.816 126.574 292.448C126.318 292.064 126.19 291.592 126.19 291.032L126.382 287.864ZM136.679 293L139.655 268.352H142.679C143.303 268.352 143.783 268.504 144.119 268.808C144.471 269.112 144.647 269.6 144.647 270.272L144.527 272.984C145.631 271.304 146.831 270.056 148.127 269.24C149.423 268.408 150.775 267.992 152.183 267.992C153.687 267.992 154.879 268.496 155.759 269.504C156.639 270.512 157.151 271.968 157.295 273.872C158.447 271.856 159.719 270.376 161.111 269.432C162.519 268.472 164.047 267.992 165.695 267.992C166.735 267.992 167.647 268.2 168.431 268.616C169.215 269.032 169.855 269.64 170.351 270.44C170.847 271.224 171.183 272.2 171.359 273.368C171.535 274.52 171.527 275.84 171.335 277.328L169.487 293H163.631L165.479 277.328C165.687 275.728 165.639 274.584 165.335 273.896C165.047 273.192 164.455 272.84 163.559 272.84C162.951 272.84 162.359 273 161.783 273.32C161.207 273.64 160.655 274.104 160.127 274.712C159.615 275.32 159.135 276.064 158.687 276.944C158.255 277.824 157.871 278.816 157.535 279.92L155.999 293H150.143L152.015 277.328C152.207 275.728 152.167 274.584 151.895 273.896C151.623 273.192 151.031 272.84 150.119 272.84C149.479 272.84 148.863 273.008 148.271 273.344C147.695 273.68 147.143 274.168 146.615 274.808C146.103 275.432 145.623 276.2 145.175 277.112C144.743 278.008 144.359 279.016 144.023 280.136L142.487 293H136.679ZM181.221 287.24C181.765 287.832 182.389 288.248 183.093 288.488C183.797 288.728 184.485 288.848 185.157 288.848C186.213 288.848 187.173 288.52 188.037 287.864C188.901 287.208 189.645 286.352 190.269 285.296C190.893 284.24 191.373 283.056 191.709 281.744C192.045 280.416 192.213 279.088 192.213 277.76C192.213 276.032 191.925 274.752 191.349 273.92C190.789 273.072 190.005 272.648 188.997 272.648C188.341 272.648 187.677 272.872 187.005 273.32C186.333 273.768 185.685 274.384 185.061 275.168C184.437 275.936 183.853 276.848 183.309 277.904C182.781 278.96 182.325 280.096 181.941 281.312L181.221 287.24ZM182.541 273.8C183.725 272.024 185.061 270.616 186.549 269.576C188.053 268.52 189.645 267.992 191.325 267.992C192.349 267.992 193.277 268.184 194.109 268.568C194.941 268.936 195.653 269.496 196.245 270.248C196.837 271 197.293 271.952 197.613 273.104C197.933 274.256 198.093 275.608 198.093 277.16C198.093 278.552 197.949 279.92 197.661 281.264C197.373 282.608 196.965 283.88 196.437 285.08C195.909 286.28 195.277 287.384 194.541 288.392C193.821 289.4 193.013 290.272 192.117 291.008C191.221 291.744 190.261 292.32 189.237 292.736C188.229 293.152 187.181 293.36 186.093 293.36C184.973 293.36 183.965 293.16 183.069 292.76C182.189 292.36 181.413 291.816 180.741 291.128L179.517 301.04H173.757L177.741 268.352H180.741C181.365 268.352 181.845 268.504 182.181 268.808C182.533 269.112 182.709 269.6 182.709 270.272L182.541 273.8ZM209.64 268.376L206.688 293H200.856L203.808 268.376H209.64ZM211.152 261.2C211.152 261.712 211.04 262.192 210.816 262.64C210.608 263.088 210.328 263.48 209.976 263.816C209.624 264.152 209.224 264.424 208.776 264.632C208.328 264.824 207.864 264.92 207.384 264.92C206.92 264.92 206.472 264.824 206.04 264.632C205.608 264.424 205.224 264.152 204.888 263.816C204.552 263.48 204.28 263.088 204.072 262.64C203.88 262.192 203.784 261.712 203.784 261.2C203.784 260.688 203.888 260.2 204.096 259.736C204.304 259.272 204.576 258.872 204.912 258.536C205.248 258.184 205.632 257.912 206.064 257.72C206.512 257.512 206.968 257.408 207.432 257.408C207.912 257.408 208.376 257.512 208.824 257.72C209.272 257.912 209.664 258.176 210 258.512C210.352 258.848 210.632 259.248 210.84 259.712C211.048 260.176 211.152 260.672 211.152 261.2ZM222.51 288.8C223.502 288.8 224.398 288.52 225.198 287.96C225.998 287.384 226.678 286.624 227.238 285.68C227.798 284.72 228.23 283.608 228.534 282.344C228.838 281.08 228.99 279.752 228.99 278.36C228.99 276.36 228.654 274.896 227.982 273.968C227.31 273.024 226.286 272.552 224.91 272.552C223.918 272.552 223.014 272.832 222.198 273.392C221.398 273.952 220.718 274.712 220.158 275.672C219.598 276.616 219.166 277.72 218.862 278.984C218.558 280.248 218.406 281.584 218.406 282.992C218.406 284.992 218.742 286.464 219.414 287.408C220.086 288.336 221.118 288.8 222.51 288.8ZM221.958 293.36C220.598 293.36 219.342 293.136 218.19 292.688C217.038 292.224 216.038 291.552 215.19 290.672C214.342 289.792 213.678 288.712 213.198 287.432C212.718 286.152 212.478 284.688 212.478 283.04C212.478 280.912 212.822 278.928 213.51 277.088C214.198 275.248 215.126 273.656 216.294 272.312C217.478 270.968 218.854 269.912 220.422 269.144C221.99 268.376 223.662 267.992 225.438 267.992C226.798 267.992 228.054 268.224 229.206 268.688C230.374 269.136 231.374 269.8 232.206 270.68C233.054 271.56 233.718 272.64 234.198 273.92C234.678 275.2 234.918 276.664 234.918 278.312C234.918 280.424 234.574 282.4 233.886 284.24C233.198 286.064 232.262 287.656 231.078 289.016C229.91 290.36 228.542 291.424 226.974 292.208C225.406 292.976 223.734 293.36 221.958 293.36ZM245.307 273.464C246.555 271.624 247.939 270.256 249.459 269.36C250.979 268.448 252.547 267.992 254.163 267.992C255.187 267.992 256.107 268.2 256.923 268.616C257.739 269.032 258.411 269.64 258.939 270.44C259.467 271.224 259.835 272.2 260.043 273.368C260.267 274.52 260.283 275.84 260.091 277.328L258.243 293H252.315L254.163 277.328C254.371 275.728 254.291 274.584 253.923 273.896C253.555 273.192 252.883 272.84 251.907 272.84C251.251 272.84 250.579 273.032 249.891 273.416C249.203 273.784 248.539 274.32 247.899 275.024C247.259 275.712 246.667 276.544 246.123 277.52C245.595 278.48 245.163 279.56 244.827 280.76L243.459 293H237.531L240.483 268.352H243.483C244.107 268.352 244.587 268.504 244.923 268.808C245.275 269.112 245.451 269.6 245.451 270.272L245.307 273.464Z" fill="white"/>
<rect x="523.41" y="5.87305" width="509.886" height="362.142"/>
<defs>
<linearGradient id="paint0_linear_124_14917" x1="-1.77558e-06" y1="-1.70613" x2="92.8328" y2="538.181" gradientUnits="userSpaceOnUse">
<stop stop-color="#274060"/>
<stop offset="1" stop-color="#1CB8E8"/>
</linearGradient>
<linearGradient id="paint1_linear_124_14917" x1="0.00243578" y1="-1.70681" x2="92.8353" y2="538.181" gradientUnits="userSpaceOnUse">
<stop stop-color="#274060"/>
<stop offset="1" stop-color="#1B2845"/>
</linearGradient>
<linearGradient id="paint2_linear_124_14917" x1="1241.82" y1="-371.339" x2="122.558" y2="333.573" gradientUnits="userSpaceOnUse">
<stop stop-color="white" stop-opacity="0.5"/>
<stop offset="1" stop-color="white" stop-opacity="0.25"/>
</linearGradient>
</defs>
</svg>
