<svg width="47" height="47" viewBox="0 0 47 47" fill="none" xmlns="http://www.w3.org/2000/svg">
<g clip-path="url(#clip0_124_12834)">
<path d="M23.4912 46.9824C36.465 46.9824 46.9824 36.465 46.9824 23.4912C46.9824 10.5174 36.465 0 23.4912 0C10.5174 0 0 10.5174 0 23.4912C0 36.465 10.5174 46.9824 23.4912 46.9824Z" fill="#F7D102"/>
<path fill-rule="evenodd" clip-rule="evenodd" d="M18.8739 38.5411H16.6534C16.1423 38.5411 16.1423 37.7304 16.6534 37.7304H18.8739C19.4025 37.7304 19.4025 38.5411 18.8739 38.5411ZM14.9969 27.0863C14.5034 27.0863 14.5739 26.3285 13.2522 25.1301C11.8424 23.8437 11.1022 23.9142 11.1022 21.1298C11.1022 15.8958 16.8649 12.7413 21.2529 15.4376C21.6935 15.7196 21.2706 16.4068 20.83 16.1249C16.9706 13.7634 11.9129 16.5126 11.9129 21.1298C11.9129 23.5265 12.4415 23.315 13.7809 24.531C14.4329 25.1125 14.944 25.7645 15.3493 26.5047C15.4903 26.769 15.2964 27.0863 14.9969 27.0863ZM24.0373 23.4736C23.8082 23.4736 23.632 23.2974 23.632 23.0683L23.6496 20.1253C23.121 20.1253 22.4337 20.231 22.4337 19.7199V15.0499C17.4464 11.2081 10.0977 14.7503 10.0977 21.1298C10.0977 27.5621 14.8735 22.892 14.9792 34.0649H20.548C20.6538 23.8613 24.6894 26.7867 25.3414 22.5572L24.2488 23.4207L24.0373 23.4736ZM22.4337 14.063V9.85116C22.4337 9.62207 22.6275 9.44584 22.839 9.44584H37.2897C37.5188 9.44584 37.695 9.62207 37.695 9.85116V19.7199C37.695 19.9314 37.5188 20.1253 37.2897 20.1253H28.443L26.205 21.8699C25.8525 27.8793 21.3587 23.5265 21.3411 34.4526C21.3411 34.6817 21.1648 34.8579 20.9534 34.8579H14.5915C14.3624 34.8579 14.1862 34.6817 14.1862 34.4526C14.1862 23.1211 9.30469 28.2141 9.30469 21.1298C9.30469 14.3626 16.8472 10.3622 22.4337 14.063ZM25.5705 21.3588L28.0553 19.4027C28.1258 19.3499 28.2139 19.3146 28.3021 19.3146H36.8844V10.2389H23.2443V19.3146C23.7025 19.3146 24.4427 19.1736 24.4427 19.7199V22.24L25.5705 21.3588ZM33.8709 12.847H26.2754C25.7468 12.847 25.7468 12.0364 26.2754 12.0364H33.8709C34.3819 12.0364 34.3819 12.847 33.8709 12.847ZM35.1926 15.0146H24.9537C24.425 15.0146 24.425 14.2216 24.9537 14.2216H35.1926C35.7213 14.2216 35.7213 15.0146 35.1926 15.0146ZM35.1926 17.1999H24.9537C24.425 17.1999 24.425 16.3892 24.9537 16.3892H35.1926C35.7213 16.3892 35.7213 17.1999 35.1926 17.1999ZM17.7636 11.261C17.5345 11.261 17.3583 11.0671 17.3583 10.8557V8.86429C17.3583 8.3356 18.169 8.3356 18.169 8.86429V10.8557C18.169 11.0671 17.9751 11.261 17.7636 11.261ZM14.4153 11.6839C14.2391 11.6839 14.0805 11.5782 14.0276 11.402L13.5165 9.48108C13.3756 8.97002 14.151 8.75855 14.2919 9.26961L14.803 11.1905C14.8735 11.4372 14.6796 11.6839 14.4153 11.6839ZM11.3137 12.988C11.1727 12.988 11.0317 12.9175 10.9612 12.7765L9.95673 11.0495C9.71001 10.6089 10.3973 10.2036 10.6616 10.6618L11.6485 12.3888C11.8071 12.6532 11.6133 12.988 11.3137 12.988ZM20.0898 36.7612H15.455C14.9264 36.7612 14.9264 35.9505 15.455 35.9505H20.0898C20.6009 35.9505 20.6009 36.7612 20.0898 36.7612Z" fill="black"/>
</g>
<defs>
<clipPath id="clip0_124_12834">
<rect width="47" height="47" fill="white"/>
</clipPath>
</defs>
</svg>
