<svg width="122" height="69" viewBox="0 0 122 69" fill="none" xmlns="http://www.w3.org/2000/svg">
<path fill-rule="evenodd" clip-rule="evenodd" d="M65.4922 0.0820312C65.8782 0.25819 66.2416 0.764663 66.2416 1.183V28.6195C66.2416 29.0379 65.8782 29.3682 65.4922 29.5443H73.395C72.8727 29.3682 72.4867 28.9058 72.4867 28.4874V14.9453L77.778 16.9711V11.6644L72.4867 9.63858V4.59609C72.4867 4.37587 72.6911 4.22177 72.9636 4.22177H76.5062C76.7787 4.22177 76.915 4.33186 76.915 4.59609V8.11922L81.4569 9.90282V0.0820844L65.4922 0.0820312ZM101.464 5.01443C101.464 2.28402 99.1701 0.0820312 95.5139 0.0820312H91.1764C87.4975 0.0820312 85.2266 2.32803 85.2266 5.01443V28.4873C85.2266 28.9497 84.9314 29.3681 84.4999 29.5443H91.7442V17.5436L94.9235 18.6005V29.5443H102.19C101.759 29.3681 101.464 28.9497 101.464 28.4873L101.464 5.01443ZM93.3111 4.22171H93.3565C94.0378 4.22171 94.5601 4.7722 94.5601 5.34469V13.8443L92.0848 13.0516V5.34469C92.0848 4.77226 92.6525 4.22171 93.3111 4.22171ZM121.13 21.6833C121.13 20.3181 120.653 18.5125 118.995 17.962C120.244 17.1252 121.13 15.6499 121.13 14.0204V4.92635C121.13 2.28402 118.905 0.0820312 115.998 0.0820312H105.234C105.665 0.25819 106.028 0.764661 106.028 1.05091V28.4433C106.028 28.9498 105.71 29.3682 105.279 29.5443H113.046C112.523 29.3242 112.183 28.8617 112.183 28.3993V18.4464H113.84C114.703 18.4464 114.953 18.6006 114.953 19.2832V28.3993C114.953 28.9498 114.612 29.3682 114.09 29.5443H121.857C121.425 29.3682 121.13 28.9498 121.13 28.4874V21.6833ZM112.183 13.0956V5.30068C112.183 4.68412 112.796 4.22171 113.568 4.22171H113.704C114.476 4.22171 114.953 4.64011 114.953 5.30068V13.0956C114.953 13.6901 114.34 14.1966 113.568 14.1966C112.796 14.1966 112.183 13.6902 112.183 13.0956Z" fill="#3E8ED4"/>
<path fill-rule="evenodd" clip-rule="evenodd" d="M24.3444 5.38895C25.7524 5.38895 26.9559 6.48992 26.9559 7.85512V11.6645L35.4265 15.1216V7.37077C35.4265 3.36317 32.1337 0.0822754 27.9325 0.0822754H20.9834C16.8503 0.0822754 13.4666 3.36323 13.4666 7.37077V18.3145C13.4666 18.821 13.5347 19.3274 13.6256 19.7898C13.7164 20.2082 13.8527 20.6045 14.0117 20.9789C15.1017 23.6653 17.8268 25.603 20.9834 25.603H21.4603H22.7547H24.4807C25.2074 25.6471 25.8432 25.9553 26.2974 26.4177C26.8425 23.9956 28.4775 21.9698 30.6804 20.8028C29.8174 20.4725 28.8863 20.2963 27.9325 20.2963H24.2763C22.8002 20.2963 21.6874 19.2173 21.6874 17.7861V7.85518C21.6874 6.48997 22.8683 5.389 24.2763 5.389L24.3444 5.38895ZM33.4962 21.089C32.9739 21.177 32.497 21.3091 32.0201 21.5073C29.2496 22.5643 27.2966 25.2066 27.2966 28.2674V47.7107V48.8998V61.3188C27.2966 65.3264 30.6576 68.6073 34.8134 68.6073H41.7624C45.8955 68.6073 49.2565 65.3264 49.2565 61.3188V48.8998H48.28C45.2369 48.8998 42.5345 47.3804 40.9903 45.0683V60.7023C40.9903 62.1335 39.7867 63.3006 38.3106 63.3006H38.2425C36.8345 63.3006 35.5855 62.1335 35.5855 60.7023V44.4958V28.7958C35.5855 28.0251 35.9943 27.2985 36.6074 26.8361C37.0843 26.4838 37.652 26.2856 38.2425 26.2856H38.3106C38.7648 26.2856 39.1736 26.3957 39.5597 26.5718C40.1047 26.8581 40.5361 27.2985 40.7632 27.827C40.8995 28.1353 40.9903 28.4655 40.9903 28.7958V42.1618C41.7851 45.3326 44.7374 47.7107 48.28 47.7107H49.2565V40.8186C49.1202 40.5103 49.0521 40.18 49.0521 39.8277V26.5498C48.2573 23.357 45.2824 20.9789 41.7624 20.9789H40.7632H39.5597H34.8134C34.3592 20.9789 33.9277 21.0229 33.4962 21.089ZM13.512 41.1929C13.8981 44.8482 17.1001 47.7107 20.9834 47.7107H21.9144H23.1407H26.093V41.7654C25.6161 42.1618 25.0029 42.404 24.3444 42.404H24.2762C22.8001 42.404 21.6874 41.325 21.6874 39.8938L21.9599 28.2674C21.9599 27.7609 21.9145 27.2545 21.8237 26.7921H20.9834C17.1682 26.7921 13.8754 24.3258 12.7172 20.9789H7.5168C3.36101 20.9789 0 24.2378 0 28.2674V39.2111C0 43.1526 3.36101 46.4996 7.5168 46.4996H11.014C12.422 46.5657 13.4666 47.6446 13.4666 49.0099V60.7683C13.4666 62.1996 12.2857 63.3006 10.8777 63.3006H10.8096C9.33351 63.3006 8.22079 62.1996 8.22079 60.7683V56.8268L0 53.4358V61.3188C0 65.3264 3.36101 68.6073 7.5168 68.6073H14.4658C18.599 68.6073 21.9599 65.3264 21.9599 61.3188V48.8998H20.9834C16.4416 48.8998 12.6945 45.5087 12.2857 41.1929H10.8096C9.33351 41.1929 8.22079 40.0919 8.22079 38.6606V28.7298C8.22079 27.3646 9.40169 26.2856 10.8096 26.2856H10.8777C12.2857 26.2856 13.4666 27.3646 13.4666 28.7298V31.3721V32.5392V33.8164V40.0039V40.4443C13.4666 40.6865 13.4894 40.9286 13.512 41.1929ZM41.7624 19.7898C44.8055 19.7898 47.4852 21.3312 49.0521 23.6213V7.92125C49.0521 6.55604 50.3011 5.389 51.7091 5.389H51.7773C53.2534 5.389 54.4569 6.55604 54.4569 7.92125V39.8277C54.4569 41.259 53.2534 42.404 51.7773 42.404H51.7091C51.2777 42.404 50.8462 42.2939 50.4828 42.0957V47.7108H55.2291C59.3622 47.7108 62.7232 44.4519 62.7232 40.4443V7.37077C62.7232 3.36317 59.3622 0.0822754 55.2291 0.0822754H48.2801C44.1469 0.0822754 40.7633 3.36323 40.7633 7.37077V19.7898H41.7624Z" fill="#3E8ED4"/>
<path fill-rule="evenodd" clip-rule="evenodd" d="M66.0391 31.5259L67.0837 33.4636H121.314L120.269 31.5259H66.0391ZM66.0391 38.7923L67.0837 40.73H121.314L120.269 38.7923H66.0391ZM66.0391 35.1591L67.0837 37.0968H121.314L120.269 35.1591H66.0391Z" fill="#3E8ED4"/>
</svg>
