<svg width="753" height="257" viewBox="0 0 753 257" fill="none" xmlns="http://www.w3.org/2000/svg">
<path d="M0 44.2935C0 29.8762 11.3055 17.9916 25.7048 17.272L371.295 0L720.343 17.2832C734.748 17.9965 746.061 29.8833 746.061 44.3054V202.143C746.061 216.385 735.019 228.189 720.809 229.138L373.03 252.37L25.252 229.138C11.0414 228.189 0 216.385 0 202.143V44.2935Z" fill="url(#paint0_linear_124_2021)"/>
<mask id="mask0_124_2021" style="mask-type:alpha" maskUnits="userSpaceOnUse" x="6" y="3" width="748" height="254">
<path d="M6.94141 48.0049C6.94141 33.5876 18.2469 21.703 32.6462 20.9834L378.237 3.71143L727.285 20.9947C741.689 21.7079 753.002 33.5947 753.002 48.0169V205.855C753.002 220.097 741.961 231.9 727.75 232.85L379.972 256.082L32.1934 232.85C17.9829 231.9 6.94141 220.097 6.94141 205.855V48.0049Z" fill="url(#paint1_linear_124_2021)"/>
</mask>
<g mask="url(#mask0_124_2021)">
<ellipse opacity="0.15" cx="379.849" cy="-143.944" rx="325.896" ry="303.534" stroke="url(#paint2_linear_124_2021)" stroke-width="177.995"/>
</g>
<path d="M46.838 54.698L45.848 62.618H54.704L54.2 66.344H45.398L44.084 77H39.386L42.59 50.972H57.764L57.296 54.698H46.838ZM74.0599 58.532L71.8279 77H69.5779C68.5219 77 67.9939 76.49 67.9939 75.47L68.1019 73.346C67.1659 74.666 66.1399 75.65 65.0239 76.298C63.9199 76.946 62.7739 77.27 61.5859 77.27C60.8179 77.27 60.1279 77.114 59.5159 76.802C58.9039 76.49 58.3999 76.04 58.0039 75.452C57.6079 74.852 57.3259 74.114 57.1579 73.238C57.0019 72.362 56.9959 71.366 57.1399 70.25L58.5259 58.532H62.9719L61.5859 70.25C61.4299 71.462 61.4899 72.332 61.7659 72.86C62.0419 73.376 62.5459 73.634 63.2779 73.634C63.7579 73.634 64.2439 73.502 64.7359 73.238C65.2399 72.974 65.7259 72.596 66.1939 72.104C66.6619 71.612 67.0939 71.024 67.4899 70.34C67.8859 69.644 68.2159 68.87 68.4799 68.018L69.6139 58.532H74.0599ZM85.5805 61.376C84.9805 61.376 84.4225 61.502 83.9065 61.754C83.3905 61.994 82.9225 62.336 82.5025 62.78C82.0945 63.224 81.7345 63.758 81.4225 64.382C81.1225 64.994 80.8825 65.666 80.7025 66.398C82.1905 66.194 83.3845 65.972 84.2845 65.732C85.1965 65.48 85.8985 65.216 86.3905 64.94C86.8825 64.652 87.2065 64.346 87.3625 64.022C87.5305 63.686 87.6145 63.338 87.6145 62.978C87.6145 62.798 87.5725 62.612 87.4885 62.42C87.4165 62.228 87.2965 62.06 87.1285 61.916C86.9725 61.76 86.7625 61.634 86.4985 61.538C86.2465 61.43 85.9405 61.376 85.5805 61.376ZM80.3245 69.476C80.3245 72.38 81.5545 73.832 84.0145 73.832C84.5425 73.832 85.0105 73.784 85.4185 73.688C85.8265 73.58 86.1805 73.454 86.4805 73.31C86.7925 73.166 87.0685 73.004 87.3085 72.824C87.5605 72.644 87.7885 72.482 87.9925 72.338C88.2085 72.194 88.4185 72.074 88.6225 71.978C88.8265 71.87 89.0485 71.816 89.2885 71.816C89.4325 71.816 89.5705 71.852 89.7025 71.924C89.8465 71.996 89.9725 72.092 90.0805 72.212L91.2145 73.58C90.5785 74.216 89.9545 74.768 89.3425 75.236C88.7305 75.704 88.1065 76.088 87.4705 76.388C86.8345 76.688 86.1625 76.91 85.4545 77.054C84.7465 77.198 83.9785 77.27 83.1505 77.27C82.0705 77.27 81.0925 77.09 80.2165 76.73C79.3405 76.358 78.5905 75.842 77.9665 75.182C77.3425 74.51 76.8565 73.706 76.5085 72.77C76.1725 71.822 76.0045 70.766 76.0045 69.602C76.0045 68.63 76.1065 67.676 76.3105 66.74C76.5265 65.804 76.8325 64.916 77.2285 64.076C77.6245 63.236 78.1105 62.462 78.6865 61.754C79.2625 61.046 79.9105 60.434 80.6305 59.918C81.3625 59.402 82.1605 59 83.0245 58.712C83.9005 58.424 84.8365 58.28 85.8325 58.28C86.7925 58.28 87.6325 58.418 88.3525 58.694C89.0845 58.97 89.6905 59.33 90.1705 59.774C90.6625 60.206 91.0285 60.692 91.2685 61.232C91.5085 61.772 91.6285 62.3 91.6285 62.816C91.6285 63.644 91.4605 64.4 91.1245 65.084C90.8005 65.768 90.2125 66.38 89.3605 66.92C88.5205 67.46 87.3685 67.928 85.9045 68.324C84.4405 68.708 82.5805 69.014 80.3245 69.242V69.476ZM93.5474 77L96.7874 50.252H101.179L97.9214 77H93.5474ZM111.372 73.238C111.372 73.154 111.372 73.058 111.372 72.95C111.372 72.83 111.378 72.662 111.39 72.446C111.414 72.218 111.444 71.924 111.48 71.564C111.528 71.192 111.588 70.718 111.66 70.142L112.686 61.862H110.94C110.724 61.862 110.544 61.784 110.4 61.628C110.268 61.472 110.226 61.238 110.274 60.926L110.472 59.162L113.28 58.676L114.756 53.636C114.84 53.396 114.966 53.21 115.134 53.078C115.302 52.946 115.512 52.88 115.764 52.88H118.14L117.42 58.694H121.884L121.506 61.862H117.024L116.034 69.908C115.974 70.4 115.926 70.79 115.89 71.078C115.854 71.366 115.824 71.594 115.8 71.762C115.788 71.918 115.782 72.032 115.782 72.104C115.782 72.164 115.782 72.206 115.782 72.23C115.782 72.686 115.89 73.046 116.106 73.31C116.334 73.574 116.652 73.706 117.06 73.706C117.312 73.706 117.528 73.676 117.708 73.616C117.888 73.544 118.044 73.472 118.176 73.4C118.308 73.328 118.428 73.262 118.536 73.202C118.644 73.13 118.746 73.094 118.842 73.094C118.974 73.094 119.076 73.13 119.148 73.202C119.22 73.262 119.286 73.358 119.346 73.49L120.3 75.65C119.64 76.19 118.908 76.598 118.104 76.874C117.312 77.15 116.502 77.288 115.674 77.288C114.366 77.288 113.328 76.934 112.56 76.226C111.804 75.518 111.408 74.522 111.372 73.238ZM129.29 61.664C130.19 60.512 131.162 59.654 132.206 59.09C133.262 58.526 134.336 58.244 135.428 58.244C136.208 58.244 136.904 58.4 137.516 58.712C138.14 59.024 138.65 59.48 139.046 60.08C139.442 60.668 139.718 61.4 139.874 62.276C140.042 63.14 140.054 64.13 139.91 65.246L138.506 77H134.078L135.464 65.246C135.62 64.046 135.554 63.182 135.266 62.654C134.99 62.126 134.48 61.862 133.736 61.862C133.28 61.862 132.806 61.994 132.314 62.258C131.822 62.51 131.348 62.876 130.892 63.356C130.436 63.824 130.01 64.394 129.614 65.066C129.218 65.738 128.882 66.488 128.606 67.316L127.436 77H122.99L126.23 50.252H130.676L129.29 61.664ZM152.096 61.376C151.496 61.376 150.938 61.502 150.422 61.754C149.906 61.994 149.438 62.336 149.018 62.78C148.61 63.224 148.25 63.758 147.938 64.382C147.638 64.994 147.398 65.666 147.218 66.398C148.706 66.194 149.9 65.972 150.8 65.732C151.712 65.48 152.414 65.216 152.906 64.94C153.398 64.652 153.722 64.346 153.878 64.022C154.046 63.686 154.13 63.338 154.13 62.978C154.13 62.798 154.088 62.612 154.004 62.42C153.932 62.228 153.812 62.06 153.644 61.916C153.488 61.76 153.278 61.634 153.014 61.538C152.762 61.43 152.456 61.376 152.096 61.376ZM146.84 69.476C146.84 72.38 148.07 73.832 150.53 73.832C151.058 73.832 151.526 73.784 151.934 73.688C152.342 73.58 152.696 73.454 152.996 73.31C153.308 73.166 153.584 73.004 153.824 72.824C154.076 72.644 154.304 72.482 154.508 72.338C154.724 72.194 154.934 72.074 155.138 71.978C155.342 71.87 155.564 71.816 155.804 71.816C155.948 71.816 156.086 71.852 156.218 71.924C156.362 71.996 156.488 72.092 156.596 72.212L157.73 73.58C157.094 74.216 156.47 74.768 155.858 75.236C155.246 75.704 154.622 76.088 153.986 76.388C153.35 76.688 152.678 76.91 151.97 77.054C151.262 77.198 150.494 77.27 149.666 77.27C148.586 77.27 147.608 77.09 146.732 76.73C145.856 76.358 145.106 75.842 144.482 75.182C143.858 74.51 143.372 73.706 143.024 72.77C142.688 71.822 142.52 70.766 142.52 69.602C142.52 68.63 142.622 67.676 142.826 66.74C143.042 65.804 143.348 64.916 143.744 64.076C144.14 63.236 144.626 62.462 145.202 61.754C145.778 61.046 146.426 60.434 147.146 59.918C147.878 59.402 148.676 59 149.54 58.712C150.416 58.424 151.352 58.28 152.348 58.28C153.308 58.28 154.148 58.418 154.868 58.694C155.6 58.97 156.206 59.33 156.686 59.774C157.178 60.206 157.544 60.692 157.784 61.232C158.024 61.772 158.144 62.3 158.144 62.816C158.144 63.644 157.976 64.4 157.64 65.084C157.316 65.768 156.728 66.38 155.876 66.92C155.036 67.46 153.884 67.928 152.42 68.324C150.956 68.708 149.096 69.014 146.84 69.242V69.476ZM176.002 54.698L175.012 62.618H183.868L183.364 66.344H174.562L173.248 77H168.55L171.754 50.972H186.928L186.46 54.698H176.002ZM203.224 58.532L200.992 77H198.742C197.686 77 197.158 76.49 197.158 75.47L197.266 73.346C196.33 74.666 195.304 75.65 194.188 76.298C193.084 76.946 191.938 77.27 190.75 77.27C189.982 77.27 189.292 77.114 188.68 76.802C188.068 76.49 187.564 76.04 187.168 75.452C186.772 74.852 186.49 74.114 186.322 73.238C186.166 72.362 186.16 71.366 186.304 70.25L187.69 58.532H192.136L190.75 70.25C190.594 71.462 190.654 72.332 190.93 72.86C191.206 73.376 191.71 73.634 192.442 73.634C192.922 73.634 193.408 73.502 193.9 73.238C194.404 72.974 194.89 72.596 195.358 72.104C195.826 71.612 196.258 71.024 196.654 70.34C197.05 69.644 197.38 68.87 197.644 68.018L198.778 58.532H203.224ZM210.965 62.348C211.901 60.968 212.939 59.942 214.079 59.27C215.219 58.586 216.395 58.244 217.607 58.244C218.375 58.244 219.065 58.4 219.677 58.712C220.289 59.024 220.793 59.48 221.189 60.08C221.585 60.668 221.861 61.4 222.017 62.276C222.185 63.14 222.197 64.13 222.053 65.246L220.667 77H216.221L217.607 65.246C217.763 64.046 217.703 63.188 217.427 62.672C217.151 62.144 216.647 61.88 215.915 61.88C215.423 61.88 214.919 62.024 214.403 62.312C213.887 62.588 213.389 62.99 212.909 63.518C212.429 64.034 211.985 64.658 211.577 65.39C211.181 66.11 210.857 66.92 210.605 67.82L209.579 77H205.133L207.347 58.514H209.597C210.065 58.514 210.425 58.628 210.677 58.856C210.941 59.084 211.073 59.45 211.073 59.954L210.965 62.348ZM232.385 50.972L231.125 61.286C230.993 62.378 230.807 63.452 230.567 64.508C230.327 65.552 230.051 66.668 229.739 67.856H226.841C226.817 66.668 226.817 65.552 226.841 64.508C226.877 63.452 226.967 62.378 227.111 61.286L228.371 50.972H232.385ZM225.005 74.552C225.005 74.18 225.071 73.826 225.203 73.49C225.347 73.154 225.539 72.866 225.779 72.626C226.019 72.386 226.307 72.194 226.643 72.05C226.979 71.906 227.339 71.834 227.723 71.834C228.095 71.834 228.449 71.906 228.785 72.05C229.121 72.194 229.409 72.386 229.649 72.626C229.901 72.866 230.099 73.154 230.243 73.49C230.387 73.826 230.459 74.18 230.459 74.552C230.459 74.936 230.387 75.296 230.243 75.632C230.099 75.956 229.901 76.238 229.649 76.478C229.409 76.718 229.121 76.904 228.785 77.036C228.449 77.18 228.095 77.252 227.723 77.252C227.339 77.252 226.979 77.18 226.643 77.036C226.307 76.904 226.019 76.718 225.779 76.478C225.539 76.238 225.347 75.956 225.203 75.632C225.071 75.296 225.005 74.936 225.005 74.552ZM252.145 64.148C253.069 64.148 253.867 64.01 254.539 63.734C255.211 63.458 255.763 63.074 256.195 62.582C256.639 62.078 256.963 61.484 257.167 60.8C257.383 60.116 257.491 59.36 257.491 58.532C257.491 57.944 257.407 57.404 257.239 56.912C257.071 56.42 256.813 56.006 256.465 55.67C256.117 55.322 255.679 55.052 255.151 54.86C254.635 54.668 254.017 54.572 253.297 54.572H250.057L248.887 64.148H252.145ZM253.747 50.972C255.223 50.972 256.489 51.152 257.545 51.512C258.613 51.86 259.489 52.352 260.173 52.988C260.857 53.624 261.361 54.38 261.685 55.256C262.021 56.12 262.189 57.074 262.189 58.118C262.189 59.51 261.967 60.8 261.523 61.988C261.091 63.164 260.437 64.184 259.561 65.048C258.685 65.9 257.587 66.572 256.267 67.064C254.959 67.544 253.429 67.784 251.677 67.784H248.437L247.303 77H242.659L245.827 50.972H253.747ZM269.734 73.85C270.478 73.85 271.15 73.64 271.75 73.22C272.35 72.788 272.86 72.218 273.28 71.51C273.7 70.79 274.024 69.956 274.252 69.008C274.48 68.06 274.594 67.064 274.594 66.02C274.594 64.52 274.342 63.422 273.838 62.726C273.334 62.018 272.566 61.664 271.534 61.664C270.79 61.664 270.112 61.874 269.5 62.294C268.9 62.714 268.39 63.284 267.97 64.004C267.55 64.712 267.226 65.54 266.998 66.488C266.77 67.436 266.656 68.438 266.656 69.494C266.656 70.994 266.908 72.098 267.412 72.806C267.916 73.502 268.69 73.85 269.734 73.85ZM269.32 77.27C268.3 77.27 267.358 77.102 266.494 76.766C265.63 76.418 264.88 75.914 264.244 75.254C263.608 74.594 263.11 73.784 262.75 72.824C262.39 71.864 262.21 70.766 262.21 69.53C262.21 67.934 262.468 66.446 262.984 65.066C263.5 63.686 264.196 62.492 265.072 61.484C265.96 60.476 266.992 59.684 268.168 59.108C269.344 58.532 270.598 58.244 271.93 58.244C272.95 58.244 273.892 58.418 274.756 58.766C275.632 59.102 276.382 59.6 277.006 60.26C277.642 60.92 278.14 61.73 278.5 62.69C278.86 63.65 279.04 64.748 279.04 65.984C279.04 67.568 278.782 69.05 278.266 70.43C277.75 71.798 277.048 72.992 276.16 74.012C275.284 75.02 274.258 75.818 273.082 76.406C271.906 76.982 270.652 77.27 269.32 77.27ZM307.106 58.532L299.474 77H296.036C295.664 77 295.436 76.736 295.352 76.208L293.588 65.534C293.516 65.078 293.462 64.616 293.426 64.148C293.342 64.388 293.258 64.628 293.174 64.868C293.09 65.096 293 65.33 292.904 65.57L288.53 76.208C288.314 76.736 287.99 77 287.558 77H284.264L281.132 58.532H284.516C284.816 58.532 285.062 58.61 285.254 58.766C285.446 58.922 285.566 59.12 285.614 59.36L286.694 69.224C286.73 69.764 286.76 70.28 286.784 70.772C286.808 71.264 286.832 71.762 286.856 72.266C287.036 71.762 287.222 71.264 287.414 70.772C287.618 70.28 287.822 69.764 288.026 69.224L292.04 59.324C292.136 59.084 292.292 58.886 292.508 58.73C292.724 58.574 292.97 58.496 293.246 58.496H295.136C295.448 58.496 295.7 58.574 295.892 58.73C296.084 58.886 296.192 59.084 296.216 59.324L297.746 69.224C297.818 69.764 297.884 70.286 297.944 70.79C298.016 71.282 298.076 71.78 298.124 72.284C298.256 71.792 298.4 71.294 298.556 70.79C298.724 70.286 298.898 69.764 299.078 69.224L302.66 59.36C302.744 59.12 302.894 58.922 303.11 58.766C303.326 58.61 303.572 58.532 303.848 58.532H307.106ZM316.627 61.376C316.027 61.376 315.469 61.502 314.953 61.754C314.437 61.994 313.969 62.336 313.549 62.78C313.141 63.224 312.781 63.758 312.469 64.382C312.169 64.994 311.929 65.666 311.749 66.398C313.237 66.194 314.431 65.972 315.331 65.732C316.243 65.48 316.945 65.216 317.437 64.94C317.929 64.652 318.253 64.346 318.409 64.022C318.577 63.686 318.661 63.338 318.661 62.978C318.661 62.798 318.619 62.612 318.535 62.42C318.463 62.228 318.343 62.06 318.175 61.916C318.019 61.76 317.809 61.634 317.545 61.538C317.293 61.43 316.987 61.376 316.627 61.376ZM311.371 69.476C311.371 72.38 312.601 73.832 315.061 73.832C315.589 73.832 316.057 73.784 316.465 73.688C316.873 73.58 317.227 73.454 317.527 73.31C317.839 73.166 318.115 73.004 318.355 72.824C318.607 72.644 318.835 72.482 319.039 72.338C319.255 72.194 319.465 72.074 319.669 71.978C319.873 71.87 320.095 71.816 320.335 71.816C320.479 71.816 320.617 71.852 320.749 71.924C320.893 71.996 321.019 72.092 321.127 72.212L322.261 73.58C321.625 74.216 321.001 74.768 320.389 75.236C319.777 75.704 319.153 76.088 318.517 76.388C317.881 76.688 317.209 76.91 316.501 77.054C315.793 77.198 315.025 77.27 314.197 77.27C313.117 77.27 312.139 77.09 311.263 76.73C310.387 76.358 309.637 75.842 309.013 75.182C308.389 74.51 307.903 73.706 307.555 72.77C307.219 71.822 307.051 70.766 307.051 69.602C307.051 68.63 307.153 67.676 307.357 66.74C307.573 65.804 307.879 64.916 308.275 64.076C308.671 63.236 309.157 62.462 309.733 61.754C310.309 61.046 310.957 60.434 311.677 59.918C312.409 59.402 313.207 59 314.071 58.712C314.947 58.424 315.883 58.28 316.879 58.28C317.839 58.28 318.679 58.418 319.399 58.694C320.131 58.97 320.737 59.33 321.217 59.774C321.709 60.206 322.075 60.692 322.315 61.232C322.555 61.772 322.675 62.3 322.675 62.816C322.675 63.644 322.507 64.4 322.171 65.084C321.847 65.768 321.259 66.38 320.407 66.92C319.567 67.46 318.415 67.928 316.951 68.324C315.487 68.708 313.627 69.014 311.371 69.242V69.476ZM330.39 62.96C330.858 62.048 331.356 61.268 331.884 60.62C332.424 59.96 332.982 59.45 333.558 59.09C334.134 58.718 334.728 58.502 335.34 58.442C335.952 58.37 336.564 58.466 337.176 58.73L336.366 62.978C334.902 62.366 333.618 62.516 332.514 63.428C331.422 64.34 330.546 66.134 329.886 68.81L328.896 77H324.54L326.772 58.514H329.04C329.508 58.514 329.868 58.628 330.12 58.856C330.384 59.084 330.516 59.45 330.516 59.954L330.39 62.96ZM355.31 73.256C356.15 73.256 356.918 73.1 357.614 72.788C358.322 72.464 358.94 72.014 359.468 71.438C359.996 70.85 360.428 70.148 360.764 69.332C361.112 68.516 361.346 67.61 361.466 66.614L363.374 50.972H368.054L366.128 66.614C365.936 68.15 365.528 69.572 364.904 70.88C364.28 72.188 363.476 73.316 362.492 74.264C361.52 75.212 360.38 75.956 359.072 76.496C357.776 77.024 356.354 77.288 354.806 77.288C353.258 77.288 351.896 77.024 350.72 76.496C349.556 75.956 348.602 75.212 347.858 74.264C347.114 73.316 346.592 72.188 346.292 70.88C345.992 69.572 345.938 68.15 346.13 66.614L348.002 50.972H352.682L350.774 66.596C350.654 67.592 350.66 68.504 350.792 69.332C350.936 70.148 351.2 70.85 351.584 71.438C351.98 72.014 352.484 72.464 353.096 72.788C353.72 73.1 354.458 73.256 355.31 73.256ZM373.732 72.68C374.14 73.124 374.608 73.436 375.136 73.616C375.664 73.796 376.18 73.886 376.684 73.886C377.476 73.886 378.196 73.64 378.844 73.148C379.492 72.656 380.05 72.014 380.518 71.222C380.986 70.43 381.346 69.542 381.598 68.558C381.85 67.562 381.976 66.566 381.976 65.57C381.976 64.274 381.76 63.314 381.328 62.69C380.908 62.054 380.32 61.736 379.564 61.736C379.072 61.736 378.574 61.904 378.07 62.24C377.566 62.576 377.08 63.038 376.612 63.626C376.144 64.202 375.706 64.886 375.298 65.678C374.902 66.47 374.56 67.322 374.272 68.234L373.732 72.68ZM374.722 62.6C375.61 61.268 376.612 60.212 377.728 59.432C378.856 58.64 380.05 58.244 381.31 58.244C382.078 58.244 382.774 58.388 383.398 58.676C384.022 58.952 384.556 59.372 385 59.936C385.444 60.5 385.786 61.214 386.026 62.078C386.266 62.942 386.386 63.956 386.386 65.12C386.386 66.164 386.278 67.19 386.062 68.198C385.846 69.206 385.54 70.16 385.144 71.06C384.748 71.96 384.274 72.788 383.722 73.544C383.182 74.3 382.576 74.954 381.904 75.506C381.232 76.058 380.512 76.49 379.744 76.802C378.988 77.114 378.202 77.27 377.386 77.27C376.546 77.27 375.79 77.12 375.118 76.82C374.458 76.52 373.876 76.112 373.372 75.596L372.454 83.03H368.134L371.122 58.514H373.372C373.84 58.514 374.2 58.628 374.452 58.856C374.716 59.084 374.848 59.45 374.848 59.954L374.722 62.6ZM408.394 61.448C408.226 61.436 408.064 61.43 407.908 61.43C407.764 61.418 407.62 61.412 407.476 61.412C406.48 61.412 405.556 61.64 404.704 62.096C403.852 62.552 403.114 63.17 402.49 63.95C401.878 64.718 401.392 65.618 401.032 66.65C400.684 67.67 400.51 68.75 400.51 69.89C400.51 71.186 400.714 72.134 401.122 72.734C401.53 73.334 402.088 73.634 402.796 73.634C403.288 73.634 403.768 73.466 404.236 73.13C404.716 72.782 405.166 72.314 405.586 71.726C406.018 71.126 406.408 70.424 406.756 69.62C407.116 68.816 407.428 67.952 407.692 67.028L408.394 61.448ZM407.17 73.148C406.354 74.408 405.43 75.41 404.398 76.154C403.378 76.898 402.262 77.27 401.05 77.27C400.354 77.27 399.7 77.132 399.088 76.856C398.488 76.58 397.96 76.172 397.504 75.632C397.06 75.08 396.706 74.396 396.442 73.58C396.19 72.752 396.064 71.786 396.064 70.682C396.064 69.578 396.202 68.504 396.478 67.46C396.754 66.416 397.144 65.438 397.648 64.526C398.164 63.602 398.782 62.756 399.502 61.988C400.222 61.22 401.026 60.56 401.914 60.008C402.814 59.456 403.78 59.03 404.812 58.73C405.856 58.418 406.954 58.262 408.106 58.262C408.934 58.262 409.762 58.322 410.59 58.442C411.43 58.562 412.246 58.778 413.038 59.09L410.824 77H408.466C407.902 77 407.518 76.862 407.314 76.586C407.122 76.298 407.026 75.944 407.026 75.524L407.17 73.148ZM62.948 93.972L59.744 120H57.332C56.972 120 56.672 119.94 56.432 119.82C56.204 119.688 55.988 119.478 55.784 119.19L45.704 101.406C45.68 101.706 45.656 101.994 45.632 102.27C45.608 102.534 45.584 102.786 45.56 103.026L43.508 120H39.386L42.59 93.972H45.038C45.242 93.972 45.41 93.984 45.542 94.008C45.686 94.02 45.812 94.056 45.92 94.116C46.028 94.164 46.124 94.236 46.208 94.332C46.292 94.428 46.382 94.56 46.478 94.728L56.612 112.494C56.636 112.134 56.66 111.792 56.684 111.468C56.72 111.132 56.756 110.826 56.792 110.55L58.826 93.972H62.948ZM73.6625 104.376C73.0625 104.376 72.5045 104.502 71.9885 104.754C71.4725 104.994 71.0045 105.336 70.5845 105.78C70.1765 106.224 69.8165 106.758 69.5045 107.382C69.2045 107.994 68.9645 108.666 68.7845 109.398C70.2725 109.194 71.4665 108.972 72.3665 108.732C73.2785 108.48 73.9805 108.216 74.4725 107.94C74.9645 107.652 75.2885 107.346 75.4445 107.022C75.6125 106.686 75.6965 106.338 75.6965 105.978C75.6965 105.798 75.6545 105.612 75.5705 105.42C75.4985 105.228 75.3785 105.06 75.2105 104.916C75.0545 104.76 74.8445 104.634 74.5805 104.538C74.3285 104.43 74.0225 104.376 73.6625 104.376ZM68.4065 112.476C68.4065 115.38 69.6365 116.832 72.0965 116.832C72.6245 116.832 73.0925 116.784 73.5005 116.688C73.9085 116.58 74.2625 116.454 74.5625 116.31C74.8745 116.166 75.1505 116.004 75.3905 115.824C75.6425 115.644 75.8705 115.482 76.0745 115.338C76.2905 115.194 76.5005 115.074 76.7045 114.978C76.9085 114.87 77.1305 114.816 77.3705 114.816C77.5145 114.816 77.6525 114.852 77.7845 114.924C77.9285 114.996 78.0545 115.092 78.1625 115.212L79.2965 116.58C78.6605 117.216 78.0365 117.768 77.4245 118.236C76.8125 118.704 76.1885 119.088 75.5525 119.388C74.9165 119.688 74.2445 119.91 73.5365 120.054C72.8285 120.198 72.0605 120.27 71.2325 120.27C70.1525 120.27 69.1745 120.09 68.2985 119.73C67.4225 119.358 66.6725 118.842 66.0485 118.182C65.4245 117.51 64.9385 116.706 64.5905 115.77C64.2545 114.822 64.0865 113.766 64.0865 112.602C64.0865 111.63 64.1885 110.676 64.3925 109.74C64.6085 108.804 64.9145 107.916 65.3105 107.076C65.7065 106.236 66.1925 105.462 66.7685 104.754C67.3445 104.046 67.9925 103.434 68.7125 102.918C69.4445 102.402 70.2425 102 71.1065 101.712C71.9825 101.424 72.9185 101.28 73.9145 101.28C74.8745 101.28 75.7145 101.418 76.4345 101.694C77.1665 101.97 77.7725 102.33 78.2525 102.774C78.7445 103.206 79.1105 103.692 79.3505 104.232C79.5905 104.772 79.7105 105.3 79.7105 105.816C79.7105 106.644 79.5425 107.4 79.2065 108.084C78.8825 108.768 78.2945 109.38 77.4425 109.92C76.6025 110.46 75.4505 110.928 73.9865 111.324C72.5225 111.708 70.6625 112.014 68.4065 112.242V112.476ZM107.981 101.532L100.349 120H96.9115C96.5395 120 96.3115 119.736 96.2275 119.208L94.4635 108.534C94.3915 108.078 94.3375 107.616 94.3015 107.148C94.2175 107.388 94.1335 107.628 94.0495 107.868C93.9655 108.096 93.8755 108.33 93.7795 108.57L89.4055 119.208C89.1895 119.736 88.8655 120 88.4335 120H85.1395L82.0075 101.532H85.3915C85.6915 101.532 85.9375 101.61 86.1295 101.766C86.3215 101.922 86.4415 102.12 86.4895 102.36L87.5695 112.224C87.6055 112.764 87.6355 113.28 87.6595 113.772C87.6835 114.264 87.7075 114.762 87.7315 115.266C87.9115 114.762 88.0975 114.264 88.2895 113.772C88.4935 113.28 88.6975 112.764 88.9015 112.224L92.9155 102.324C93.0115 102.084 93.1675 101.886 93.3835 101.73C93.5995 101.574 93.8455 101.496 94.1215 101.496H96.0115C96.3235 101.496 96.5755 101.574 96.7675 101.73C96.9595 101.886 97.0675 102.084 97.0915 102.324L98.6215 112.224C98.6935 112.764 98.7595 113.286 98.8195 113.79C98.8915 114.282 98.9515 114.78 98.9995 115.284C99.1315 114.792 99.2755 114.294 99.4315 113.79C99.5995 113.286 99.7735 112.764 99.9535 112.224L103.535 102.36C103.619 102.12 103.769 101.922 103.985 101.766C104.201 101.61 104.447 101.532 104.723 101.532H107.981ZM145.438 93.972L142.234 120H138.13L140.218 103.044C140.266 102.732 140.32 102.396 140.38 102.036C140.452 101.676 140.53 101.304 140.614 100.92L131.668 115.752C131.464 116.088 131.206 116.34 130.894 116.508C130.594 116.676 130.264 116.76 129.904 116.76H129.256C128.896 116.76 128.578 116.676 128.302 116.508C128.038 116.34 127.846 116.088 127.726 115.752L122.362 100.92C122.35 101.292 122.332 101.652 122.308 102C122.296 102.348 122.272 102.672 122.236 102.972L120.184 120H116.062L119.266 93.972H122.776C122.98 93.972 123.148 93.984 123.28 94.008C123.424 94.02 123.55 94.056 123.658 94.116C123.766 94.164 123.868 94.242 123.964 94.35C124.06 94.446 124.162 94.572 124.27 94.728L129.652 109.596C129.868 110.232 130.048 110.88 130.192 111.54C130.348 111.204 130.504 110.874 130.66 110.55C130.828 110.226 131.008 109.908 131.2 109.596L140.236 94.728C140.38 94.572 140.506 94.446 140.614 94.35C140.734 94.242 140.854 94.164 140.974 94.116C141.094 94.056 141.226 94.02 141.37 94.008C141.514 93.984 141.688 93.972 141.892 93.972H145.438ZM156.139 104.376C155.539 104.376 154.981 104.502 154.465 104.754C153.949 104.994 153.481 105.336 153.061 105.78C152.653 106.224 152.293 106.758 151.981 107.382C151.681 107.994 151.441 108.666 151.261 109.398C152.749 109.194 153.943 108.972 154.843 108.732C155.755 108.48 156.457 108.216 156.949 107.94C157.441 107.652 157.765 107.346 157.921 107.022C158.089 106.686 158.173 106.338 158.173 105.978C158.173 105.798 158.131 105.612 158.047 105.42C157.975 105.228 157.855 105.06 157.687 104.916C157.531 104.76 157.321 104.634 157.057 104.538C156.805 104.43 156.499 104.376 156.139 104.376ZM150.883 112.476C150.883 115.38 152.113 116.832 154.573 116.832C155.101 116.832 155.569 116.784 155.977 116.688C156.385 116.58 156.739 116.454 157.039 116.31C157.351 116.166 157.627 116.004 157.867 115.824C158.119 115.644 158.347 115.482 158.551 115.338C158.767 115.194 158.977 115.074 159.181 114.978C159.385 114.87 159.607 114.816 159.847 114.816C159.991 114.816 160.129 114.852 160.261 114.924C160.405 114.996 160.531 115.092 160.639 115.212L161.773 116.58C161.137 117.216 160.513 117.768 159.901 118.236C159.289 118.704 158.665 119.088 158.029 119.388C157.393 119.688 156.721 119.91 156.013 120.054C155.305 120.198 154.537 120.27 153.709 120.27C152.629 120.27 151.651 120.09 150.775 119.73C149.899 119.358 149.149 118.842 148.525 118.182C147.901 117.51 147.415 116.706 147.067 115.77C146.731 114.822 146.563 113.766 146.563 112.602C146.563 111.63 146.665 110.676 146.869 109.74C147.085 108.804 147.391 107.916 147.787 107.076C148.183 106.236 148.669 105.462 149.245 104.754C149.821 104.046 150.469 103.434 151.189 102.918C151.921 102.402 152.719 102 153.583 101.712C154.459 101.424 155.395 101.28 156.391 101.28C157.351 101.28 158.191 101.418 158.911 101.694C159.643 101.97 160.249 102.33 160.729 102.774C161.221 103.206 161.587 103.692 161.827 104.232C162.067 104.772 162.187 105.3 162.187 105.816C162.187 106.644 162.019 107.4 161.683 108.084C161.359 108.768 160.771 109.38 159.919 109.92C159.079 110.46 157.927 110.928 156.463 111.324C154.999 111.708 153.139 112.014 150.883 112.242V112.476ZM164.052 120L166.284 101.514H168.552C169.02 101.514 169.38 101.628 169.632 101.856C169.896 102.084 170.028 102.45 170.028 102.954L169.938 104.988C170.766 103.728 171.666 102.792 172.638 102.18C173.61 101.556 174.624 101.244 175.68 101.244C176.808 101.244 177.702 101.622 178.362 102.378C179.022 103.134 179.406 104.226 179.514 105.654C180.378 104.142 181.332 103.032 182.376 102.324C183.432 101.604 184.578 101.244 185.814 101.244C186.594 101.244 187.278 101.4 187.866 101.712C188.454 102.024 188.934 102.48 189.306 103.08C189.678 103.668 189.93 104.4 190.062 105.276C190.194 106.14 190.188 107.13 190.044 108.246L188.658 120H184.266L185.652 108.246C185.808 107.046 185.772 106.188 185.544 105.672C185.328 105.144 184.884 104.88 184.212 104.88C183.756 104.88 183.312 105 182.88 105.24C182.448 105.48 182.034 105.828 181.638 106.284C181.254 106.74 180.894 107.298 180.558 107.958C180.234 108.618 179.946 109.362 179.694 110.19L178.542 120H174.15L175.554 108.246C175.698 107.046 175.668 106.188 175.464 105.672C175.26 105.144 174.816 104.88 174.132 104.88C173.652 104.88 173.19 105.006 172.746 105.258C172.314 105.51 171.9 105.876 171.504 106.356C171.12 106.824 170.76 107.4 170.424 108.084C170.1 108.756 169.812 109.512 169.56 110.352L168.408 120H164.052ZM202.229 104.376C201.629 104.376 201.071 104.502 200.555 104.754C200.039 104.994 199.571 105.336 199.151 105.78C198.743 106.224 198.383 106.758 198.071 107.382C197.771 107.994 197.531 108.666 197.351 109.398C198.839 109.194 200.033 108.972 200.933 108.732C201.845 108.48 202.547 108.216 203.039 107.94C203.531 107.652 203.855 107.346 204.011 107.022C204.179 106.686 204.263 106.338 204.263 105.978C204.263 105.798 204.221 105.612 204.137 105.42C204.065 105.228 203.945 105.06 203.777 104.916C203.621 104.76 203.411 104.634 203.147 104.538C202.895 104.43 202.589 104.376 202.229 104.376ZM196.973 112.476C196.973 115.38 198.203 116.832 200.663 116.832C201.191 116.832 201.659 116.784 202.067 116.688C202.475 116.58 202.829 116.454 203.129 116.31C203.441 116.166 203.717 116.004 203.957 115.824C204.209 115.644 204.437 115.482 204.641 115.338C204.857 115.194 205.067 115.074 205.271 114.978C205.475 114.87 205.697 114.816 205.937 114.816C206.081 114.816 206.219 114.852 206.351 114.924C206.495 114.996 206.621 115.092 206.729 115.212L207.863 116.58C207.227 117.216 206.603 117.768 205.991 118.236C205.379 118.704 204.755 119.088 204.119 119.388C203.483 119.688 202.811 119.91 202.103 120.054C201.395 120.198 200.627 120.27 199.799 120.27C198.719 120.27 197.741 120.09 196.865 119.73C195.989 119.358 195.239 118.842 194.615 118.182C193.991 117.51 193.505 116.706 193.157 115.77C192.821 114.822 192.653 113.766 192.653 112.602C192.653 111.63 192.755 110.676 192.959 109.74C193.175 108.804 193.481 107.916 193.877 107.076C194.273 106.236 194.759 105.462 195.335 104.754C195.911 104.046 196.559 103.434 197.279 102.918C198.011 102.402 198.809 102 199.673 101.712C200.549 101.424 201.485 101.28 202.481 101.28C203.441 101.28 204.281 101.418 205.001 101.694C205.733 101.97 206.339 102.33 206.819 102.774C207.311 103.206 207.677 103.692 207.917 104.232C208.157 104.772 208.277 105.3 208.277 105.816C208.277 106.644 208.109 107.4 207.773 108.084C207.449 108.768 206.861 109.38 206.009 109.92C205.169 110.46 204.017 110.928 202.553 111.324C201.089 111.708 199.229 112.014 196.973 112.242V112.476ZM229.627 116.328C230.359 116.328 230.995 116.274 231.535 116.166C232.075 116.046 232.549 115.896 232.957 115.716C233.365 115.536 233.707 115.35 233.983 115.158C234.271 114.954 234.523 114.762 234.739 114.582C234.955 114.402 235.147 114.258 235.315 114.15C235.483 114.03 235.651 113.97 235.819 113.97C235.975 113.97 236.101 114 236.197 114.06C236.293 114.12 236.371 114.18 236.431 114.24L238.069 116.274C236.941 117.57 235.615 118.566 234.091 119.262C232.567 119.946 230.815 120.288 228.835 120.288C227.227 120.288 225.799 120.006 224.551 119.442C223.303 118.866 222.247 118.074 221.383 117.066C220.531 116.058 219.877 114.864 219.421 113.484C218.977 112.104 218.755 110.598 218.755 108.966C218.755 107.466 218.917 106.05 219.241 104.718C219.565 103.374 220.027 102.138 220.627 101.01C221.227 99.87 221.941 98.85 222.769 97.95C223.609 97.05 224.539 96.282 225.559 95.646C226.591 95.01 227.695 94.524 228.871 94.188C230.059 93.852 231.295 93.684 232.579 93.684C233.527 93.684 234.391 93.774 235.171 93.954C235.951 94.122 236.653 94.362 237.277 94.674C237.913 94.986 238.483 95.364 238.987 95.808C239.503 96.24 239.965 96.726 240.373 97.266L238.753 99.21C238.633 99.354 238.489 99.48 238.321 99.588C238.165 99.696 237.967 99.75 237.727 99.75C237.463 99.75 237.211 99.642 236.971 99.426C236.731 99.21 236.425 98.976 236.053 98.724C235.693 98.46 235.219 98.22 234.631 98.004C234.055 97.788 233.293 97.68 232.345 97.68C231.097 97.68 229.933 97.938 228.853 98.454C227.785 98.958 226.855 99.684 226.063 100.632C225.271 101.58 224.647 102.726 224.191 104.07C223.747 105.402 223.525 106.902 223.525 108.57C223.525 109.782 223.675 110.868 223.975 111.828C224.287 112.788 224.713 113.604 225.253 114.276C225.805 114.936 226.453 115.446 227.197 115.806C227.941 116.154 228.751 116.328 229.627 116.328ZM247.304 116.85C248.048 116.85 248.72 116.64 249.32 116.22C249.92 115.788 250.43 115.218 250.85 114.51C251.27 113.79 251.594 112.956 251.822 112.008C252.05 111.06 252.164 110.064 252.164 109.02C252.164 107.52 251.912 106.422 251.408 105.726C250.904 105.018 250.136 104.664 249.104 104.664C248.36 104.664 247.682 104.874 247.07 105.294C246.47 105.714 245.96 106.284 245.54 107.004C245.12 107.712 244.796 108.54 244.568 109.488C244.34 110.436 244.226 111.438 244.226 112.494C244.226 113.994 244.478 115.098 244.982 115.806C245.486 116.502 246.26 116.85 247.304 116.85ZM246.89 120.27C245.87 120.27 244.928 120.102 244.064 119.766C243.2 119.418 242.45 118.914 241.814 118.254C241.178 117.594 240.68 116.784 240.32 115.824C239.96 114.864 239.78 113.766 239.78 112.53C239.78 110.934 240.038 109.446 240.554 108.066C241.07 106.686 241.766 105.492 242.642 104.484C243.53 103.476 244.562 102.684 245.738 102.108C246.914 101.532 248.168 101.244 249.5 101.244C250.52 101.244 251.462 101.418 252.326 101.766C253.202 102.102 253.952 102.6 254.576 103.26C255.212 103.92 255.71 104.73 256.07 105.69C256.43 106.65 256.61 107.748 256.61 108.984C256.61 110.568 256.352 112.05 255.836 113.43C255.32 114.798 254.618 115.992 253.73 117.012C252.854 118.02 251.828 118.818 250.652 119.406C249.476 119.982 248.222 120.27 246.89 120.27ZM258.552 120L260.784 101.514H263.052C263.52 101.514 263.88 101.628 264.132 101.856C264.396 102.084 264.528 102.45 264.528 102.954L264.438 104.988C265.266 103.728 266.166 102.792 267.138 102.18C268.11 101.556 269.124 101.244 270.18 101.244C271.308 101.244 272.202 101.622 272.862 102.378C273.522 103.134 273.906 104.226 274.014 105.654C274.878 104.142 275.832 103.032 276.876 102.324C277.932 101.604 279.078 101.244 280.314 101.244C281.094 101.244 281.778 101.4 282.366 101.712C282.954 102.024 283.434 102.48 283.806 103.08C284.178 103.668 284.43 104.4 284.562 105.276C284.694 106.14 284.688 107.13 284.544 108.246L283.158 120H278.766L280.152 108.246C280.308 107.046 280.272 106.188 280.044 105.672C279.828 105.144 279.384 104.88 278.712 104.88C278.256 104.88 277.812 105 277.38 105.24C276.948 105.48 276.534 105.828 276.138 106.284C275.754 106.74 275.394 107.298 275.058 107.958C274.734 108.618 274.446 109.362 274.194 110.19L273.042 120H268.65L270.054 108.246C270.198 107.046 270.168 106.188 269.964 105.672C269.76 105.144 269.316 104.88 268.632 104.88C268.152 104.88 267.69 105.006 267.246 105.258C266.814 105.51 266.4 105.876 266.004 106.356C265.62 106.824 265.26 107.4 264.924 108.084C264.6 108.756 264.312 109.512 264.06 110.352L262.908 120H258.552ZM291.959 115.68C292.367 116.124 292.835 116.436 293.363 116.616C293.891 116.796 294.407 116.886 294.911 116.886C295.703 116.886 296.423 116.64 297.071 116.148C297.719 115.656 298.277 115.014 298.745 114.222C299.213 113.43 299.573 112.542 299.825 111.558C300.077 110.562 300.203 109.566 300.203 108.57C300.203 107.274 299.987 106.314 299.555 105.69C299.135 105.054 298.547 104.736 297.791 104.736C297.299 104.736 296.801 104.904 296.297 105.24C295.793 105.576 295.307 106.038 294.839 106.626C294.371 107.202 293.933 107.886 293.525 108.678C293.129 109.47 292.787 110.322 292.499 111.234L291.959 115.68ZM292.949 105.6C293.837 104.268 294.839 103.212 295.955 102.432C297.083 101.64 298.277 101.244 299.537 101.244C300.305 101.244 301.001 101.388 301.625 101.676C302.249 101.952 302.783 102.372 303.227 102.936C303.671 103.5 304.013 104.214 304.253 105.078C304.493 105.942 304.613 106.956 304.613 108.12C304.613 109.164 304.505 110.19 304.289 111.198C304.073 112.206 303.767 113.16 303.371 114.06C302.975 114.96 302.501 115.788 301.949 116.544C301.409 117.3 300.803 117.954 300.131 118.506C299.459 119.058 298.739 119.49 297.971 119.802C297.215 120.114 296.429 120.27 295.613 120.27C294.773 120.27 294.017 120.12 293.345 119.82C292.685 119.52 292.103 119.112 291.599 118.596L290.681 126.03H286.361L289.349 101.514H291.599C292.067 101.514 292.427 101.628 292.679 101.856C292.943 102.084 293.075 102.45 293.075 102.954L292.949 105.6ZM316.135 104.376C315.535 104.376 314.977 104.502 314.461 104.754C313.945 104.994 313.477 105.336 313.057 105.78C312.649 106.224 312.289 106.758 311.977 107.382C311.677 107.994 311.437 108.666 311.257 109.398C312.745 109.194 313.939 108.972 314.839 108.732C315.751 108.48 316.453 108.216 316.945 107.94C317.437 107.652 317.761 107.346 317.917 107.022C318.085 106.686 318.169 106.338 318.169 105.978C318.169 105.798 318.127 105.612 318.043 105.42C317.971 105.228 317.851 105.06 317.683 104.916C317.527 104.76 317.317 104.634 317.053 104.538C316.801 104.43 316.495 104.376 316.135 104.376ZM310.879 112.476C310.879 115.38 312.109 116.832 314.569 116.832C315.097 116.832 315.565 116.784 315.973 116.688C316.381 116.58 316.735 116.454 317.035 116.31C317.347 116.166 317.623 116.004 317.863 115.824C318.115 115.644 318.343 115.482 318.547 115.338C318.763 115.194 318.973 115.074 319.177 114.978C319.381 114.87 319.603 114.816 319.843 114.816C319.987 114.816 320.125 114.852 320.257 114.924C320.401 114.996 320.527 115.092 320.635 115.212L321.769 116.58C321.133 117.216 320.509 117.768 319.897 118.236C319.285 118.704 318.661 119.088 318.025 119.388C317.389 119.688 316.717 119.91 316.009 120.054C315.301 120.198 314.533 120.27 313.705 120.27C312.625 120.27 311.647 120.09 310.771 119.73C309.895 119.358 309.145 118.842 308.521 118.182C307.897 117.51 307.411 116.706 307.063 115.77C306.727 114.822 306.559 113.766 306.559 112.602C306.559 111.63 306.661 110.676 306.865 109.74C307.081 108.804 307.387 107.916 307.783 107.076C308.179 106.236 308.665 105.462 309.241 104.754C309.817 104.046 310.465 103.434 311.185 102.918C311.917 102.402 312.715 102 313.579 101.712C314.455 101.424 315.391 101.28 316.387 101.28C317.347 101.28 318.187 101.418 318.907 101.694C319.639 101.97 320.245 102.33 320.725 102.774C321.217 103.206 321.583 103.692 321.823 104.232C322.063 104.772 322.183 105.3 322.183 105.816C322.183 106.644 322.015 107.4 321.679 108.084C321.355 108.768 320.767 109.38 319.915 109.92C319.075 110.46 317.923 110.928 316.459 111.324C314.995 111.708 313.135 112.014 310.879 112.242V112.476ZM341.206 120H336.922L338.794 104.79H331.108L330.1 112.908C330.04 113.4 329.992 113.79 329.956 114.078C329.92 114.366 329.89 114.594 329.866 114.762C329.854 114.918 329.842 115.032 329.83 115.104C329.83 115.164 329.83 115.206 329.83 115.23C329.83 115.686 329.938 116.046 330.154 116.31C330.382 116.574 330.7 116.706 331.108 116.706C331.36 116.706 331.576 116.676 331.756 116.616C331.936 116.544 332.092 116.472 332.224 116.4C332.356 116.328 332.476 116.262 332.584 116.202C332.692 116.13 332.794 116.094 332.89 116.094C333.022 116.094 333.124 116.13 333.196 116.202C333.268 116.262 333.334 116.358 333.394 116.49L334.366 118.65C333.694 119.19 332.956 119.598 332.152 119.874C331.36 120.15 330.556 120.288 329.74 120.288C328.432 120.288 327.394 119.934 326.626 119.226C325.87 118.518 325.468 117.522 325.42 116.238C325.42 116.154 325.42 116.058 325.42 115.95C325.42 115.83 325.426 115.662 325.438 115.446C325.462 115.218 325.492 114.924 325.528 114.564C325.576 114.192 325.636 113.718 325.708 113.142L326.734 104.79H325.078C324.838 104.79 324.646 104.718 324.502 104.574C324.37 104.418 324.322 104.19 324.358 103.89L324.574 102.18L327.31 101.712L328.822 96.636C328.894 96.396 329.014 96.21 329.182 96.078C329.35 95.946 329.56 95.88 329.812 95.88H332.206L331.486 101.748H343.456L341.206 120ZM344.986 96.15C344.986 96.534 344.902 96.894 344.734 97.23C344.578 97.566 344.368 97.86 344.104 98.112C343.852 98.364 343.558 98.568 343.222 98.724C342.886 98.868 342.538 98.94 342.178 98.94C341.83 98.94 341.488 98.868 341.152 98.724C340.828 98.568 340.54 98.364 340.288 98.112C340.036 97.86 339.832 97.566 339.676 97.23C339.532 96.894 339.46 96.534 339.46 96.15C339.46 95.766 339.538 95.4 339.694 95.052C339.85 94.704 340.054 94.404 340.306 94.152C340.558 93.888 340.846 93.684 341.17 93.54C341.506 93.384 341.848 93.306 342.196 93.306C342.556 93.306 342.904 93.384 343.24 93.54C343.576 93.684 343.87 93.882 344.122 94.134C344.386 94.386 344.596 94.686 344.752 95.034C344.908 95.382 344.986 95.754 344.986 96.15ZM362.827 120H358.543L360.415 104.79H352.729L351.721 112.908C351.661 113.4 351.613 113.79 351.577 114.078C351.541 114.366 351.511 114.594 351.487 114.762C351.475 114.918 351.463 115.032 351.451 115.104C351.451 115.164 351.451 115.206 351.451 115.23C351.451 115.686 351.559 116.046 351.775 116.31C352.003 116.574 352.321 116.706 352.729 116.706C352.981 116.706 353.197 116.676 353.377 116.616C353.557 116.544 353.713 116.472 353.845 116.4C353.977 116.328 354.097 116.262 354.205 116.202C354.313 116.13 354.415 116.094 354.511 116.094C354.643 116.094 354.745 116.13 354.817 116.202C354.889 116.262 354.955 116.358 355.015 116.49L355.987 118.65C355.315 119.19 354.577 119.598 353.773 119.874C352.981 120.15 352.177 120.288 351.361 120.288C350.053 120.288 349.015 119.934 348.247 119.226C347.491 118.518 347.089 117.522 347.041 116.238C347.041 116.154 347.041 116.058 347.041 115.95C347.041 115.83 347.047 115.662 347.059 115.446C347.083 115.218 347.113 114.924 347.149 114.564C347.197 114.192 347.257 113.718 347.329 113.142L348.355 104.79H346.699C346.459 104.79 346.267 104.718 346.123 104.574C345.991 104.418 345.943 104.19 345.979 103.89L346.195 102.18L348.931 101.712L350.443 96.636C350.515 96.396 350.635 96.21 350.803 96.078C350.971 95.946 351.181 95.88 351.433 95.88H353.827L353.107 101.748H365.077L362.827 120ZM366.607 96.15C366.607 96.534 366.523 96.894 366.355 97.23C366.199 97.566 365.989 97.86 365.725 98.112C365.473 98.364 365.179 98.568 364.843 98.724C364.507 98.868 364.159 98.94 363.799 98.94C363.451 98.94 363.109 98.868 362.773 98.724C362.449 98.568 362.161 98.364 361.909 98.112C361.657 97.86 361.453 97.566 361.297 97.23C361.153 96.894 361.081 96.534 361.081 96.15C361.081 95.766 361.159 95.4 361.315 95.052C361.471 94.704 361.675 94.404 361.927 94.152C362.179 93.888 362.467 93.684 362.791 93.54C363.127 93.384 363.469 93.306 363.817 93.306C364.177 93.306 364.525 93.384 364.861 93.54C365.197 93.684 365.491 93.882 365.743 94.134C366.007 94.386 366.217 94.686 366.373 95.034C366.529 95.382 366.607 95.754 366.607 96.15ZM374.711 116.85C375.455 116.85 376.127 116.64 376.727 116.22C377.327 115.788 377.837 115.218 378.257 114.51C378.677 113.79 379.001 112.956 379.229 112.008C379.457 111.06 379.571 110.064 379.571 109.02C379.571 107.52 379.319 106.422 378.815 105.726C378.311 105.018 377.543 104.664 376.511 104.664C375.767 104.664 375.089 104.874 374.477 105.294C373.877 105.714 373.367 106.284 372.947 107.004C372.527 107.712 372.203 108.54 371.975 109.488C371.747 110.436 371.633 111.438 371.633 112.494C371.633 113.994 371.885 115.098 372.389 115.806C372.893 116.502 373.667 116.85 374.711 116.85ZM374.297 120.27C373.277 120.27 372.335 120.102 371.471 119.766C370.607 119.418 369.857 118.914 369.221 118.254C368.585 117.594 368.087 116.784 367.727 115.824C367.367 114.864 367.187 113.766 367.187 112.53C367.187 110.934 367.445 109.446 367.961 108.066C368.477 106.686 369.173 105.492 370.049 104.484C370.937 103.476 371.969 102.684 373.145 102.108C374.321 101.532 375.575 101.244 376.907 101.244C377.927 101.244 378.869 101.418 379.733 101.766C380.609 102.102 381.359 102.6 381.983 103.26C382.619 103.92 383.117 104.73 383.477 105.69C383.837 106.65 384.017 107.748 384.017 108.984C384.017 110.568 383.759 112.05 383.243 113.43C382.727 114.798 382.025 115.992 381.137 117.012C380.261 118.02 379.235 118.818 378.059 119.406C376.883 119.982 375.629 120.27 374.297 120.27ZM391.808 105.348C392.744 103.968 393.782 102.942 394.922 102.27C396.062 101.586 397.238 101.244 398.45 101.244C399.218 101.244 399.908 101.4 400.52 101.712C401.132 102.024 401.636 102.48 402.032 103.08C402.428 103.668 402.704 104.4 402.86 105.276C403.028 106.14 403.04 107.13 402.896 108.246L401.51 120H397.064L398.45 108.246C398.606 107.046 398.546 106.188 398.27 105.672C397.994 105.144 397.49 104.88 396.758 104.88C396.266 104.88 395.762 105.024 395.246 105.312C394.73 105.588 394.232 105.99 393.752 106.518C393.272 107.034 392.828 107.658 392.42 108.39C392.024 109.11 391.7 109.92 391.448 110.82L390.422 120H385.976L388.19 101.514H390.44C390.908 101.514 391.268 101.628 391.52 101.856C391.784 102.084 391.916 102.45 391.916 102.954L391.808 105.348ZM50.96 147.448C50.792 147.436 50.63 147.43 50.474 147.43C50.33 147.418 50.186 147.412 50.042 147.412C49.046 147.412 48.122 147.64 47.27 148.096C46.418 148.552 45.68 149.17 45.056 149.95C44.444 150.718 43.958 151.618 43.598 152.65C43.25 153.67 43.076 154.75 43.076 155.89C43.076 157.186 43.28 158.134 43.688 158.734C44.096 159.334 44.654 159.634 45.362 159.634C45.854 159.634 46.334 159.466 46.802 159.13C47.282 158.782 47.732 158.314 48.152 157.726C48.584 157.126 48.974 156.424 49.322 155.62C49.682 154.816 49.994 153.952 50.258 153.028L50.96 147.448ZM49.736 159.148C48.92 160.408 47.996 161.41 46.964 162.154C45.944 162.898 44.828 163.27 43.616 163.27C42.92 163.27 42.266 163.132 41.654 162.856C41.054 162.58 40.526 162.172 40.07 161.632C39.626 161.08 39.272 160.396 39.008 159.58C38.756 158.752 38.63 157.786 38.63 156.682C38.63 155.578 38.768 154.504 39.044 153.46C39.32 152.416 39.71 151.438 40.214 150.526C40.73 149.602 41.348 148.756 42.068 147.988C42.788 147.22 43.592 146.56 44.48 146.008C45.38 145.456 46.346 145.03 47.378 144.73C48.422 144.418 49.52 144.262 50.672 144.262C51.5 144.262 52.328 144.322 53.156 144.442C53.996 144.562 54.812 144.778 55.604 145.09L53.39 163H51.032C50.468 163 50.084 162.862 49.88 162.586C49.688 162.298 49.592 161.944 49.592 161.524L49.736 159.148ZM63.3083 148.348C64.2443 146.968 65.2823 145.942 66.4223 145.27C67.5623 144.586 68.7383 144.244 69.9503 144.244C70.7183 144.244 71.4083 144.4 72.0203 144.712C72.6323 145.024 73.1363 145.48 73.5323 146.08C73.9283 146.668 74.2043 147.4 74.3603 148.276C74.5283 149.14 74.5403 150.13 74.3963 151.246L73.0103 163H68.5643L69.9503 151.246C70.1063 150.046 70.0463 149.188 69.7703 148.672C69.4943 148.144 68.9903 147.88 68.2583 147.88C67.7663 147.88 67.2623 148.024 66.7463 148.312C66.2303 148.588 65.7323 148.99 65.2523 149.518C64.7723 150.034 64.3283 150.658 63.9203 151.39C63.5243 152.11 63.2003 152.92 62.9483 153.82L61.9223 163H57.4763L59.6903 144.514H61.9403C62.4083 144.514 62.7683 144.628 63.0203 144.856C63.2843 145.084 63.4163 145.45 63.4163 145.954L63.3083 148.348ZM89.6068 148.834C89.1988 148.39 88.7308 148.078 88.2028 147.898C87.6748 147.718 87.1528 147.628 86.6368 147.628C85.8448 147.628 85.1248 147.874 84.4768 148.366C83.8288 148.858 83.2708 149.5 82.8028 150.292C82.3468 151.084 81.9928 151.978 81.7408 152.974C81.4888 153.958 81.3628 154.948 81.3628 155.944C81.3628 157.24 81.5728 158.206 81.9928 158.842C82.4248 159.466 83.0188 159.778 83.7748 159.778C84.2548 159.778 84.7468 159.616 85.2508 159.292C85.7548 158.956 86.2408 158.5 86.7088 157.924C87.1768 157.336 87.6088 156.646 88.0048 155.854C88.4128 155.062 88.7608 154.21 89.0488 153.298L89.6068 148.834ZM95.5288 136.252L92.2168 163H89.8588C89.2948 163 88.9108 162.862 88.7068 162.586C88.5148 162.298 88.4188 161.944 88.4188 161.524L88.5808 158.95C88.1368 159.61 87.6628 160.21 87.1588 160.75C86.6548 161.278 86.1268 161.728 85.5748 162.1C85.0228 162.472 84.4468 162.76 83.8468 162.964C83.2588 163.168 82.6528 163.27 82.0288 163.27C81.2608 163.27 80.5648 163.132 79.9408 162.856C79.3168 162.568 78.7828 162.142 78.3388 161.578C77.8948 161.014 77.5528 160.3 77.3128 159.436C77.0728 158.572 76.9528 157.552 76.9528 156.376C76.9528 155.332 77.0608 154.312 77.2768 153.316C77.4928 152.308 77.7988 151.354 78.1948 150.454C78.5908 149.554 79.0588 148.726 79.5988 147.97C80.1508 147.214 80.7628 146.56 81.4348 146.008C82.1068 145.456 82.8208 145.024 83.5768 144.712C84.3448 144.4 85.1368 144.244 85.9528 144.244C86.7808 144.244 87.5308 144.394 88.2028 144.694C88.8748 144.994 89.4628 145.408 89.9668 145.936L91.1728 136.252H95.5288ZM139.682 136.972L129.044 163H124.814L121.88 144.964C121.844 144.724 121.808 144.472 121.772 144.208C121.736 143.932 121.706 143.644 121.682 143.344C121.574 143.644 121.466 143.932 121.358 144.208C121.262 144.472 121.166 144.724 121.07 144.964L113.708 163H109.514L105.266 136.972H108.92C109.328 136.972 109.652 137.074 109.892 137.278C110.144 137.47 110.294 137.722 110.342 138.034L112.628 154C112.664 154.384 112.694 154.798 112.718 155.242C112.754 155.686 112.784 156.148 112.808 156.628C112.964 156.148 113.12 155.686 113.276 155.242C113.432 154.798 113.594 154.384 113.762 154L120.242 138.034C120.374 137.77 120.584 137.53 120.872 137.314C121.172 137.086 121.514 136.972 121.898 136.972H122.996C123.404 136.972 123.722 137.074 123.95 137.278C124.178 137.47 124.34 137.722 124.436 138.034L127.028 154C127.088 154.372 127.142 154.774 127.19 155.206C127.25 155.638 127.298 156.088 127.334 156.556C127.466 156.088 127.598 155.644 127.73 155.224C127.862 154.792 127.994 154.384 128.126 154L134.3 138.034C134.348 137.89 134.426 137.758 134.534 137.638C134.642 137.506 134.768 137.392 134.912 137.296C135.068 137.2 135.236 137.122 135.416 137.062C135.608 137.002 135.8 136.972 135.992 136.972H139.682ZM149.046 147.448C148.878 147.436 148.716 147.43 148.56 147.43C148.416 147.418 148.272 147.412 148.128 147.412C147.132 147.412 146.208 147.64 145.356 148.096C144.504 148.552 143.766 149.17 143.142 149.95C142.53 150.718 142.044 151.618 141.684 152.65C141.336 153.67 141.162 154.75 141.162 155.89C141.162 157.186 141.366 158.134 141.774 158.734C142.182 159.334 142.74 159.634 143.448 159.634C143.94 159.634 144.42 159.466 144.888 159.13C145.368 158.782 145.818 158.314 146.238 157.726C146.67 157.126 147.06 156.424 147.408 155.62C147.768 154.816 148.08 153.952 148.344 153.028L149.046 147.448ZM147.822 159.148C147.006 160.408 146.082 161.41 145.05 162.154C144.03 162.898 142.914 163.27 141.702 163.27C141.006 163.27 140.352 163.132 139.74 162.856C139.14 162.58 138.612 162.172 138.156 161.632C137.712 161.08 137.358 160.396 137.094 159.58C136.842 158.752 136.716 157.786 136.716 156.682C136.716 155.578 136.854 154.504 137.13 153.46C137.406 152.416 137.796 151.438 138.3 150.526C138.816 149.602 139.434 148.756 140.154 147.988C140.874 147.22 141.678 146.56 142.566 146.008C143.466 145.456 144.432 145.03 145.464 144.73C146.508 144.418 147.606 144.262 148.758 144.262C149.586 144.262 150.414 144.322 151.242 144.442C152.082 144.562 152.898 144.778 153.69 145.09L151.476 163H149.118C148.554 163 148.17 162.862 147.966 162.586C147.774 162.298 147.678 161.944 147.678 161.524L147.822 159.148ZM157.11 159.238C157.11 159.154 157.11 159.058 157.11 158.95C157.11 158.83 157.116 158.662 157.128 158.446C157.152 158.218 157.182 157.924 157.218 157.564C157.266 157.192 157.326 156.718 157.398 156.142L158.424 147.862H156.678C156.462 147.862 156.282 147.784 156.138 147.628C156.006 147.472 155.964 147.238 156.012 146.926L156.21 145.162L159.018 144.676L160.494 139.636C160.578 139.396 160.704 139.21 160.872 139.078C161.04 138.946 161.25 138.88 161.502 138.88H163.878L163.158 144.694H167.622L167.244 147.862H162.762L161.772 155.908C161.712 156.4 161.664 156.79 161.628 157.078C161.592 157.366 161.562 157.594 161.538 157.762C161.526 157.918 161.52 158.032 161.52 158.104C161.52 158.164 161.52 158.206 161.52 158.23C161.52 158.686 161.628 159.046 161.844 159.31C162.072 159.574 162.39 159.706 162.798 159.706C163.05 159.706 163.266 159.676 163.446 159.616C163.626 159.544 163.782 159.472 163.914 159.4C164.046 159.328 164.166 159.262 164.274 159.202C164.382 159.13 164.484 159.094 164.58 159.094C164.712 159.094 164.814 159.13 164.886 159.202C164.958 159.262 165.024 159.358 165.084 159.49L166.038 161.65C165.378 162.19 164.646 162.598 163.842 162.874C163.05 163.15 162.24 163.288 161.412 163.288C160.104 163.288 159.066 162.934 158.298 162.226C157.542 161.518 157.146 160.522 157.11 159.238ZM182.579 159.724C181.967 160.396 181.379 160.96 180.815 161.416C180.263 161.872 179.699 162.238 179.123 162.514C178.547 162.79 177.941 162.982 177.305 163.09C176.681 163.21 175.991 163.27 175.235 163.27C174.167 163.27 173.207 163.09 172.355 162.73C171.515 162.358 170.801 161.836 170.213 161.164C169.625 160.492 169.175 159.682 168.863 158.734C168.551 157.786 168.395 156.73 168.395 155.566C168.395 154.57 168.503 153.598 168.719 152.65C168.935 151.702 169.247 150.808 169.655 149.968C170.063 149.128 170.555 148.36 171.131 147.664C171.707 146.968 172.355 146.368 173.075 145.864C173.795 145.36 174.575 144.97 175.415 144.694C176.267 144.406 177.167 144.262 178.115 144.262C179.339 144.262 180.377 144.478 181.229 144.91C182.093 145.342 182.855 145.99 183.515 146.854L182.093 148.546C181.997 148.654 181.877 148.756 181.733 148.852C181.589 148.936 181.433 148.978 181.265 148.978C181.061 148.978 180.875 148.918 180.707 148.798C180.551 148.666 180.359 148.528 180.131 148.384C179.915 148.24 179.639 148.108 179.303 147.988C178.979 147.856 178.553 147.79 178.025 147.79C177.341 147.79 176.687 147.976 176.063 148.348C175.439 148.72 174.887 149.248 174.407 149.932C173.927 150.616 173.543 151.438 173.255 152.398C172.979 153.358 172.841 154.42 172.841 155.584C172.841 156.94 173.141 157.99 173.741 158.734C174.341 159.466 175.157 159.832 176.189 159.832C176.645 159.832 177.047 159.784 177.395 159.688C177.743 159.592 178.049 159.478 178.313 159.346C178.589 159.202 178.829 159.052 179.033 158.896C179.237 158.728 179.429 158.578 179.609 158.446C179.789 158.302 179.957 158.182 180.113 158.086C180.281 157.99 180.461 157.942 180.653 157.942C180.809 157.942 180.953 157.984 181.085 158.068C181.229 158.14 181.355 158.236 181.463 158.356L182.579 159.724ZM190.954 147.664C191.854 146.512 192.826 145.654 193.87 145.09C194.926 144.526 196 144.244 197.092 144.244C197.872 144.244 198.568 144.4 199.18 144.712C199.804 145.024 200.314 145.48 200.71 146.08C201.106 146.668 201.382 147.4 201.538 148.276C201.706 149.14 201.718 150.13 201.574 151.246L200.17 163H195.742L197.128 151.246C197.284 150.046 197.218 149.182 196.93 148.654C196.654 148.126 196.144 147.862 195.4 147.862C194.944 147.862 194.47 147.994 193.978 148.258C193.486 148.51 193.012 148.876 192.556 149.356C192.1 149.824 191.674 150.394 191.278 151.066C190.882 151.738 190.546 152.488 190.27 153.316L189.1 163H184.654L187.894 136.252H192.34L190.954 147.664ZM213.431 159.238C213.431 159.154 213.431 159.058 213.431 158.95C213.431 158.83 213.437 158.662 213.449 158.446C213.473 158.218 213.503 157.924 213.539 157.564C213.587 157.192 213.647 156.718 213.719 156.142L214.745 147.862H212.999C212.783 147.862 212.603 147.784 212.459 147.628C212.327 147.472 212.285 147.238 212.333 146.926L212.531 145.162L215.339 144.676L216.815 139.636C216.899 139.396 217.025 139.21 217.193 139.078C217.361 138.946 217.571 138.88 217.823 138.88H220.199L219.479 144.694H223.943L223.565 147.862H219.083L218.093 155.908C218.033 156.4 217.985 156.79 217.949 157.078C217.913 157.366 217.883 157.594 217.859 157.762C217.847 157.918 217.841 158.032 217.841 158.104C217.841 158.164 217.841 158.206 217.841 158.23C217.841 158.686 217.949 159.046 218.165 159.31C218.393 159.574 218.711 159.706 219.119 159.706C219.371 159.706 219.587 159.676 219.767 159.616C219.947 159.544 220.103 159.472 220.235 159.4C220.367 159.328 220.487 159.262 220.595 159.202C220.703 159.13 220.805 159.094 220.901 159.094C221.033 159.094 221.135 159.13 221.207 159.202C221.279 159.262 221.345 159.358 221.405 159.49L222.359 161.65C221.699 162.19 220.967 162.598 220.163 162.874C219.371 163.15 218.561 163.288 217.733 163.288C216.425 163.288 215.387 162.934 214.619 162.226C213.863 161.518 213.467 160.522 213.431 159.238ZM231.348 147.664C232.248 146.512 233.22 145.654 234.264 145.09C235.32 144.526 236.394 144.244 237.486 144.244C238.266 144.244 238.962 144.4 239.574 144.712C240.198 145.024 240.708 145.48 241.104 146.08C241.5 146.668 241.776 147.4 241.932 148.276C242.1 149.14 242.112 150.13 241.968 151.246L240.564 163H236.136L237.522 151.246C237.678 150.046 237.612 149.182 237.324 148.654C237.048 148.126 236.538 147.862 235.794 147.862C235.338 147.862 234.864 147.994 234.372 148.258C233.88 148.51 233.406 148.876 232.95 149.356C232.494 149.824 232.068 150.394 231.672 151.066C231.276 151.738 230.94 152.488 230.664 153.316L229.494 163H225.048L228.288 136.252H232.734L231.348 147.664ZM254.155 147.376C253.555 147.376 252.997 147.502 252.481 147.754C251.965 147.994 251.497 148.336 251.077 148.78C250.669 149.224 250.309 149.758 249.997 150.382C249.697 150.994 249.457 151.666 249.277 152.398C250.765 152.194 251.959 151.972 252.859 151.732C253.771 151.48 254.473 151.216 254.965 150.94C255.457 150.652 255.781 150.346 255.937 150.022C256.105 149.686 256.189 149.338 256.189 148.978C256.189 148.798 256.147 148.612 256.063 148.42C255.991 148.228 255.871 148.06 255.703 147.916C255.547 147.76 255.337 147.634 255.073 147.538C254.821 147.43 254.515 147.376 254.155 147.376ZM248.899 155.476C248.899 158.38 250.129 159.832 252.589 159.832C253.117 159.832 253.585 159.784 253.993 159.688C254.401 159.58 254.755 159.454 255.055 159.31C255.367 159.166 255.643 159.004 255.883 158.824C256.135 158.644 256.363 158.482 256.567 158.338C256.783 158.194 256.993 158.074 257.197 157.978C257.401 157.87 257.623 157.816 257.863 157.816C258.007 157.816 258.145 157.852 258.277 157.924C258.421 157.996 258.547 158.092 258.655 158.212L259.789 159.58C259.153 160.216 258.529 160.768 257.917 161.236C257.305 161.704 256.681 162.088 256.045 162.388C255.409 162.688 254.737 162.91 254.029 163.054C253.321 163.198 252.553 163.27 251.725 163.27C250.645 163.27 249.667 163.09 248.791 162.73C247.915 162.358 247.165 161.842 246.541 161.182C245.917 160.51 245.431 159.706 245.083 158.77C244.747 157.822 244.579 156.766 244.579 155.602C244.579 154.63 244.681 153.676 244.885 152.74C245.101 151.804 245.407 150.916 245.803 150.076C246.199 149.236 246.685 148.462 247.261 147.754C247.837 147.046 248.485 146.434 249.205 145.918C249.937 145.402 250.735 145 251.599 144.712C252.475 144.424 253.411 144.28 254.407 144.28C255.367 144.28 256.207 144.418 256.927 144.694C257.659 144.97 258.265 145.33 258.745 145.774C259.237 146.206 259.603 146.692 259.843 147.232C260.083 147.772 260.203 148.3 260.203 148.816C260.203 149.644 260.035 150.4 259.699 151.084C259.375 151.768 258.787 152.38 257.935 152.92C257.095 153.46 255.943 153.928 254.479 154.324C253.015 154.708 251.155 155.014 248.899 155.242V155.476ZM281.553 159.328C282.285 159.328 282.921 159.274 283.461 159.166C284.001 159.046 284.475 158.896 284.883 158.716C285.291 158.536 285.633 158.35 285.909 158.158C286.197 157.954 286.449 157.762 286.665 157.582C286.881 157.402 287.073 157.258 287.241 157.15C287.409 157.03 287.577 156.97 287.745 156.97C287.901 156.97 288.027 157 288.123 157.06C288.219 157.12 288.297 157.18 288.357 157.24L289.995 159.274C288.867 160.57 287.541 161.566 286.017 162.262C284.493 162.946 282.741 163.288 280.761 163.288C279.153 163.288 277.725 163.006 276.477 162.442C275.229 161.866 274.173 161.074 273.309 160.066C272.457 159.058 271.803 157.864 271.347 156.484C270.903 155.104 270.681 153.598 270.681 151.966C270.681 150.466 270.843 149.05 271.167 147.718C271.491 146.374 271.953 145.138 272.553 144.01C273.153 142.87 273.867 141.85 274.695 140.95C275.535 140.05 276.465 139.282 277.485 138.646C278.517 138.01 279.621 137.524 280.797 137.188C281.985 136.852 283.221 136.684 284.505 136.684C285.453 136.684 286.317 136.774 287.097 136.954C287.877 137.122 288.579 137.362 289.203 137.674C289.839 137.986 290.409 138.364 290.913 138.808C291.429 139.24 291.891 139.726 292.299 140.266L290.679 142.21C290.559 142.354 290.415 142.48 290.247 142.588C290.091 142.696 289.893 142.75 289.653 142.75C289.389 142.75 289.137 142.642 288.897 142.426C288.657 142.21 288.351 141.976 287.979 141.724C287.619 141.46 287.145 141.22 286.557 141.004C285.981 140.788 285.219 140.68 284.271 140.68C283.023 140.68 281.859 140.938 280.779 141.454C279.711 141.958 278.781 142.684 277.989 143.632C277.197 144.58 276.573 145.726 276.117 147.07C275.673 148.402 275.451 149.902 275.451 151.57C275.451 152.782 275.601 153.868 275.901 154.828C276.213 155.788 276.639 156.604 277.179 157.276C277.731 157.936 278.379 158.446 279.123 158.806C279.867 159.154 280.677 159.328 281.553 159.328ZM297.906 148.96C298.374 148.048 298.872 147.268 299.4 146.62C299.94 145.96 300.498 145.45 301.074 145.09C301.65 144.718 302.244 144.502 302.856 144.442C303.468 144.37 304.08 144.466 304.692 144.73L303.882 148.978C302.418 148.366 301.134 148.516 300.03 149.428C298.938 150.34 298.062 152.134 297.402 154.81L296.412 163H292.056L294.288 144.514H296.556C297.024 144.514 297.384 144.628 297.636 144.856C297.9 145.084 298.032 145.45 298.032 145.954L297.906 148.96ZM313.991 147.376C313.391 147.376 312.833 147.502 312.317 147.754C311.801 147.994 311.333 148.336 310.913 148.78C310.505 149.224 310.145 149.758 309.833 150.382C309.533 150.994 309.293 151.666 309.113 152.398C310.601 152.194 311.795 151.972 312.695 151.732C313.607 151.48 314.309 151.216 314.801 150.94C315.293 150.652 315.617 150.346 315.773 150.022C315.941 149.686 316.025 149.338 316.025 148.978C316.025 148.798 315.983 148.612 315.899 148.42C315.827 148.228 315.707 148.06 315.539 147.916C315.383 147.76 315.173 147.634 314.909 147.538C314.657 147.43 314.351 147.376 313.991 147.376ZM308.735 155.476C308.735 158.38 309.965 159.832 312.425 159.832C312.953 159.832 313.421 159.784 313.829 159.688C314.237 159.58 314.591 159.454 314.891 159.31C315.203 159.166 315.479 159.004 315.719 158.824C315.971 158.644 316.199 158.482 316.403 158.338C316.619 158.194 316.829 158.074 317.033 157.978C317.237 157.87 317.459 157.816 317.699 157.816C317.843 157.816 317.981 157.852 318.113 157.924C318.257 157.996 318.383 158.092 318.491 158.212L319.625 159.58C318.989 160.216 318.365 160.768 317.753 161.236C317.141 161.704 316.517 162.088 315.881 162.388C315.245 162.688 314.573 162.91 313.865 163.054C313.157 163.198 312.389 163.27 311.561 163.27C310.481 163.27 309.503 163.09 308.627 162.73C307.751 162.358 307.001 161.842 306.377 161.182C305.753 160.51 305.267 159.706 304.919 158.77C304.583 157.822 304.415 156.766 304.415 155.602C304.415 154.63 304.517 153.676 304.721 152.74C304.937 151.804 305.243 150.916 305.639 150.076C306.035 149.236 306.521 148.462 307.097 147.754C307.673 147.046 308.321 146.434 309.041 145.918C309.773 145.402 310.571 145 311.435 144.712C312.311 144.424 313.247 144.28 314.243 144.28C315.203 144.28 316.043 144.418 316.763 144.694C317.495 144.97 318.101 145.33 318.581 145.774C319.073 146.206 319.439 146.692 319.679 147.232C319.919 147.772 320.039 148.3 320.039 148.816C320.039 149.644 319.871 150.4 319.535 151.084C319.211 151.768 318.623 152.38 317.771 152.92C316.931 153.46 315.779 153.928 314.315 154.324C312.851 154.708 310.991 155.014 308.735 155.242V155.476ZM334.144 147.448C333.976 147.436 333.814 147.43 333.658 147.43C333.514 147.418 333.37 147.412 333.226 147.412C332.23 147.412 331.306 147.64 330.454 148.096C329.602 148.552 328.864 149.17 328.24 149.95C327.628 150.718 327.142 151.618 326.782 152.65C326.434 153.67 326.26 154.75 326.26 155.89C326.26 157.186 326.464 158.134 326.872 158.734C327.28 159.334 327.838 159.634 328.546 159.634C329.038 159.634 329.518 159.466 329.986 159.13C330.466 158.782 330.916 158.314 331.336 157.726C331.768 157.126 332.158 156.424 332.506 155.62C332.866 154.816 333.178 153.952 333.442 153.028L334.144 147.448ZM332.92 159.148C332.104 160.408 331.18 161.41 330.148 162.154C329.128 162.898 328.012 163.27 326.8 163.27C326.104 163.27 325.45 163.132 324.838 162.856C324.238 162.58 323.71 162.172 323.254 161.632C322.81 161.08 322.456 160.396 322.192 159.58C321.94 158.752 321.814 157.786 321.814 156.682C321.814 155.578 321.952 154.504 322.228 153.46C322.504 152.416 322.894 151.438 323.398 150.526C323.914 149.602 324.532 148.756 325.252 147.988C325.972 147.22 326.776 146.56 327.664 146.008C328.564 145.456 329.53 145.03 330.562 144.73C331.606 144.418 332.704 144.262 333.856 144.262C334.684 144.262 335.512 144.322 336.34 144.442C337.18 144.562 337.996 144.778 338.788 145.09L336.574 163H334.216C333.652 163 333.268 162.862 333.064 162.586C332.872 162.298 332.776 161.944 332.776 161.524L332.92 159.148ZM357.976 163H353.692L355.564 147.79H347.878L346.87 155.908C346.81 156.4 346.762 156.79 346.726 157.078C346.69 157.366 346.66 157.594 346.636 157.762C346.624 157.918 346.612 158.032 346.6 158.104C346.6 158.164 346.6 158.206 346.6 158.23C346.6 158.686 346.708 159.046 346.924 159.31C347.152 159.574 347.47 159.706 347.878 159.706C348.13 159.706 348.346 159.676 348.526 159.616C348.706 159.544 348.862 159.472 348.994 159.4C349.126 159.328 349.246 159.262 349.354 159.202C349.462 159.13 349.564 159.094 349.66 159.094C349.792 159.094 349.894 159.13 349.966 159.202C350.038 159.262 350.104 159.358 350.164 159.49L351.136 161.65C350.464 162.19 349.726 162.598 348.922 162.874C348.13 163.15 347.326 163.288 346.51 163.288C345.202 163.288 344.164 162.934 343.396 162.226C342.64 161.518 342.238 160.522 342.19 159.238C342.19 159.154 342.19 159.058 342.19 158.95C342.19 158.83 342.196 158.662 342.208 158.446C342.232 158.218 342.262 157.924 342.298 157.564C342.346 157.192 342.406 156.718 342.478 156.142L343.504 147.79H341.848C341.608 147.79 341.416 147.718 341.272 147.574C341.14 147.418 341.092 147.19 341.128 146.89L341.344 145.18L344.08 144.712L345.592 139.636C345.664 139.396 345.784 139.21 345.952 139.078C346.12 138.946 346.33 138.88 346.582 138.88H348.976L348.256 144.748H360.226L357.976 163ZM361.756 139.15C361.756 139.534 361.672 139.894 361.504 140.23C361.348 140.566 361.138 140.86 360.874 141.112C360.622 141.364 360.328 141.568 359.992 141.724C359.656 141.868 359.308 141.94 358.948 141.94C358.6 141.94 358.258 141.868 357.922 141.724C357.598 141.568 357.31 141.364 357.058 141.112C356.806 140.86 356.602 140.566 356.446 140.23C356.302 139.894 356.23 139.534 356.23 139.15C356.23 138.766 356.308 138.4 356.464 138.052C356.62 137.704 356.824 137.404 357.076 137.152C357.328 136.888 357.616 136.684 357.94 136.54C358.276 136.384 358.618 136.306 358.966 136.306C359.326 136.306 359.674 136.384 360.01 136.54C360.346 136.684 360.64 136.882 360.892 137.134C361.156 137.386 361.366 137.686 361.522 138.034C361.678 138.382 361.756 138.754 361.756 139.15ZM380.047 144.532L370.939 163H367.213L362.587 144.532H366.241C366.553 144.532 366.799 144.61 366.979 144.766C367.171 144.922 367.291 145.12 367.339 145.36L369.265 155.224C369.361 155.824 369.439 156.412 369.499 156.988C369.559 157.564 369.607 158.14 369.643 158.716C370.003 157.564 370.423 156.4 370.903 155.224L375.313 145.36C375.421 145.12 375.583 144.922 375.799 144.766C376.027 144.61 376.279 144.532 376.555 144.532H380.047ZM386.715 144.532L384.501 163H380.127L382.341 144.532H386.715ZM387.849 139.15C387.849 139.534 387.765 139.894 387.597 140.23C387.441 140.566 387.231 140.86 386.967 141.112C386.703 141.364 386.403 141.568 386.067 141.724C385.731 141.868 385.383 141.94 385.023 141.94C384.675 141.94 384.339 141.868 384.015 141.724C383.691 141.568 383.403 141.364 383.151 141.112C382.899 140.86 382.695 140.566 382.539 140.23C382.395 139.894 382.323 139.534 382.323 139.15C382.323 138.766 382.401 138.4 382.557 138.052C382.713 137.704 382.917 137.404 383.169 137.152C383.421 136.888 383.709 136.684 384.033 136.54C384.369 136.384 384.711 136.306 385.059 136.306C385.419 136.306 385.767 136.384 386.103 136.54C386.439 136.684 386.733 136.882 386.985 137.134C387.249 137.386 387.459 137.686 387.615 138.034C387.771 138.382 387.849 138.754 387.849 139.15ZM390.337 159.238C390.337 159.154 390.337 159.058 390.337 158.95C390.337 158.83 390.343 158.662 390.355 158.446C390.379 158.218 390.409 157.924 390.445 157.564C390.493 157.192 390.553 156.718 390.625 156.142L391.651 147.862H389.905C389.689 147.862 389.509 147.784 389.365 147.628C389.233 147.472 389.191 147.238 389.239 146.926L389.437 145.162L392.245 144.676L393.721 139.636C393.805 139.396 393.931 139.21 394.099 139.078C394.267 138.946 394.477 138.88 394.729 138.88H397.105L396.385 144.694H400.849L400.471 147.862H395.989L394.999 155.908C394.939 156.4 394.891 156.79 394.855 157.078C394.819 157.366 394.789 157.594 394.765 157.762C394.753 157.918 394.747 158.032 394.747 158.104C394.747 158.164 394.747 158.206 394.747 158.23C394.747 158.686 394.855 159.046 395.071 159.31C395.299 159.574 395.617 159.706 396.025 159.706C396.277 159.706 396.493 159.676 396.673 159.616C396.853 159.544 397.009 159.472 397.141 159.4C397.273 159.328 397.393 159.262 397.501 159.202C397.609 159.13 397.711 159.094 397.807 159.094C397.939 159.094 398.041 159.13 398.113 159.202C398.185 159.262 398.251 159.358 398.311 159.49L399.265 161.65C398.605 162.19 397.873 162.598 397.069 162.874C396.277 163.15 395.467 163.288 394.639 163.288C393.331 163.288 392.293 162.934 391.525 162.226C390.769 161.518 390.373 160.522 390.337 159.238ZM419.81 144.532L407.606 168.112C407.438 168.424 407.24 168.652 407.012 168.796C406.784 168.952 406.502 169.03 406.166 169.03H402.872L406.976 161.578L402.314 144.532H406.04C406.364 144.532 406.604 144.616 406.76 144.784C406.928 144.94 407.042 145.132 407.102 145.36L409.37 154.936C409.49 155.548 409.58 156.16 409.64 156.772C409.772 156.46 409.904 156.154 410.036 155.854C410.18 155.542 410.324 155.23 410.468 154.918L415.022 145.342C415.142 145.102 415.316 144.91 415.544 144.766C415.772 144.61 416.006 144.532 416.246 144.532H419.81ZM54.938 184.652C54.77 184.892 54.602 185.072 54.434 185.192C54.278 185.3 54.08 185.354 53.84 185.354C53.6 185.354 53.354 185.258 53.102 185.066C52.85 184.874 52.55 184.664 52.202 184.436C51.854 184.196 51.44 183.98 50.96 183.788C50.48 183.596 49.904 183.5 49.232 183.5C48.584 183.5 48.008 183.596 47.504 183.788C47 183.98 46.574 184.244 46.226 184.58C45.89 184.916 45.632 185.312 45.452 185.768C45.284 186.224 45.2 186.716 45.2 187.244C45.2 187.796 45.338 188.258 45.614 188.63C45.902 188.99 46.274 189.308 46.73 189.584C47.186 189.86 47.708 190.106 48.296 190.322C48.884 190.538 49.478 190.766 50.078 191.006C50.69 191.246 51.29 191.522 51.878 191.834C52.466 192.146 52.988 192.53 53.444 192.986C53.9 193.442 54.266 193.994 54.542 194.642C54.83 195.278 54.974 196.052 54.974 196.964C54.974 198.236 54.752 199.436 54.308 200.564C53.864 201.692 53.234 202.682 52.418 203.534C51.602 204.374 50.606 205.046 49.43 205.55C48.254 206.042 46.94 206.288 45.488 206.288C44.732 206.288 43.988 206.204 43.256 206.036C42.524 205.88 41.834 205.652 41.186 205.352C40.538 205.052 39.938 204.692 39.386 204.272C38.834 203.852 38.354 203.384 37.946 202.868L39.602 200.636C39.734 200.468 39.902 200.33 40.106 200.222C40.31 200.114 40.514 200.06 40.718 200.06C40.91 200.06 41.096 200.12 41.276 200.24C41.468 200.36 41.672 200.51 41.888 200.69C42.116 200.858 42.356 201.05 42.608 201.266C42.872 201.47 43.166 201.662 43.49 201.842C43.826 202.01 44.204 202.154 44.624 202.274C45.056 202.394 45.542 202.454 46.082 202.454C47.45 202.454 48.518 202.07 49.286 201.302C50.054 200.534 50.438 199.472 50.438 198.116C50.438 197.516 50.3 197.024 50.024 196.64C49.748 196.256 49.382 195.932 48.926 195.668C48.47 195.404 47.948 195.176 47.36 194.984C46.784 194.78 46.196 194.57 45.596 194.354C44.996 194.126 44.402 193.868 43.814 193.58C43.238 193.28 42.722 192.902 42.266 192.446C41.81 191.978 41.444 191.408 41.168 190.736C40.892 190.064 40.754 189.236 40.754 188.252C40.754 187.136 40.958 186.062 41.366 185.03C41.786 183.998 42.38 183.092 43.148 182.312C43.928 181.52 44.864 180.89 45.956 180.422C47.06 179.942 48.302 179.702 49.682 179.702C50.39 179.702 51.068 179.774 51.716 179.918C52.376 180.062 52.988 180.266 53.552 180.53C54.116 180.794 54.632 181.112 55.1 181.484C55.58 181.844 55.994 182.246 56.342 182.69L54.938 184.652ZM64.8082 202.85C65.5522 202.85 66.2242 202.64 66.8242 202.22C67.4242 201.788 67.9342 201.218 68.3542 200.51C68.7742 199.79 69.0982 198.956 69.3262 198.008C69.5542 197.06 69.6682 196.064 69.6682 195.02C69.6682 193.52 69.4162 192.422 68.9122 191.726C68.4082 191.018 67.6402 190.664 66.6082 190.664C65.8642 190.664 65.1862 190.874 64.5742 191.294C63.9742 191.714 63.4642 192.284 63.0442 193.004C62.6242 193.712 62.3002 194.54 62.0722 195.488C61.8442 196.436 61.7302 197.438 61.7302 198.494C61.7302 199.994 61.9822 201.098 62.4862 201.806C62.9902 202.502 63.7642 202.85 64.8082 202.85ZM64.3942 206.27C63.3742 206.27 62.4322 206.102 61.5682 205.766C60.7042 205.418 59.9542 204.914 59.3182 204.254C58.6822 203.594 58.1842 202.784 57.8242 201.824C57.4642 200.864 57.2842 199.766 57.2842 198.53C57.2842 196.934 57.5422 195.446 58.0582 194.066C58.5742 192.686 59.2702 191.492 60.1462 190.484C61.0342 189.476 62.0662 188.684 63.2422 188.108C64.4182 187.532 65.6722 187.244 67.0042 187.244C68.0242 187.244 68.9662 187.418 69.8302 187.766C70.7062 188.102 71.4562 188.6 72.0802 189.26C72.7162 189.92 73.2142 190.73 73.5742 191.69C73.9342 192.65 74.1142 193.748 74.1142 194.984C74.1142 196.568 73.8562 198.05 73.3402 199.43C72.8242 200.798 72.1222 201.992 71.2342 203.012C70.3582 204.02 69.3322 204.818 68.1562 205.406C66.9802 205.982 65.7262 206.27 64.3942 206.27ZM88.2959 190.448C88.1279 190.436 87.9659 190.43 87.8099 190.43C87.6659 190.418 87.5219 190.412 87.3779 190.412C86.3819 190.412 85.4579 190.64 84.6059 191.096C83.7539 191.552 83.0159 192.17 82.3919 192.95C81.7799 193.718 81.2939 194.618 80.9339 195.65C80.5859 196.67 80.4119 197.75 80.4119 198.89C80.4119 200.186 80.6159 201.134 81.0239 201.734C81.4319 202.334 81.9899 202.634 82.6979 202.634C83.1899 202.634 83.6699 202.466 84.1379 202.13C84.6179 201.782 85.0679 201.314 85.4879 200.726C85.9199 200.126 86.3099 199.424 86.6579 198.62C87.0179 197.816 87.3299 196.952 87.5939 196.028L88.2959 190.448ZM87.0719 202.148C86.2559 203.408 85.3319 204.41 84.2999 205.154C83.2799 205.898 82.1639 206.27 80.9519 206.27C80.2559 206.27 79.6019 206.132 78.9899 205.856C78.3899 205.58 77.8619 205.172 77.4059 204.632C76.9619 204.08 76.6079 203.396 76.3439 202.58C76.0919 201.752 75.9659 200.786 75.9659 199.682C75.9659 198.578 76.1039 197.504 76.3799 196.46C76.6559 195.416 77.0459 194.438 77.5499 193.526C78.0659 192.602 78.6839 191.756 79.4039 190.988C80.1239 190.22 80.9279 189.56 81.8159 189.008C82.7159 188.456 83.6819 188.03 84.7139 187.73C85.7579 187.418 86.8559 187.262 88.0079 187.262C88.8359 187.262 89.6639 187.322 90.4919 187.442C91.3319 187.562 92.1479 187.778 92.9399 188.09L90.7259 206H88.3679C87.8039 206 87.4199 205.862 87.2159 205.586C87.0239 205.298 86.9279 204.944 86.9279 204.524L87.0719 202.148ZM100.644 191.96C101.112 191.048 101.61 190.268 102.138 189.62C102.678 188.96 103.236 188.45 103.812 188.09C104.388 187.718 104.982 187.502 105.594 187.442C106.206 187.37 106.818 187.466 107.43 187.73L106.62 191.978C105.156 191.366 103.872 191.516 102.768 192.428C101.676 193.34 100.8 195.134 100.14 197.81L99.1502 206H94.7942L97.0262 187.514H99.2942C99.7622 187.514 100.122 187.628 100.374 187.856C100.638 188.084 100.77 188.45 100.77 188.954L100.644 191.96Z" fill="white"/>
<rect x="378.441" y="4.02173" width="349.178" height="248"/>
<defs>
<linearGradient id="paint0_linear_124_2021" x1="-1.21594e-06" y1="-1.16838" x2="63.5733" y2="368.555" gradientUnits="userSpaceOnUse">
<stop stop-color="#274060"/>
<stop offset="1" stop-color="#1CB8E8"/>
</linearGradient>
<linearGradient id="paint1_linear_124_2021" x1="0.00129792" y1="-1.16907" x2="63.5746" y2="368.554" gradientUnits="userSpaceOnUse">
<stop stop-color="#274060"/>
<stop offset="1" stop-color="#1B2845"/>
</linearGradient>
<linearGradient id="paint2_linear_124_2021" x1="850.414" y1="-254.298" x2="83.9297" y2="228.436" gradientUnits="userSpaceOnUse">
<stop stop-color="white" stop-opacity="0.5"/>
<stop offset="1" stop-color="white" stop-opacity="0.25"/>
</linearGradient>
</defs>
</svg>
