<svg width="753" height="231" viewBox="0 0 753 231" fill="none" xmlns="http://www.w3.org/2000/svg">
<path d="M0 42.6022C0 28.1338 11.3831 16.2259 25.8368 15.5743L371.295 0L720.213 15.5846C734.671 16.2304 746.061 28.1402 746.061 42.6129V179.7C746.061 194.01 734.917 205.845 720.633 206.706L373.03 227.652L25.4279 206.706C11.1436 205.845 0 194.01 0 179.7V42.6022Z" fill="url(#paint0_linear_124_8089)"/>
<mask id="mask0_124_8089" style="mask-type:alpha" maskUnits="userSpaceOnUse" x="6" y="3" width="748" height="228">
<path d="M6.94141 45.9498C6.94141 31.4814 18.3245 19.5736 32.7782 18.922L378.237 3.34766L727.154 18.9323C741.612 19.5781 753.002 31.4878 753.002 45.9606V183.047C753.002 197.358 741.858 209.193 727.574 210.054L379.972 231L32.3693 210.054C18.085 209.193 6.94141 197.358 6.94141 183.047V45.9498Z" fill="url(#paint1_linear_124_8089)"/>
</mask>
<g mask="url(#mask0_124_8089)">
<ellipse opacity="0.15" cx="379.849" cy="-129.846" rx="325.896" ry="273.804" stroke="url(#paint2_linear_124_8089)" stroke-width="177.995"/>
</g>
<path d="M54.44 101.104C55.416 101.104 56.264 101.032 56.984 100.888C57.704 100.728 58.336 100.528 58.88 100.288C59.424 100.048 59.88 99.8001 60.248 99.5441C60.632 99.2721 60.968 99.0161 61.256 98.7761C61.544 98.5361 61.8 98.3441 62.024 98.2001C62.248 98.0401 62.472 97.9601 62.696 97.9601C62.904 97.9601 63.072 98.0001 63.2 98.0801C63.328 98.1601 63.432 98.2401 63.512 98.3201L65.696 101.032C64.192 102.76 62.424 104.088 60.392 105.016C58.36 105.928 56.024 106.384 53.384 106.384C51.24 106.384 49.336 106.008 47.672 105.256C46.008 104.488 44.6 103.432 43.448 102.088C42.312 100.744 41.44 99.1521 40.832 97.3121C40.24 95.4721 39.944 93.4641 39.944 91.2881C39.944 89.2881 40.16 87.4001 40.592 85.6241C41.024 83.8321 41.64 82.1841 42.44 80.6801C43.24 79.1601 44.192 77.8001 45.296 76.6001C46.416 75.4001 47.656 74.3761 49.016 73.5281C50.392 72.6801 51.864 72.0321 53.432 71.5841C55.016 71.1361 56.664 70.9121 58.376 70.9121C59.64 70.9121 60.792 71.0321 61.832 71.2721C62.872 71.4961 63.808 71.8161 64.64 72.2321C65.488 72.6481 66.248 73.1521 66.92 73.7441C67.608 74.3201 68.224 74.9681 68.768 75.6881L66.608 78.2801C66.448 78.4721 66.256 78.6401 66.032 78.7841C65.824 78.9281 65.56 79.0001 65.24 79.0001C64.888 79.0001 64.552 78.8561 64.232 78.5681C63.912 78.2801 63.504 77.9681 63.008 77.6321C62.528 77.2801 61.896 76.9601 61.112 76.6721C60.344 76.3841 59.328 76.2401 58.064 76.2401C56.4 76.2401 54.848 76.5841 53.408 77.2721C51.984 77.9441 50.744 78.9121 49.688 80.1761C48.632 81.4401 47.8 82.9681 47.192 84.7601C46.6 86.5361 46.304 88.5361 46.304 90.7601C46.304 92.3761 46.504 93.8241 46.904 95.1041C47.32 96.3841 47.888 97.4721 48.608 98.3681C49.344 99.2481 50.208 99.9281 51.2 100.408C52.192 100.872 53.272 101.104 54.44 101.104ZM78.0099 101.8C79.0019 101.8 79.8979 101.52 80.6979 100.96C81.4979 100.384 82.1779 99.6241 82.7379 98.6801C83.2979 97.7201 83.7299 96.6081 84.0339 95.3441C84.3379 94.0801 84.4899 92.7521 84.4899 91.3601C84.4899 89.3601 84.1539 87.8961 83.4819 86.9681C82.8099 86.0241 81.7859 85.5521 80.4099 85.5521C79.4179 85.5521 78.5139 85.8321 77.6979 86.3921C76.8979 86.9521 76.2179 87.7121 75.6579 88.6721C75.0979 89.6161 74.6659 90.7201 74.3619 91.9841C74.0579 93.2481 73.9059 94.5841 73.9059 95.9921C73.9059 97.9921 74.2419 99.4641 74.9139 100.408C75.5859 101.336 76.6179 101.8 78.0099 101.8ZM77.4579 106.36C76.0979 106.36 74.8419 106.136 73.6899 105.688C72.5379 105.224 71.5379 104.552 70.6899 103.672C69.8419 102.792 69.1779 101.712 68.6979 100.432C68.2179 99.1521 67.9779 97.6881 67.9779 96.0401C67.9779 93.9121 68.3219 91.9281 69.0099 90.0881C69.6979 88.2481 70.6259 86.6561 71.7939 85.3121C72.9779 83.9681 74.3539 82.9121 75.9219 82.1441C77.4899 81.3761 79.1619 80.9921 80.9379 80.9921C82.2979 80.9921 83.5539 81.2241 84.7059 81.6881C85.8739 82.1361 86.8739 82.8001 87.7059 83.6801C88.5539 84.5601 89.2179 85.6401 89.6979 86.9201C90.1779 88.2001 90.4179 89.6641 90.4179 91.3121C90.4179 93.4241 90.0739 95.4001 89.3859 97.2401C88.6979 99.0641 87.7619 100.656 86.5779 102.016C85.4099 103.36 84.0419 104.424 82.4739 105.208C80.9059 105.976 79.2339 106.36 77.4579 106.36ZM93.0789 106L97.3989 70.3361H103.255L98.9109 106H93.0789ZM104.516 106L108.836 70.3361H114.692L110.348 106H104.516ZM128.722 85.1681C127.922 85.1681 127.178 85.3361 126.49 85.6721C125.802 85.9921 125.178 86.4481 124.618 87.0401C124.074 87.6321 123.594 88.3441 123.178 89.1761C122.778 89.9921 122.458 90.8881 122.218 91.8641C124.202 91.5921 125.794 91.2961 126.994 90.9761C128.21 90.6401 129.146 90.2881 129.802 89.9201C130.458 89.5361 130.89 89.1281 131.098 88.6961C131.322 88.2481 131.434 87.7841 131.434 87.3041C131.434 87.0641 131.378 86.8161 131.266 86.5601C131.17 86.3041 131.01 86.0801 130.786 85.8881C130.578 85.6801 130.298 85.5121 129.946 85.3841C129.61 85.2401 129.202 85.1681 128.722 85.1681ZM121.714 95.9681C121.714 99.8401 123.354 101.776 126.634 101.776C127.338 101.776 127.962 101.712 128.506 101.584C129.05 101.44 129.522 101.272 129.922 101.08C130.338 100.888 130.706 100.672 131.026 100.432C131.362 100.192 131.666 99.9761 131.938 99.7841C132.226 99.5921 132.506 99.4321 132.778 99.3041C133.05 99.1601 133.346 99.0881 133.666 99.0881C133.858 99.0881 134.042 99.1361 134.218 99.2321C134.41 99.3281 134.578 99.4561 134.722 99.6161L136.234 101.44C135.386 102.288 134.554 103.024 133.738 103.648C132.922 104.272 132.09 104.784 131.242 105.184C130.394 105.584 129.498 105.88 128.554 106.072C127.61 106.264 126.586 106.36 125.482 106.36C124.042 106.36 122.738 106.12 121.57 105.64C120.402 105.144 119.402 104.456 118.57 103.576C117.738 102.68 117.09 101.608 116.626 100.36C116.178 99.0961 115.954 97.6881 115.954 96.1361C115.954 94.8401 116.09 93.5681 116.362 92.3201C116.65 91.0721 117.058 89.8881 117.586 88.7681C118.114 87.6481 118.762 86.6161 119.53 85.6721C120.298 84.7281 121.162 83.9121 122.122 83.2241C123.098 82.5361 124.162 82.0001 125.314 81.6161C126.482 81.2321 127.73 81.0401 129.058 81.0401C130.338 81.0401 131.458 81.2241 132.418 81.5921C133.394 81.9601 134.202 82.4401 134.842 83.0321C135.498 83.6081 135.986 84.2561 136.306 84.9761C136.626 85.6961 136.786 86.4001 136.786 87.0881C136.786 88.1921 136.562 89.2001 136.114 90.1121C135.682 91.0241 134.898 91.8401 133.762 92.5601C132.642 93.2801 131.106 93.9041 129.154 94.4321C127.202 94.9441 124.722 95.3521 121.714 95.6561V95.9681ZM158.21 101.632C157.394 102.528 156.61 103.28 155.858 103.888C155.122 104.496 154.37 104.984 153.602 105.352C152.834 105.72 152.026 105.976 151.178 106.12C150.346 106.28 149.426 106.36 148.418 106.36C146.994 106.36 145.714 106.12 144.578 105.64C143.458 105.144 142.506 104.448 141.722 103.552C140.938 102.656 140.338 101.576 139.922 100.312C139.506 99.0481 139.298 97.6401 139.298 96.0881C139.298 94.7601 139.442 93.4641 139.73 92.2001C140.018 90.9361 140.434 89.7441 140.978 88.6241C141.522 87.5041 142.178 86.4801 142.946 85.5521C143.714 84.6241 144.578 83.8241 145.538 83.1521C146.498 82.4801 147.538 81.9601 148.658 81.5921C149.794 81.2081 150.994 81.0161 152.258 81.0161C153.89 81.0161 155.274 81.3041 156.41 81.8801C157.562 82.4561 158.578 83.3201 159.458 84.4721L157.562 86.7281C157.434 86.8721 157.274 87.0081 157.082 87.1361C156.89 87.2481 156.682 87.3041 156.458 87.3041C156.186 87.3041 155.938 87.2241 155.714 87.0641C155.506 86.8881 155.25 86.7041 154.946 86.5121C154.658 86.3201 154.29 86.1441 153.842 85.9841C153.41 85.8081 152.842 85.7201 152.138 85.7201C151.226 85.7201 150.354 85.9681 149.522 86.4641C148.69 86.9601 147.954 87.6641 147.314 88.5761C146.674 89.4881 146.162 90.5841 145.778 91.8641C145.41 93.1441 145.226 94.5601 145.226 96.1121C145.226 97.9201 145.626 99.3201 146.426 100.312C147.226 101.288 148.314 101.776 149.69 101.776C150.298 101.776 150.834 101.712 151.298 101.584C151.762 101.456 152.17 101.304 152.522 101.128C152.89 100.936 153.21 100.736 153.482 100.528C153.754 100.304 154.01 100.104 154.25 99.9281C154.49 99.7361 154.714 99.5761 154.922 99.4481C155.146 99.3201 155.386 99.2561 155.642 99.2561C155.85 99.2561 156.042 99.3121 156.218 99.4241C156.41 99.5201 156.578 99.6481 156.722 99.8081L158.21 101.632ZM163.064 100.984C163.064 100.872 163.064 100.744 163.064 100.6C163.064 100.44 163.072 100.216 163.088 99.9281C163.12 99.6241 163.16 99.2321 163.208 98.7521C163.272 98.2561 163.352 97.6241 163.448 96.8561L164.816 85.8161H162.488C162.2 85.8161 161.96 85.7121 161.768 85.5041C161.592 85.2961 161.536 84.9841 161.6 84.5681L161.864 82.2161L165.608 81.5681L167.576 74.8481C167.688 74.5281 167.856 74.2801 168.08 74.1041C168.304 73.9281 168.584 73.8401 168.92 73.8401H172.088L171.128 81.5921H177.08L176.576 85.8161H170.6L169.28 96.5441C169.2 97.2001 169.136 97.7201 169.088 98.1041C169.04 98.4881 169 98.7921 168.968 99.0161C168.952 99.2241 168.944 99.3761 168.944 99.4721C168.944 99.5521 168.944 99.6081 168.944 99.6401C168.944 100.248 169.088 100.728 169.376 101.08C169.68 101.432 170.104 101.608 170.648 101.608C170.984 101.608 171.272 101.568 171.512 101.488C171.752 101.392 171.96 101.296 172.136 101.2C172.312 101.104 172.472 101.016 172.616 100.936C172.76 100.84 172.896 100.792 173.024 100.792C173.2 100.792 173.336 100.84 173.432 100.936C173.528 101.016 173.616 101.144 173.696 101.32L174.968 104.2C174.088 104.92 173.112 105.464 172.04 105.832C170.984 106.2 169.904 106.384 168.8 106.384C167.056 106.384 165.672 105.912 164.648 104.968C163.64 104.024 163.112 102.696 163.064 100.984ZM198.966 89.8481C197.542 90.7761 196.526 91.8401 195.918 93.0401C195.31 94.2241 195.006 95.4961 195.006 96.8561C195.006 98.4081 195.414 99.6241 196.23 100.504C197.046 101.384 198.23 101.824 199.782 101.824C200.934 101.824 202.038 101.592 203.094 101.128C204.166 100.664 205.166 100.024 206.094 99.2081L198.966 89.8481ZM218.43 106H213.486C213.022 106 212.622 105.976 212.286 105.928C211.95 105.864 211.654 105.768 211.398 105.64C211.142 105.496 210.902 105.32 210.678 105.112C210.47 104.904 210.246 104.648 210.006 104.344L208.758 102.688C207.27 103.856 205.67 104.768 203.958 105.424C202.246 106.064 200.446 106.384 198.558 106.384C197.086 106.384 195.766 106.184 194.598 105.784C193.43 105.368 192.438 104.784 191.622 104.032C190.806 103.264 190.182 102.344 189.75 101.272C189.318 100.184 189.102 98.9681 189.102 97.6241C189.102 96.3921 189.294 95.2321 189.678 94.1441C190.078 93.0401 190.622 92.0321 191.31 91.1201C192.014 90.1921 192.838 89.3601 193.782 88.6241C194.742 87.8881 195.774 87.2641 196.878 86.7521C196.366 85.7441 195.99 84.7441 195.75 83.7521C195.51 82.7601 195.39 81.8081 195.39 80.8961C195.39 79.5361 195.63 78.2561 196.11 77.0561C196.59 75.8401 197.27 74.7841 198.15 73.8881C199.03 72.9761 200.094 72.2561 201.342 71.7281C202.606 71.2001 204.022 70.9361 205.59 70.9361C206.902 70.9361 208.062 71.1441 209.07 71.5601C210.094 71.9761 210.942 72.5441 211.614 73.2641C212.302 73.9681 212.814 74.7841 213.15 75.7121C213.502 76.6401 213.67 77.6161 213.654 78.6401L210.222 79.3121C209.742 79.4081 209.374 79.3921 209.118 79.2641C208.862 79.1361 208.67 78.8561 208.542 78.4241C208.446 77.9921 208.302 77.5921 208.11 77.2241C207.918 76.8401 207.678 76.5041 207.39 76.2161C207.102 75.9281 206.766 75.7041 206.382 75.5441C205.998 75.3841 205.558 75.3041 205.062 75.3041C204.39 75.3041 203.782 75.4401 203.238 75.7121C202.71 75.9841 202.254 76.3601 201.87 76.8401C201.502 77.3041 201.214 77.8561 201.006 78.4961C200.814 79.1201 200.718 79.7921 200.718 80.5121C200.718 81.2801 200.862 82.0721 201.15 82.8881C201.454 83.7041 201.934 84.5681 202.59 85.4801L209.694 94.6721C210.222 93.7121 210.67 92.7121 211.038 91.6721C211.422 90.6321 211.718 89.5681 211.926 88.4801C212.006 88.1121 212.142 87.8161 212.334 87.5921C212.526 87.3681 212.814 87.2561 213.198 87.2561H217.206C216.934 89.3841 216.406 91.4081 215.622 93.3281C214.854 95.2321 213.886 96.9841 212.718 98.5841L218.43 106ZM253.287 77.5361C253.063 77.8561 252.839 78.0961 252.615 78.2561C252.407 78.4001 252.143 78.4721 251.823 78.4721C251.503 78.4721 251.175 78.3441 250.839 78.0881C250.503 77.8321 250.103 77.5521 249.639 77.2481C249.175 76.9281 248.623 76.6401 247.983 76.3841C247.343 76.1281 246.575 76.0001 245.679 76.0001C244.815 76.0001 244.047 76.1281 243.375 76.3841C242.703 76.6401 242.135 76.9921 241.671 77.4401C241.223 77.8881 240.879 78.4161 240.639 79.0241C240.415 79.6321 240.303 80.2881 240.303 80.9921C240.303 81.7281 240.487 82.3441 240.855 82.8401C241.239 83.3201 241.735 83.7441 242.343 84.1121C242.951 84.4801 243.647 84.8081 244.431 85.0961C245.215 85.3841 246.007 85.6881 246.807 86.0081C247.623 86.3281 248.423 86.6961 249.207 87.1121C249.991 87.5281 250.687 88.0401 251.295 88.6481C251.903 89.2561 252.391 89.9921 252.759 90.8561C253.143 91.7041 253.335 92.7361 253.335 93.9521C253.335 95.6481 253.039 97.2481 252.447 98.7521C251.855 100.256 251.015 101.576 249.927 102.712C248.839 103.832 247.511 104.728 245.943 105.4C244.375 106.056 242.623 106.384 240.687 106.384C239.679 106.384 238.687 106.272 237.711 106.048C236.735 105.84 235.815 105.536 234.951 105.136C234.087 104.736 233.287 104.256 232.551 103.696C231.815 103.136 231.175 102.512 230.631 101.824L232.839 98.8481C233.015 98.6241 233.239 98.4401 233.511 98.2961C233.783 98.1521 234.055 98.0801 234.327 98.0801C234.583 98.0801 234.831 98.1601 235.071 98.3201C235.327 98.4801 235.599 98.6801 235.887 98.9201C236.191 99.1441 236.511 99.4001 236.847 99.6881C237.199 99.9601 237.591 100.216 238.023 100.456C238.471 100.68 238.975 100.872 239.535 101.032C240.111 101.192 240.759 101.272 241.479 101.272C243.303 101.272 244.727 100.76 245.751 99.7361C246.775 98.7121 247.287 97.2961 247.287 95.4881C247.287 94.6881 247.103 94.0321 246.735 93.5201C246.367 93.0081 245.879 92.5761 245.271 92.2241C244.663 91.8721 243.967 91.5681 243.183 91.3121C242.415 91.0401 241.631 90.7601 240.831 90.4721C240.031 90.1681 239.239 89.8241 238.455 89.4401C237.687 89.0401 236.999 88.5361 236.391 87.9281C235.783 87.3041 235.295 86.5441 234.927 85.6481C234.559 84.7521 234.375 83.6481 234.375 82.3361C234.375 80.8481 234.647 79.4161 235.191 78.0401C235.751 76.6641 236.543 75.4561 237.567 74.4161C238.607 73.3601 239.855 72.5201 241.311 71.8961C242.783 71.2561 244.439 70.9361 246.279 70.9361C247.223 70.9361 248.127 71.0321 248.991 71.2241C249.871 71.4161 250.687 71.6881 251.439 72.0401C252.191 72.3921 252.879 72.8161 253.503 73.3121C254.143 73.7921 254.695 74.3281 255.159 74.9201L253.287 77.5361ZM269.159 85.1681C268.359 85.1681 267.615 85.3361 266.927 85.6721C266.239 85.9921 265.615 86.4481 265.055 87.0401C264.511 87.6321 264.031 88.3441 263.615 89.1761C263.215 89.9921 262.895 90.8881 262.655 91.8641C264.639 91.5921 266.231 91.2961 267.431 90.9761C268.647 90.6401 269.583 90.2881 270.239 89.9201C270.895 89.5361 271.327 89.1281 271.535 88.6961C271.759 88.2481 271.871 87.7841 271.871 87.3041C271.871 87.0641 271.815 86.8161 271.703 86.5601C271.607 86.3041 271.447 86.0801 271.223 85.8881C271.015 85.6801 270.735 85.5121 270.383 85.3841C270.047 85.2401 269.639 85.1681 269.159 85.1681ZM262.151 95.9681C262.151 99.8401 263.791 101.776 267.071 101.776C267.775 101.776 268.399 101.712 268.943 101.584C269.487 101.44 269.959 101.272 270.359 101.08C270.775 100.888 271.143 100.672 271.463 100.432C271.799 100.192 272.103 99.9761 272.375 99.7841C272.663 99.5921 272.943 99.4321 273.215 99.3041C273.487 99.1601 273.783 99.0881 274.103 99.0881C274.295 99.0881 274.479 99.1361 274.655 99.2321C274.847 99.3281 275.015 99.4561 275.159 99.6161L276.671 101.44C275.823 102.288 274.991 103.024 274.175 103.648C273.359 104.272 272.527 104.784 271.679 105.184C270.831 105.584 269.935 105.88 268.991 106.072C268.047 106.264 267.023 106.36 265.919 106.36C264.479 106.36 263.175 106.12 262.007 105.64C260.839 105.144 259.839 104.456 259.007 103.576C258.175 102.68 257.527 101.608 257.063 100.36C256.615 99.0961 256.391 97.6881 256.391 96.1361C256.391 94.8401 256.527 93.5681 256.799 92.3201C257.087 91.0721 257.495 89.8881 258.023 88.7681C258.551 87.6481 259.199 86.6161 259.967 85.6721C260.735 84.7281 261.599 83.9121 262.559 83.2241C263.535 82.5361 264.599 82.0001 265.751 81.6161C266.919 81.2321 268.167 81.0401 269.495 81.0401C270.775 81.0401 271.895 81.2241 272.855 81.5921C273.831 81.9601 274.639 82.4401 275.279 83.0321C275.935 83.6081 276.423 84.2561 276.743 84.9761C277.063 85.6961 277.223 86.4001 277.223 87.0881C277.223 88.1921 276.999 89.2001 276.551 90.1121C276.119 91.0241 275.335 91.8401 274.199 92.5601C273.079 93.2801 271.543 93.9041 269.591 94.4321C267.639 94.9441 265.159 95.3521 262.151 95.6561V95.9681ZM279.782 106L284.102 70.3361H289.958L285.614 106H279.782ZM291.22 106L295.54 70.3361H301.396L297.052 106H291.22ZM55.544 150.464L53.864 164H47.648L49.328 150.512L40.28 129.296H45.824C46.368 129.296 46.792 129.424 47.096 129.68C47.4 129.936 47.624 130.28 47.768 130.712L52.232 142.712C52.44 143.304 52.616 143.88 52.76 144.44C52.904 144.984 53.032 145.512 53.144 146.024C53.4 145.496 53.672 144.968 53.96 144.44C54.264 143.896 54.592 143.32 54.944 142.712L62.408 130.712C62.632 130.344 62.928 130.016 63.296 129.728C63.664 129.44 64.104 129.296 64.616 129.296H69.776L55.544 150.464ZM73.3224 159.8C74.3144 159.8 75.2104 159.52 76.0104 158.96C76.8104 158.384 77.4904 157.624 78.0504 156.68C78.6104 155.72 79.0424 154.608 79.3464 153.344C79.6504 152.08 79.8024 150.752 79.8024 149.36C79.8024 147.36 79.4664 145.896 78.7944 144.968C78.1224 144.024 77.0984 143.552 75.7224 143.552C74.7304 143.552 73.8264 143.832 73.0104 144.392C72.2104 144.952 71.5304 145.712 70.9704 146.672C70.4104 147.616 69.9784 148.72 69.6744 149.984C69.3704 151.248 69.2184 152.584 69.2184 153.992C69.2184 155.992 69.5544 157.464 70.2264 158.408C70.8984 159.336 71.9304 159.8 73.3224 159.8ZM72.7704 164.36C71.4104 164.36 70.1544 164.136 69.0024 163.688C67.8504 163.224 66.8504 162.552 66.0024 161.672C65.1544 160.792 64.4904 159.712 64.0104 158.432C63.5304 157.152 63.2904 155.688 63.2904 154.04C63.2904 151.912 63.6344 149.928 64.3224 148.088C65.0104 146.248 65.9384 144.656 67.1064 143.312C68.2904 141.968 69.6664 140.912 71.2344 140.144C72.8024 139.376 74.4744 138.992 76.2504 138.992C77.6104 138.992 78.8664 139.224 80.0184 139.688C81.1864 140.136 82.1864 140.8 83.0184 141.68C83.8664 142.56 84.5304 143.64 85.0104 144.92C85.4904 146.2 85.7304 147.664 85.7304 149.312C85.7304 151.424 85.3864 153.4 84.6984 155.24C84.0104 157.064 83.0744 158.656 81.8904 160.016C80.7224 161.36 79.3544 162.424 77.7864 163.208C76.2184 163.976 74.5464 164.36 72.7704 164.36ZM111.767 139.376L108.791 164H105.791C104.383 164 103.679 163.32 103.679 161.96L103.823 159.128C102.575 160.888 101.207 162.2 99.7194 163.064C98.2474 163.928 96.7194 164.36 95.1354 164.36C94.1114 164.36 93.1914 164.152 92.3754 163.736C91.5594 163.32 90.8874 162.72 90.3594 161.936C89.8314 161.136 89.4554 160.152 89.2314 158.984C89.0234 157.816 89.0154 156.488 89.2074 155L91.0554 139.376H96.9834L95.1354 155C94.9274 156.616 95.0074 157.776 95.3754 158.48C95.7434 159.168 96.4154 159.512 97.3914 159.512C98.0314 159.512 98.6794 159.336 99.3354 158.984C100.007 158.632 100.655 158.128 101.279 157.472C101.903 156.816 102.479 156.032 103.007 155.12C103.535 154.192 103.975 153.16 104.327 152.024L105.839 139.376H111.767ZM122.088 145.28C122.712 144.064 123.376 143.024 124.08 142.16C124.8 141.28 125.544 140.6 126.312 140.12C127.08 139.624 127.872 139.336 128.688 139.256C129.504 139.16 130.32 139.288 131.136 139.64L130.056 145.304C128.104 144.488 126.392 144.688 124.92 145.904C123.464 147.12 122.296 149.512 121.416 153.08L120.096 164H114.288L117.264 139.352H120.288C120.912 139.352 121.392 139.504 121.728 139.808C122.08 140.112 122.256 140.6 122.256 141.272L122.088 145.28ZM166.292 134.408H156.812L153.164 164H146.972L150.572 134.408H141.044L141.668 129.296H166.94L166.292 134.408ZM171.151 159.8C172.143 159.8 173.039 159.52 173.839 158.96C174.639 158.384 175.319 157.624 175.879 156.68C176.439 155.72 176.871 154.608 177.175 153.344C177.479 152.08 177.631 150.752 177.631 149.36C177.631 147.36 177.295 145.896 176.623 144.968C175.951 144.024 174.927 143.552 173.551 143.552C172.559 143.552 171.655 143.832 170.839 144.392C170.039 144.952 169.359 145.712 168.799 146.672C168.239 147.616 167.807 148.72 167.503 149.984C167.199 151.248 167.047 152.584 167.047 153.992C167.047 155.992 167.383 157.464 168.055 158.408C168.727 159.336 169.759 159.8 171.151 159.8ZM170.599 164.36C169.239 164.36 167.983 164.136 166.831 163.688C165.679 163.224 164.679 162.552 163.831 161.672C162.983 160.792 162.319 159.712 161.839 158.432C161.359 157.152 161.119 155.688 161.119 154.04C161.119 151.912 161.463 149.928 162.151 148.088C162.839 146.248 163.767 144.656 164.935 143.312C166.119 141.968 167.495 140.912 169.063 140.144C170.631 139.376 172.303 138.992 174.079 138.992C175.439 138.992 176.695 139.224 177.847 139.688C179.015 140.136 180.015 140.8 180.847 141.68C181.695 142.56 182.359 143.64 182.839 144.92C183.319 146.2 183.559 147.664 183.559 149.312C183.559 151.424 183.215 153.4 182.527 155.24C181.839 157.064 180.903 158.656 179.719 160.016C178.551 161.36 177.183 162.424 175.615 163.208C174.047 163.976 172.375 164.36 170.599 164.36ZM196.324 128.336L193.828 148.76H194.428C194.796 148.76 195.092 148.704 195.316 148.592C195.556 148.48 195.804 148.272 196.06 147.968L202.612 140.408C202.884 140.072 203.172 139.816 203.476 139.64C203.78 139.464 204.164 139.376 204.628 139.376H209.908L201.796 148.52C201.22 149.224 200.596 149.776 199.924 150.176C200.228 150.4 200.484 150.672 200.692 150.992C200.916 151.312 201.116 151.664 201.292 152.048L207.364 164H202.228C201.796 164 201.436 163.928 201.148 163.784C200.86 163.624 200.628 163.344 200.452 162.944L195.676 153.608C195.5 153.24 195.308 153 195.1 152.888C194.908 152.776 194.588 152.72 194.14 152.72H193.324L191.956 164H186.1L190.492 128.336H196.324ZM221.816 143.168C221.016 143.168 220.272 143.336 219.584 143.672C218.896 143.992 218.272 144.448 217.712 145.04C217.168 145.632 216.688 146.344 216.272 147.176C215.872 147.992 215.552 148.888 215.312 149.864C217.296 149.592 218.888 149.296 220.088 148.976C221.304 148.64 222.24 148.288 222.896 147.92C223.552 147.536 223.984 147.128 224.192 146.696C224.416 146.248 224.528 145.784 224.528 145.304C224.528 145.064 224.472 144.816 224.36 144.56C224.264 144.304 224.104 144.08 223.88 143.888C223.672 143.68 223.392 143.512 223.04 143.384C222.704 143.24 222.296 143.168 221.816 143.168ZM214.808 153.968C214.808 157.84 216.448 159.776 219.728 159.776C220.432 159.776 221.056 159.712 221.6 159.584C222.144 159.44 222.616 159.272 223.016 159.08C223.432 158.888 223.8 158.672 224.12 158.432C224.456 158.192 224.76 157.976 225.032 157.784C225.32 157.592 225.6 157.432 225.872 157.304C226.144 157.16 226.44 157.088 226.76 157.088C226.952 157.088 227.136 157.136 227.312 157.232C227.504 157.328 227.672 157.456 227.816 157.616L229.328 159.44C228.48 160.288 227.648 161.024 226.832 161.648C226.016 162.272 225.184 162.784 224.336 163.184C223.488 163.584 222.592 163.88 221.648 164.072C220.704 164.264 219.68 164.36 218.576 164.36C217.136 164.36 215.832 164.12 214.664 163.64C213.496 163.144 212.496 162.456 211.664 161.576C210.832 160.68 210.184 159.608 209.72 158.36C209.272 157.096 209.048 155.688 209.048 154.136C209.048 152.84 209.184 151.568 209.456 150.32C209.744 149.072 210.152 147.888 210.68 146.768C211.208 145.648 211.856 144.616 212.624 143.672C213.392 142.728 214.256 141.912 215.216 141.224C216.192 140.536 217.256 140 218.408 139.616C219.576 139.232 220.824 139.04 222.152 139.04C223.432 139.04 224.552 139.224 225.512 139.592C226.488 139.96 227.296 140.44 227.936 141.032C228.592 141.608 229.08 142.256 229.4 142.976C229.72 143.696 229.88 144.4 229.88 145.088C229.88 146.192 229.656 147.2 229.208 148.112C228.776 149.024 227.992 149.84 226.856 150.56C225.736 151.28 224.2 151.904 222.248 152.432C220.296 152.944 217.816 153.352 214.808 153.656V153.968ZM240.166 144.464C241.414 142.624 242.798 141.256 244.318 140.36C245.838 139.448 247.406 138.992 249.022 138.992C250.046 138.992 250.966 139.2 251.782 139.616C252.598 140.032 253.27 140.64 253.798 141.44C254.326 142.224 254.694 143.2 254.902 144.368C255.126 145.52 255.142 146.84 254.95 148.328L253.102 164H247.174L249.022 148.328C249.23 146.728 249.15 145.584 248.782 144.896C248.414 144.192 247.742 143.84 246.766 143.84C246.11 143.84 245.438 144.032 244.75 144.416C244.062 144.784 243.398 145.32 242.758 146.024C242.118 146.712 241.526 147.544 240.982 148.52C240.454 149.48 240.022 150.56 239.686 151.76L238.318 164H232.39L235.342 139.352H238.342C238.966 139.352 239.446 139.504 239.782 139.808C240.134 140.112 240.31 140.6 240.31 141.272L240.166 144.464Z" fill="white"/>
<rect x="358.441" y="3.62695" width="349.178" height="223.71"/>
<defs>
<linearGradient id="paint0_linear_124_8089" x1="-1.21594e-06" y1="-1.05394" x2="52.0081" y2="334.251" gradientUnits="userSpaceOnUse">
<stop stop-color="#274060"/>
<stop offset="1" stop-color="#1CB8E8"/>
</linearGradient>
<linearGradient id="paint1_linear_124_8089" x1="0.00129792" y1="-1.05482" x2="52.0094" y2="334.25" gradientUnits="userSpaceOnUse">
<stop stop-color="#274060"/>
<stop offset="1" stop-color="#1B2845"/>
</linearGradient>
<linearGradient id="paint2_linear_124_8089" x1="850.414" y1="-229.391" x2="130.725" y2="273.086" gradientUnits="userSpaceOnUse">
<stop stop-color="white" stop-opacity="0.5"/>
<stop offset="1" stop-color="white" stop-opacity="0.25"/>
</linearGradient>
</defs>
</svg>
